<?xml version="1.0" encoding="UTF-8" standalone="no"?>
<svg
   xmlns:dc="http://purl.org/dc/elements/1.1/"
   xmlns:cc="http://creativecommons.org/ns#"
   xmlns:rdf="http://www.w3.org/1999/02/22-rdf-syntax-ns#"
   xmlns:svg="http://www.w3.org/2000/svg"
   xmlns="http://www.w3.org/2000/svg"
   viewBox="0 0 704.25189 184.4222"
   height="184.4222"
   width="704.25189"
   xml:space="preserve"
   id="svg2"
   version="1.1"><metadata
     id="metadata8"><rdf:RDF><cc:Work
         rdf:about=""><dc:format>image/svg+xml</dc:format><dc:type
           rdf:resource="http://purl.org/dc/dcmitype/StillImage" /></cc:Work></rdf:RDF></metadata><defs
     id="defs6"><clipPath
       id="clipPath14"
       clipPathUnits="userSpaceOnUse"><path
         id="path12"
         d="M 0,0 H 595 V 842 H 0 Z" /></clipPath><clipPath
       id="clipPath24"
       clipPathUnits="userSpaceOnUse"><path
         id="path22"
         d="m 18.25992,41 h 558.4802 V 801 H 18.25992 Z" /></clipPath></defs><g
     clip-path="url(#clipPath14)"
     transform="matrix(1.3333333,0,0,-1.3333333,-38.48024,263.40987)"
     id="g10"><g
       id="g16" /><g
       id="g18"><g
         clip-path="url(#clipPath24)"
         id="g20"><path
           id="path26"
           style="fill:#48bbc2;fill-opacity:1;fill-rule:nonzero;stroke:none"
           d="m 18.25992,505.0579 h 558.4802 V 801 H 18.25992 Z" /><path
           id="path28"
           style="fill:#f95c79;fill-opacity:1;fill-rule:nonzero;stroke:none"
           d="m 18.25992,207.2837 h 558.4802 V 505.0579 H 18.25992 Z" /><path
           id="path30"
           style="fill:#ffdf77;fill-opacity:1;fill-rule:nonzero;stroke:none"
           d="m 18.25992,41 h 558.4802 V 207.2837 H 18.25992 Z" /><path
           id="path32"
           style="fill:#1d1d1d;fill-opacity:1;fill-rule:nonzero;stroke:none"
           d="m 168.8088,683.8281 c -2.2343,-14.183 -8.6013,-25.6288 -19.0959,-34.3399 -10.4984,-8.711 -23.3971,-13.0672 -38.6961,-13.0672 -18.87368,0 -33.72831,5.6393 -44.55871,16.9191 -10.83423,11.2798 -16.2488,26.6349 -16.2488,46.0665 0,19.2083 5.55373,34.4523 16.66756,45.7321 11.11001,11.2785 26.10379,16.9191 44.97755,16.9191 14.9631,0 27.5273,-4.3843 37.6913,-13.1489 10.1601,-8.7685 16.3024,-20.1875 18.4256,-34.2582 h -28.1415 c -1.5665,7.9284 -4.9715,13.8741 -10.2188,17.8408 -5.2512,3.963 -11.5033,5.947 -18.7614,5.947 -8.8234,0 -16.08155,-3.4918 -21.77699,-10.4691 -5.69544,-6.9811 -8.5438,-16.5016 -8.5438,-28.5628 0,-12.3943 2.84836,-22.0566 8.5438,-28.9789 5.69544,-6.9262 13.06589,-10.3848 22.11149,-10.3848 7.1458,0 13.4566,1.8423 18.9286,5.5269 5.4708,3.6846 8.9881,9.7707 10.5534,18.2583 z" /><g
           transform="matrix(1.276719,0,0,1.276719,168.8088,683.8281)"
           id="g34"><path
             id="path36"
             style="fill:none;stroke:#1d1d1d;stroke-width:0.75;stroke-linecap:round;stroke-linejoin:round;stroke-miterlimit:4;stroke-dasharray:none;stroke-opacity:1"
             d="m 0,0 c -1.75,-11.109 -6.737,-20.074 -14.957,-26.897 -8.223,-6.823 -18.326,-10.235 -30.309,-10.235 -14.783,0 -26.418,4.417 -34.901,13.252 -8.486,8.835 -12.727,20.862 -12.727,36.082 0,15.045 4.35,26.985 13.055,35.82 8.702,8.834 20.446,13.252 35.229,13.252 11.72,0 21.561,-3.434 29.522,-10.299 7.958,-6.868 12.769,-15.812 14.432,-26.833 h -22.042 c -1.227,6.21 -3.894,10.867 -8.004,13.974 -4.113,3.104 -9.01,4.658 -14.695,4.658 -6.911,0 -12.596,-2.735 -17.057,-8.2 -4.461,-5.468 -6.692,-12.925 -6.692,-22.372 0,-9.708 2.231,-17.276 6.692,-22.698 4.461,-5.425 10.234,-8.134 17.319,-8.134 5.597,0 10.54,1.443 14.826,4.329 4.285,2.886 7.04,7.653 8.266,14.301 z" /></g><path
           id="path38"
           style="fill:#1d1d1d;fill-opacity:1;fill-rule:nonzero;stroke:none"
           d="m 285.8999,722.0221 h -28.1427 c -1.3393,4.5783 -4.3,8.4582 -8.8784,11.6424 -4.5795,3.1828 -10.4984,4.7736 -17.7553,4.7736 -9.1592,0 -16.6675,-3.3501 -22.5315,-10.0516 -5.8627,-6.6989 -8.794,-16.2475 -8.794,-28.6445 0,-12.6203 2.8738,-22.3923 8.6267,-29.3147 5.7504,-6.9262 13.4847,-10.3848 23.2006,-10.3848 7.5926,0 13.9877,1.6176 19.1801,4.8566 5.1937,3.239 7.7893,8.4315 7.7893,15.5798 v 2.3453 h -29.3148 v 23.4508 h 57.9605 V 638.6 h -21.9442 l -0.8388,13.4017 c -7.705,-10.3874 -20.1007,-15.5798 -37.187,-15.5798 -17.869,0 -31.9691,5.6967 -42.2977,17.0876 -10.3312,11.3896 -15.4955,26.8009 -15.4955,46.2325 0,18.9848 5.6954,34.1165 17.0876,45.3963 11.3908,11.2786 26.354,16.9204 44.8932,16.9204 13.846,0 25.6838,-3.4638 35.5132,-10.3874 9.8257,-6.9262 16.1352,-16.8093 18.9287,-29.6492" /><g
           transform="matrix(1.276719,0,0,1.276719,285.8999,722.0221)"
           id="g40"><path
             id="path42"
             style="fill:none;stroke:#1d1d1d;stroke-width:0.75;stroke-linecap:round;stroke-linejoin:round;stroke-miterlimit:4;stroke-dasharray:none;stroke-opacity:1"
             d="m 0,0 h -22.043 c -1.049,3.586 -3.368,6.625 -6.954,9.119 -3.587,2.493 -8.223,3.739 -13.907,3.739 -7.174,0 -13.055,-2.624 -17.648,-7.873 -4.592,-5.247 -6.888,-12.726 -6.888,-22.436 0,-9.885 2.251,-17.539 6.757,-22.961 4.504,-5.425 10.562,-8.134 18.172,-8.134 5.947,0 10.956,1.267 15.023,3.804 4.068,2.537 6.101,6.604 6.101,12.203 v 1.837 h -22.961 v 18.368 H 1.05 v -53.007 h -17.188 l -0.657,10.497 c -6.035,-8.136 -15.744,-12.203 -29.127,-12.203 -13.996,0 -25.04,4.462 -33.13,13.384 -8.092,8.921 -12.137,20.992 -12.137,36.212 0,14.87 4.461,26.722 13.384,35.557 8.922,8.834 20.642,13.253 35.163,13.253 10.845,0 20.117,-2.713 27.816,-8.136 C -7.13,17.798 -2.188,10.057 0,0 Z" /></g><path
           id="path44"
           style="fill:#1d1d1d;fill-opacity:1;fill-rule:nonzero;stroke:none"
           d="m 328.2791,662.7228 h 26.8022 c 6.0299,0 10.6082,1.1976 13.7349,3.6016 3.1267,2.3977 4.692,5.7785 4.692,10.1334 0,4.3548 -1.5653,7.733 -4.692,10.1345 -3.1267,2.4003 -7.705,3.6017 -13.7349,3.6017 h -26.8022 z m 0,48.7451 h 25.2944 c 4.9128,0 8.7366,1.1159 11.4751,3.3514 2.7348,2.2317 4.1047,5.2473 4.1047,9.0456 0,3.7944 -1.3699,6.7538 -4.1047,8.8783 -2.7385,2.1193 -6.5623,3.1816 -11.4751,3.1816 h -25.2944 z m -28.6444,48.5792 h 52.934 c 5.5831,0 10.6083,-0.2796 15.0755,-0.8376 4.466,-0.5592 8.7111,-1.5652 12.7314,-3.0156 4.0204,-1.4516 7.3425,-3.3245 9.9674,-5.6124 2.6236,-2.2892 4.7175,-5.3048 6.2814,-9.0443 1.5627,-3.7433 2.3454,-8.0689 2.3454,-12.9817 0,-10.9466 -4.803,-19.378 -14.4052,-25.2956 12.8399,-4.5809 19.2644,-13.6813 19.2644,-27.3039 0,-24.9062 -16.3637,-37.3555 -49.0822,-37.3555 h -55.1121 z" /><g
           transform="matrix(1.276719,0,0,1.276719,328.2791,662.7228)"
           id="g46"><path
             id="path48"
             style="fill:none;stroke:#1d1d1d;stroke-width:0.75;stroke-linecap:round;stroke-linejoin:round;stroke-miterlimit:4;stroke-dasharray:none;stroke-opacity:1"
             d="m 0,0 h 20.993 c 4.723,0 8.309,0.938 10.758,2.821 2.449,1.878 3.675,4.526 3.675,7.937 0,3.411 -1.226,6.057 -3.675,7.938 -2.449,1.88 -6.035,2.821 -10.758,2.821 L 0,21.517 Z m 0,38.18 h 19.812 c 3.848,0 6.843,0.874 8.988,2.625 2.142,1.748 3.215,4.11 3.215,7.085 0,2.972 -1.073,5.29 -3.215,6.954 -2.145,1.66 -5.14,2.492 -8.988,2.492 H 0 Z m -22.436,38.05 h 41.461 c 4.373,0 8.309,-0.219 11.808,-0.656 3.498,-0.438 6.823,-1.226 9.972,-2.362 3.149,-1.137 5.751,-2.604 7.807,-4.396 2.055,-1.793 3.695,-4.155 4.92,-7.084 1.224,-2.932 1.837,-6.32 1.837,-10.168 0,-8.574 -3.762,-15.178 -11.283,-19.813 10.057,-3.588 15.089,-10.716 15.089,-21.386 0,-19.508 -12.817,-29.259 -38.444,-29.259 h -43.167 z" /></g><path
           id="path50"
           style="fill:#1d1d1d;fill-opacity:1;fill-rule:nonzero;stroke:none"
           d="m 451.3998,735.9245 h -11.894 v -73.2019 h 11.894 c 4.6893,0 8.8208,0.2221 12.3956,0.6702 3.5736,0.4443 7.1739,1.4491 10.8049,3.0144 3.6284,1.5627 6.6159,3.6284 8.9626,6.1984 2.3453,2.5675 4.2719,6.113 5.7797,10.6364 1.5065,4.5221 2.261,9.9111 2.261,16.1645 0,6.141 -0.7545,11.4764 -2.261,15.9986 -1.5078,4.5234 -3.4344,8.0956 -5.7797,10.7206 -2.3467,2.6236 -5.3342,4.6894 -8.9626,6.1972 -3.631,1.5078 -7.2313,2.4845 -10.8049,2.9326 -3.5748,0.4456 -7.7063,0.669 -12.3956,0.669 m -0.5018,24.1223 c 47.3484,0 71.0239,-20.2143 71.0239,-60.6403 0,-40.5371 -23.6755,-60.8063 -71.0239,-60.8063 h -40.0366 v 121.4466 z" /><g
           transform="matrix(1.276719,0,0,1.276719,451.3998,735.9245)"
           id="g52"><path
             id="path54"
             style="fill:none;stroke:#1d1d1d;stroke-width:0.75;stroke-linecap:round;stroke-linejoin:round;stroke-miterlimit:4;stroke-dasharray:none;stroke-opacity:1"
             d="M 0,0 H -9.316 V -57.336 H 0 c 3.673,0 6.909,0.174 9.709,0.525 2.799,0.348 5.619,1.135 8.463,2.361 2.842,1.224 5.182,2.842 7.02,4.855 1.837,2.011 3.346,4.788 4.527,8.331 1.18,3.542 1.771,7.763 1.771,12.661 0,4.81 -0.591,8.989 -1.771,12.531 -1.181,3.543 -2.69,6.341 -4.527,8.397 -1.838,2.055 -4.178,3.673 -7.02,4.854 -2.844,1.181 -5.664,1.946 -8.463,2.297 C 6.909,-0.175 3.673,0 0,0 Z m -0.393,18.894 c 37.086,0 55.63,-15.833 55.63,-47.497 0,-31.751 -18.544,-47.627 -55.63,-47.627 h -31.359 v 95.124 z" /></g><path
           id="path56"
           style="fill:#1d1d1d;fill-opacity:1;fill-rule:nonzero;stroke:none"
           d="m 100.1284,597.9738 c -5.69549,0 -10.33125,-1.0342 -13.90351,-3.0999 -3.57609,-2.067 -5.36094,-4.9409 -5.36094,-8.6255 0,-2.9058 1.25629,-5.4452 3.76887,-7.622 2.51258,-2.1781 5.94695,-3.7153 10.30184,-4.6064 l 16.58454,-3.3514 c 5.0252,-1.0048 9.1554,-1.9253 12.3957,-2.7641 3.2378,-0.8375 7.0909,-2.2049 11.5581,-4.1034 4.466,-1.901 8.0127,-3.9948 10.6377,-6.2814 2.6223,-2.2905 4.9128,-5.361 6.8687,-9.2141 1.9521,-3.8532 2.9313,-8.2374 2.9313,-13.1489 0,-12.0625 -5.1094,-21.7221 -15.3282,-28.9803 -10.2176,-7.2607 -22.0847,-10.8891 -35.5962,-10.8891 -15.52365,0 -28.17083,3.6859 -37.94283,11.0564 -9.77201,7.3705 -15.77386,17.5893 -18.00684,30.6553 h 28.47721 c 3.1254,-12.397 12.50546,-18.5942 28.14266,-18.5942 5.6955,0 10.5789,1.0597 14.6568,3.1829 4.0753,2.1193 6.1142,5.4694 6.1142,10.0503 0,3.6859 -1.9253,6.6441 -5.7784,8.8783 -3.8532,2.233 -9.4644,4.1302 -16.8361,5.6955 l -14.74103,3.0156 c -25.1271,5.3609 -37.69001,17.1412 -37.69001,35.3447 0,7.816 2.59684,14.575 7.78926,20.2704 5.19369,5.6942 11.50068,9.7988 18.92863,12.3114 7.4254,2.5126 15.32828,3.7689 23.70355,3.7689 12.9536,0 24.1223,-3.0437 33.5024,-9.1298 9.3813,-6.0874 15.0768,-15.4394 17.0876,-28.0572 h -28.3112 c -1.453,4.4647 -4.2707,7.9565 -8.4583,10.4691 -4.1889,2.5126 -9.3558,3.7689 -15.4955,3.7689" /><g
           transform="matrix(1.276719,0,0,1.276719,100.1284,597.9738)"
           id="g58"><path
             id="path60"
             style="fill:none;stroke:#1d1d1d;stroke-width:0.75;stroke-linecap:round;stroke-linejoin:round;stroke-miterlimit:4;stroke-dasharray:none;stroke-opacity:1"
             d="m 0,0 c -4.461,0 -8.092,-0.81 -10.89,-2.428 -2.801,-1.619 -4.199,-3.87 -4.199,-6.756 0,-2.276 0.984,-4.265 2.952,-5.97 1.968,-1.706 4.658,-2.91 8.069,-3.608 l 12.99,-2.625 c 3.936,-0.787 7.171,-1.508 9.709,-2.165 2.536,-0.656 5.554,-1.727 9.053,-3.214 3.498,-1.489 6.276,-3.129 8.332,-4.92 2.054,-1.794 3.848,-4.199 5.38,-7.217 1.529,-3.018 2.296,-6.452 2.296,-10.299 0,-9.448 -4.002,-17.014 -12.006,-22.699 -8.003,-5.687 -17.298,-8.529 -27.881,-8.529 -12.159,0 -22.065,2.887 -29.719,8.66 -7.654,5.773 -12.355,13.777 -14.104,24.011 h 22.305 c 2.448,-9.71 9.795,-14.564 22.043,-14.564 4.461,0 8.286,0.83 11.48,2.493 3.192,1.66 4.789,4.284 4.789,7.872 0,2.887 -1.508,5.204 -4.526,6.954 -3.018,1.749 -7.413,3.235 -13.187,4.461 l -11.546,2.362 c -19.681,4.199 -29.521,13.426 -29.521,27.684 0,6.122 2.034,11.416 6.101,15.877 4.068,4.46 9.008,7.675 14.826,9.643 5.816,1.968 12.006,2.952 18.566,2.952 10.146,0 18.894,-2.384 26.241,-7.151 7.348,-4.768 11.809,-12.093 13.384,-21.976 H 18.762 c -1.138,3.497 -3.345,6.232 -6.625,8.2 C 8.856,-0.984 4.809,0 0,0 Z" /></g><path
           id="path62"
           style="fill:#1d1d1d;fill-opacity:1;fill-rule:nonzero;stroke:none"
           d="m 186.7318,593.786 h -38.8634 v 25.1271 H 254.5753 V 593.786 h -39.0318 v -96.3208 h -28.8117 z" /><g
           transform="matrix(1.276719,0,0,1.276719,186.7318,593.786)"
           id="g64"><path
             id="path66"
             style="fill:none;stroke:#1d1d1d;stroke-width:0.75;stroke-linecap:round;stroke-linejoin:round;stroke-miterlimit:4;stroke-dasharray:none;stroke-opacity:1"
             d="M 0,0 H -30.44 V 19.681 H 53.139 V 0 H 22.567 V -75.444 H 0 Z" /></g><path
           id="path68"
           style="fill:#1d1d1d;fill-opacity:1;fill-rule:nonzero;stroke:none"
           d="m 279.1979,542.359 h 31.3255 l -15.5785,46.2338 z m 0.1672,76.5546 h 31.4928 l 45.8993,-121.4479 h -31.1583 l -7.3705,21.6085 h -46.9041 l -7.2032,-21.6085 h -30.4868 z" /><g
           transform="matrix(1.276719,0,0,1.276719,279.1979,542.359)"
           id="g70"><path
             id="path72"
             style="fill:none;stroke:#1d1d1d;stroke-width:0.75;stroke-linecap:round;stroke-linejoin:round;stroke-miterlimit:4;stroke-dasharray:none;stroke-opacity:1"
             d="M 0,0 H 24.536 L 12.334,36.213 Z M 0.131,59.962 H 24.798 L 60.749,-35.163 H 36.344 l -5.773,16.925 H -6.167 l -5.642,-16.925 h -23.879 z" /></g><path
           id="path74"
           style="fill:#1d1d1d;fill-opacity:1;fill-rule:nonzero;stroke:none"
           d="m 441.0131,618.913 h 93.1379 v -25.1271 h -64.4934 v -21.274 h 60.9748 v -25.2943 h -60.9748 v -24.4581 h 64.4934 v -25.2944 h -93.1379 z" /><g
           transform="matrix(1.276719,0,0,1.276719,441.0131,618.913)"
           id="g76"><path
             id="path78"
             style="fill:none;stroke:#1d1d1d;stroke-width:0.75;stroke-linecap:round;stroke-linejoin:round;stroke-miterlimit:4;stroke-dasharray:none;stroke-opacity:1"
             d="M 0,0 H 72.951 V -19.681 H 22.436 V -36.344 H 70.195 V -56.156 H 22.436 V -75.313 H 72.951 V -95.125 H 0 Z" /></g><path
           id="path80"
           style="fill:#1d1d1d;fill-opacity:1;fill-rule:nonzero;stroke:none"
           d="m 89.82613,395.1979 c 6.19847,-6.8687 13.98777,-10.3018 23.36907,-10.3018 9.38,0 17.1693,3.4331 23.3678,10.3018 6.1972,6.8687 9.2958,16.5016 9.2958,28.896 0,12.3956 -3.0986,22.0285 -9.2958,28.8972 -6.1985,6.8675 -13.9878,10.3019 -23.3678,10.3019 -9.3813,0 -17.1706,-3.4344 -23.36907,-10.3019 -6.19847,-6.8687 -9.29707,-16.5016 -9.29707,-28.8972 0,-12.3944 3.0986,-22.0273 9.29707,-28.896 m 23.36907,-33.9224 c -18.76267,0 -33.95179,5.7516 -45.56483,17.2548 -11.61558,11.5007 -17.42082,26.6911 -17.42082,45.5636 0,18.8712 5.80524,34.0603 17.42082,45.5635 11.61304,11.502 26.80216,17.2536 45.56483,17.2536 18.649,0 33.8075,-5.7516 45.4793,-17.2536 11.6679,-11.5032 17.5051,-26.6923 17.5051,-45.5635 0,-18.8725 -5.8372,-34.0629 -17.5051,-45.5636 -11.6718,-11.5032 -26.8303,-17.2548 -45.4793,-17.2548" /><g
           transform="matrix(1.276719,0,0,1.276719,89.82613,395.1979)"
           id="g82"><path
             id="path84"
             style="fill:none;stroke:#1d1d1d;stroke-width:0.75;stroke-linecap:round;stroke-linejoin:round;stroke-miterlimit:4;stroke-dasharray:none;stroke-opacity:1"
             d="m 0,0 c 4.855,-5.38 10.956,-8.069 18.304,-8.069 7.347,0 13.448,2.689 18.303,8.069 4.854,5.38 7.281,12.925 7.281,22.633 0,9.709 -2.427,17.254 -7.281,22.634 -4.855,5.379 -10.956,8.069 -18.303,8.069 C 10.956,53.336 4.855,50.646 0,45.267 -4.855,39.887 -7.282,32.342 -7.282,22.633 -7.282,12.925 -4.855,5.38 0,0 Z m 18.304,-26.57 c -14.696,0 -26.593,4.505 -35.689,13.515 -9.098,9.008 -13.645,20.906 -13.645,35.688 0,14.781 4.547,26.678 13.645,35.688 9.096,9.009 20.993,13.514 35.689,13.514 14.607,0 26.48,-4.505 35.622,-13.514 9.139,-9.01 13.711,-20.907 13.711,-35.688 0,-14.782 -4.572,-26.68 -13.711,-35.688 -9.142,-9.01 -21.015,-13.515 -35.622,-13.515 z" /></g><path
           id="path86"
           style="fill:#1d1d1d;fill-opacity:1;fill-rule:nonzero;stroke:none"
           d="m 182.5432,484.9019 h 89.452 v -25.1271 h -60.8075 v -21.2739 h 57.1229 v -25.2944 h -57.1229 v -49.7524 h -28.6445 z" /><g
           transform="matrix(1.276719,0,0,1.276719,182.5432,484.9019)"
           id="g88"><path
             id="path90"
             style="fill:none;stroke:#1d1d1d;stroke-width:0.75;stroke-linecap:round;stroke-linejoin:round;stroke-miterlimit:4;stroke-dasharray:none;stroke-opacity:1"
             d="M 0,0 H 70.064 V -19.681 H 22.436 V -36.344 H 67.178 V -56.156 H 22.436 V -95.125 H 0 Z" /></g><path
           id="path92"
           style="fill:#1d1d1d;fill-opacity:1;fill-rule:nonzero;stroke:none"
           d="M 112.6919,229.4433 85.38672,326.6016 V 229.4433 H 57.57979 v 121.4479 h 45.22901 l 23.2835,-87.1067 23.7879,87.1067 h 44.726 V 229.4433 H 166.798 v 97.3255 l -27.1367,-97.3255 z" /><g
           transform="matrix(1.276719,0,0,1.276719,112.6919,229.4433)"
           id="g94"><path
             id="path96"
             style="fill:none;stroke:#1d1d1d;stroke-width:0.75;stroke-linecap:round;stroke-linejoin:round;stroke-miterlimit:4;stroke-dasharray:none;stroke-opacity:1"
             d="M 0,0 -21.387,76.1 V 0 h -21.78 V 95.125 H -7.741 L 10.496,26.898 29.128,95.125 H 64.16 V 0 H 42.379 V 76.231 L 21.124,0 Z" /></g><g
           transform="matrix(1.276719,0,0,1.276719,18.25992,41)"
           id="g98"><path
             id="path100"
             style="fill:#1d1d1d;fill-opacity:1;fill-rule:nonzero;stroke:#1d1d1d;stroke-width:0.75;stroke-linecap:round;stroke-linejoin:round;stroke-miterlimit:4;stroke-dasharray:none;stroke-opacity:1"
             d="m 148.751,147.6 h 22.436 v 95.125 h -22.436 z" /></g><path
           id="path102"
           style="fill:#1d1d1d;fill-opacity:1;fill-rule:nonzero;stroke:none"
           d="m 326.7703,229.4433 -48.7464,83.7566 v -83.7566 h -27.6397 v 121.4479 h 34.843 l 48.7464,-83.7579 v 83.7579 h 27.6396 V 229.4433 Z" /><g
           transform="matrix(1.276719,0,0,1.276719,326.7703,229.4433)"
           id="g104"><path
             id="path106"
             style="fill:none;stroke:#1d1d1d;stroke-width:0.75;stroke-linecap:round;stroke-linejoin:round;stroke-miterlimit:4;stroke-dasharray:none;stroke-opacity:1"
             d="M 0,0 -38.181,65.603 V 0 H -59.83 v 95.125 h 27.291 L 5.642,29.521 V 95.125 H 27.291 L 27.291,0 Z" /></g><path
           id="path108"
           style="fill:#1d1d1d;fill-opacity:1;fill-rule:nonzero;stroke:none"
           d="M 415.7199,326.7692 H 403.826 v -73.2045 h 11.8939 c 4.6894,0 8.8209,0.2235 12.3957,0.6716 3.5735,0.443 7.1739,1.4491 10.8049,3.0143 3.6284,1.5627 6.6159,3.6284 8.9625,6.1972 2.3454,2.5688 4.2719,6.1142 5.7797,10.6376 1.5066,4.5234 2.2611,9.9099 2.2611,16.1658 0,6.1398 -0.7545,11.4739 -2.2611,15.9973 -1.5078,4.5234 -3.4343,8.0957 -5.7797,10.7206 -2.3466,2.6224 -5.3341,4.6907 -8.9625,6.1985 -3.631,1.5078 -7.2314,2.4845 -10.8049,2.9313 -3.5748,0.4456 -7.7063,0.6703 -12.3957,0.6703 m -0.5017,24.1211 c 47.3484,0 71.0238,-20.2143 71.0238,-60.6391 0,-40.5383 -23.6754,-60.8075 -71.0238,-60.8075 h -40.0366 v 121.4466 z" /><g
           transform="matrix(1.276719,0,0,1.276719,415.7199,326.7692)"
           id="g110"><path
             id="path112"
             style="fill:none;stroke:#1d1d1d;stroke-width:0.75;stroke-linecap:round;stroke-linejoin:round;stroke-miterlimit:4;stroke-dasharray:none;stroke-opacity:1"
             d="M 0,0 H -9.316 V -57.338 H 0 c 3.673,0 6.909,0.175 9.709,0.526 2.799,0.347 5.619,1.135 8.463,2.361 2.842,1.224 5.182,2.842 7.02,4.854 1.837,2.012 3.346,4.789 4.527,8.332 1.18,3.543 1.771,7.762 1.771,12.662 0,4.809 -0.591,8.987 -1.771,12.53 -1.181,3.543 -2.69,6.341 -4.527,8.397 -1.838,2.054 -4.178,3.674 -7.02,4.855 -2.844,1.181 -5.664,1.946 -8.463,2.296 C 6.909,-0.176 3.673,0 0,0 Z m -0.393,18.893 c 37.086,0 55.63,-15.833 55.63,-47.496 0,-31.752 -18.544,-47.628 -55.63,-47.628 h -31.359 v 95.124 z" /></g><path
           id="path114"
           style="fill:#ffffff;fill-opacity:1;fill-rule:nonzero;stroke:none"
           d="m 410.1284,465.3971 c 3.9106,-0.2042 9.8474,7.4305 13.3022,9.0456 -0.1022,2.0083 -3.2199,1.9623 -4.7252,1.8321 -2.5126,-0.2183 -8.7481,-3.2927 -10.0375,-5.4886 -0.9001,-1.5321 -0.6627,-5.278 1.4605,-5.3891" /><path
           id="path116"
           style="fill:#4bbbc0;fill-opacity:1;fill-rule:nonzero;stroke:none"
           d="m 447.9086,469.3175 c 4.1991,4.4941 8.8617,8.5834 14.9503,10.1959 -2.5611,2.2917 -6.9989,1.8053 -10.146,0.9895 -4.2387,-1.098 -12.1174,-5.7453 -13.6622,-9.9737 -0.4979,-1.3598 -0.6077,-4.18 -1.9738,-4.7456 -2.7577,-1.1401 -1.4465,3.2709 -1.5627,4.8094 -0.0268,0.3434 0.1813,0.6703 -0.3447,0.5732 -0.8337,-0.7941 -1.693,-1.6214 -2.1743,-2.6926 -0.7086,-1.5754 -0.6945,-5.2166 -2.75,-5.6124 -3.285,-0.6307 -0.7163,5.0711 -0.406,6.2202 0.0625,0.2349 0.3332,0.7353 -0.1149,0.6945 -0.978,-1.5257 -2.1028,-2.7679 -2.8267,-4.4749 -0.6958,-1.6457 -0.7992,-5.0188 -2.6734,-5.4414 -3.2072,-0.7239 -1.4274,4.3626 -0.8018,5.9048 0.6958,1.7159 1.8512,3.1535 2.8228,4.706 -0.6537,-0.0549 -1.4746,0.1609 -2.0823,-0.1174 -0.9691,-0.4456 -3.0756,-2.7846 -4.0651,-3.5812 -1.0546,-0.849 -2.1589,-1.7593 -3.2812,-2.5126 -2.3121,-1.5538 -5.4311,-2.1832 -6.6861,-4.669 -1.6738,-3.3131 -1.896,-8.854 -0.7393,-12.3433 0.2579,-0.7775 1.2091,-3.0526 2.0824,-2.9262 5.8397,2.9722 12.0152,4.4595 17.7081,7.8058 7.5543,4.4392 12.8616,10.9147 18.7269,17.191" /><path
           id="path118"
           style="fill:#4bbbc0;fill-opacity:1;fill-rule:nonzero;stroke:none"
           d="m 432.7229,442.5523 c -0.3383,-0.1736 -0.5656,0.008 -0.452,-0.5809 0.4788,-0.0524 0.9308,0.0127 1.4006,0.1021 0.2439,0.0473 1.1261,0.2643 1.1465,0.5886 -0.9422,0.106 -1.218,0.3396 -2.0951,-0.1098" /><path
           id="path120"
           style="fill:#4bbbc0;fill-opacity:1;fill-rule:nonzero;stroke:none"
           d="m 436.6738,445.3311 c 0.2094,-0.4877 1.9432,-0.4099 2.4386,-0.355 0.3996,0.0447 1.3329,0.2656 1.4988,0.6997 -1.5857,-0.1519 -2.6938,1.0201 -3.9374,-0.3447" /><path
           id="path122"
           style="fill:#4bbbc0;fill-opacity:1;fill-rule:nonzero;stroke:none"
           d="m 343.2356,463.794 c 3.3259,0.4072 6.9173,5.7886 8.8196,10.5546 -0.3639,0.0562 -0.7622,0.1813 -1.2014,0.4392 -0.6779,0.3958 -1.0111,1.0137 -1.5818,1.4299 -0.9716,0.706 -4.5783,2.893 -4.7443,3.8391 -0.2183,1.2397 1.0558,1.8461 2.0912,1.624 1.6764,-0.3575 4.4839,-3.2774 6.4143,-4.3472 0.2336,0.9256 0.3766,1.7746 0.3843,2.464 -1.4874,1.375 -2.7028,2.9901 -4.157,4.3996 -0.8835,0.8567 -2.3288,1.2397 -2.2279,2.6607 0.0855,1.2243 1.744,1.864 2.7973,1.3827 0.6792,-0.3103 2.7207,-2.8752 3.6003,-3.5812 0.5554,-0.4456 2.0836,-1.5857 2.7386,-1.3725 l 1.0788,1.8257 c -1.1145,0.4813 -5.9086,3.857 -5.9903,4.7954 0.3051,0.8477 1.2703,1.5448 2.1691,1.4873 1.2716,-0.0817 4.1902,-3.1445 5.6648,-3.6373 l 1.4018,1.1848 c -1.4197,0.9154 -5.0647,5.5664 -4.8247,7.1317 0.0945,0.6167 1.098,1.4376 1.6942,1.4606 1.2448,0.0472 2.3556,-2.8497 3.2442,-3.8455 0.6026,-0.6754 2.0261,-2.0402 2.9543,-1.8091 0.6996,0.1736 1.2537,1.2397 2.0287,1.352 0.0932,0.3396 -0.0906,0.3856 -0.2247,0.5797 -0.6384,0.9307 -1.6942,1.7631 -2.4181,2.9122 -4.5145,7.1509 -0.8771,15.7381 6.1168,19.5618 -6.2189,8.277 -12.9141,4.7341 -17.2651,-2.8917 -2.6109,-4.5771 -4.457,-9.8474 -7.0232,-14.5291 -3.5008,-6.3887 -7.4599,-10.7359 -8.4545,-18.4243 -0.5822,-4.503 0.0217,-17.4911 6.9147,-16.6471" /><path
           id="path124"
           style="fill:#ffffff;fill-opacity:1;fill-rule:nonzero;stroke:none"
           d="m 363.7754,506.2538 c -0.821,-6.3594 1.1158,-9.3277 4.8936,-10.7602 0.7418,-0.2809 3.8723,-0.2273 5.375,0.3473 0.8605,0.0996 1.6955,0.4392 1.9317,1.2639 0.2081,0.7252 -0.272,1.5372 -0.8695,1.9304 -0.6753,0.4443 -1.495,0.429 -2.2763,0.4124 -0.2388,0.1966 -0.5529,0.4724 -0.8618,0.7494 -0.7827,0.7022 -1.1874,1.73 -1.0852,2.7756 0.0983,1.0061 0.2655,2.2356 0.5311,2.9978 0.157,0.337 0.3306,0.6638 0.5298,0.9664 0.6626,1.0061 1.7632,1.5627 2.8892,2.0466 0.4941,0.0217 0.9856,0.0549 1.4746,0.129 0.6958,0.1059 1.2755,0.3523 1.6253,0.9996 0.4328,0.8031 0.1047,1.6304 -0.5898,2.1411 -1.2334,0.9065 -3.1867,1.1682 -4.6728,1.2435 -1.9917,0.1021 -3.9732,-0.4634 -5.5308,-1.7095 -1.7274,-1.3827 -3.0858,-3.3757 -3.3641,-5.5333" /><path
           id="path126"
           style="fill:#ffffff;fill-opacity:1;fill-rule:nonzero;stroke:none"
           d="m 336.8153,491.9951 c 1.5461,3.105 3.8186,5.8385 5.4528,8.9154 1.9534,3.6795 3.3757,7.6564 5.3597,11.3245 2.316,4.2846 5.0545,8.1161 8.9255,11.1163 -3.8671,1.4644 -6.6057,-1.2601 -8.7659,-4.0918 -4.2987,-5.6304 -6.0312,-12.554 -9.4196,-18.6197 -2.4232,-4.337 -5.4044,-7.7484 -7.0769,-12.6216 -2.6556,-7.7395 -2.6249,-17.6788 4.0613,-23.2925 l -1.6317,5.089 c -1.4427,7.5326 -0.3115,15.3385 3.0948,22.1804" /><path
           id="path128"
           style="fill:#4bbbc0;fill-opacity:1;fill-rule:nonzero;stroke:none"
           d="m 441.3086,448.4595 c 1.0826,0.2235 2.5381,-0.2911 3.5327,-0.1736 0.2693,0.0319 1.2639,0.2834 1.3303,0.6333 -1.6738,0.2566 -4.2183,1.9559 -4.863,-0.4597" /><path
           id="path130"
           style="fill:#4bbbc0;fill-opacity:1;fill-rule:nonzero;stroke:none"
           d="m 468.6509,469.5448 -3.9374,-0.5771 c 1.1018,-0.6856 3.8787,-1.255 3.9374,0.5771" /><path
           id="path132"
           style="fill:#ffffff;fill-opacity:1;fill-rule:nonzero;stroke:none"
           d="m 460.9219,475.0747 c -7.7995,-3.3821 -14.5942,-13.0251 -21.002,-18.8559 -8.051,-7.3271 -13.0328,-8.7634 -22.7052,-12.7506 -0.7749,-0.3192 -4.3881,-1.8257 -4.4072,-2.5266 0.429,-1.0444 0.5528,-2.0121 0.4609,-3.142 4.5094,1.5103 8.8872,3.3807 13.3149,5.1056 7.6692,2.9862 14.049,8.6331 20.0572,14.2405 6.9594,6.4934 11.239,15.3181 21.9085,15.8824 0.4801,0.0255 0.8337,-0.0115 1.2589,-0.2375 -0.9754,4.8707 -5.4389,3.7778 -8.886,2.2841" /><path
           id="path134"
           style="fill:#4bbbc0;fill-opacity:1;fill-rule:nonzero;stroke:none"
           d="m 447.4368,453.7764 -1.9559,-1.6074 c 1.7057,-0.4047 4.2183,-1.2856 5.7299,-0.0702 0.1813,0.1468 0.4277,-0.008 0.2936,0.5299 z" /><path
           id="path136"
           style="fill:#4bbbc0;fill-opacity:1;fill-rule:nonzero;stroke:none"
           d="m 458.9212,465.7192 c -0.1009,-0.4506 0.1685,-0.337 0.4634,-0.4494 1.1146,-0.42 3.0769,-0.7558 4.2757,-0.8311 0.369,-0.0243 1.5883,-0.1736 1.7466,0.2387 -1.5959,0.1507 -3.1344,0.7533 -4.6358,1.2742 -0.8464,0.2937 -0.8375,0.978 -1.8499,-0.2324" /><path
           id="path138"
           style="fill:#4bbbc0;fill-opacity:1;fill-rule:nonzero;stroke:none"
           d="m 454.2891,460.6242 c -0.0102,-0.526 3.4816,-0.3702 4.0485,-0.3447 0.7647,0.0345 2.5483,0.143 3.1956,0.2796 0.3205,0.069 0.775,0.2886 0.8618,0.6422 -2.1666,0.2043 -4.3906,0.3435 -6.3759,1.3367 z" /><path
           id="path140"
           style="fill:#4bbbc0;fill-opacity:1;fill-rule:nonzero;stroke:none"
           d="m 451.8776,457.9039 -1.998,-1.6827 4.7468,-1.0533 0.766,0.1711 2.5994,1.9253 h -3.3603 c -0.5362,0 -2.1704,0.7533 -2.7539,0.6396" /><path
           id="path142"
           style="fill:#2b2b2a;fill-opacity:1;fill-rule:nonzero;stroke:none"
           d="m 377.0416,451.5112 c -1.3635,0.6319 -5.3903,2.5087 -5.8997,0.2578 -0.549,-2.427 1.9981,-2.5202 3.5825,-3.2709 2.8075,-1.3291 5.472,-2.8713 7.8326,-4.9128 0.8976,-0.7763 3.2161,-3.6195 4.1749,-3.6757 0.1507,-0.008 0.729,0.1609 0.7801,0.24 0.5285,0.8261 -0.9793,3.3642 -1.4925,4.1174 -1.8729,2.7437 -5.9661,5.8474 -8.9779,7.2442" /><path
           id="path144"
           style="fill:#2b2b2a;fill-opacity:1;fill-rule:nonzero;stroke:none"
           d="m 353.8671,451.3803 c -3.239,-0.003 -3.1675,-2.6032 -0.6179,-3.5008 4.3549,-1.532 8.397,-2.2419 12.4493,-4.9307 0.7571,-0.5017 3.2288,-3.0054 3.4561,-3.0462 0.7213,-0.1277 0.8669,1.0226 0.6766,1.6138 -1.2729,3.9501 -11.8262,9.8664 -15.9641,9.8639" /><path
           id="path146"
           style="fill:#2b2b2a;fill-opacity:1;fill-rule:nonzero;stroke:none"
           d="m 389.6847,456.5257 c -0.6307,0.1532 -1.675,-0.4277 -1.8602,-1.0482 -0.406,-1.3533 1.2946,-3.8569 2.0811,-5.006 1.7389,-2.5432 4.351,-5.5256 7.3718,-6.4142 -0.4354,2.1666 -2.1896,3.6859 -3.2863,5.6329 -0.8567,1.5193 -2.6339,6.4282 -4.3064,6.8355" /><path
           id="path148"
           style="fill:#2b2b2a;fill-opacity:1;fill-rule:nonzero;stroke:none"
           d="m 344.5273,480.0574 c 0.166,-0.946 3.7727,-3.133 4.7443,-3.8403 0.5707,-0.415 0.9052,-1.0329 1.5818,-1.43 0.4405,-0.2566 0.8376,-0.383 1.2014,-0.4392 0.4175,1.0482 0.7456,2.0568 0.9793,2.985 -1.9317,1.0712 -4.7392,3.9898 -6.4155,4.3485 -1.0355,0.2209 -2.3096,-0.3856 -2.0913,-1.624" /><path
           id="path150"
           style="fill:#1d1d1d;fill-opacity:1;fill-rule:nonzero;stroke:none"
           d="m 399.4402,588.2256 c -0.0408,0.3805 0.5822,0.4507 2.851,1.0367 6.7959,1.707 21.459,5.3942 25.4999,6.4041 1.4707,0.3779 7.3411,2.0006 9.5498,2.907 1.4019,0.6129 0.8452,2.6186 0.5388,3.4574 -2.2087,6.4347 -3.4842,13.0698 -5.3137,19.83 -0.263,0.7303 -0.1902,1.3278 -0.7967,1.4325 -0.7916,-0.1673 -3.179,-0.7942 -6.7577,-1.6853 -23.2618,-6.0197 -94.9087,-23.5082 -100.0373,-25.3173 1.0406,-5.4733 4.9639,-19.3423 5.9215,-23.5185 0.1902,-0.7634 0.4481,-1.3827 1.2946,-1.1107 4.5591,1.1082 27.0804,6.8049 36.1911,9.08 2.4309,0.6167 1.8576,0.5464 2.3109,-0.8707 0.1187,-0.4162 0.2055,-0.8286 0.3294,-1.2831 3.7369,-14.5367 22.58,-88.091 23.8337,-92.8736 0.0792,-0.2809 0.3728,-0.3001 0.655,-0.2362 0.729,0.1302 2.865,0.7009 5.9201,1.458 7.3476,1.9317 16.5119,4.0153 22.1779,5.6392 -0.005,3.6336 -12.6637,49.5176 -19.3486,76.7449 -2.6263,10.3133 -4.5898,17.7464 -4.8197,18.9056" /><path
           id="path152"
           style="fill:#2b2b2a;fill-opacity:1;fill-rule:nonzero;stroke:none"
           d="m 468.5492,473.0286 c -10.6696,-0.5643 -14.9491,-9.389 -21.9085,-15.8837 -6.0083,-5.606 -12.388,-11.253 -20.0573,-14.2392 -4.4277,-1.7249 -8.8055,-3.5965 -13.3149,-5.1056 0.0919,1.1299 -0.0319,2.0964 -0.4609,3.1407 0.0192,0.7022 3.6323,2.2075 4.4072,2.5279 9.6725,3.9859 14.6542,5.4222 22.7052,12.7493 6.4079,5.8308 13.2013,15.4751 21.002,18.8572 3.4472,1.4937 7.9093,2.5866 8.886,-2.2854 -0.4251,0.2273 -0.7788,0.2643 -1.2588,0.2388 m -3.8353,-4.0613 3.9374,0.5771 c -0.0587,-1.8321 -2.8369,-1.2614 -3.9374,-0.5771 m -1.0533,-4.5285 c -1.1988,0.0753 -3.1624,0.4111 -4.2757,0.8312 -0.2962,0.1123 -0.5656,-0.003 -0.4635,0.4494 1.0112,1.209 1.0035,0.526 1.85,0.2323 1.5014,-0.5209 3.0399,-1.1235 4.6357,-1.2741 -0.1595,-0.4124 -1.3775,-0.263 -1.7465,-0.2388 m -2.1283,-3.8786 c -0.646,-0.1379 -2.4296,-0.2465 -3.1943,-0.2809 -0.5669,-0.0256 -4.06,-0.1813 -4.0485,0.3447 l 1.7287,1.9138 c 1.9865,-0.992 4.2093,-1.1325 6.3772,-1.3367 -0.0881,-0.3537 -0.5414,-0.5733 -0.8631,-0.6409 m -6.1397,-5.2206 -0.7661,-0.1723 -4.7468,1.0546 1.9981,1.6827 c 0.5821,0.1136 2.2176,-0.6409 2.7538,-0.6409 h 3.3604 z m -4.1826,-3.2403 c -1.5103,-1.2154 -4.0229,-0.3357 -5.7299,0.069 l 1.9572,1.6086 4.0677,-1.149 c 0.134,-0.5375 -0.1124,-0.3817 -0.295,-0.5286 m -6.3695,-3.8135 c -0.9933,-0.1175 -2.4488,0.397 -3.5314,0.1736 0.6434,2.4156 3.1892,0.7162 4.863,0.4596 -0.0677,-0.3498 -1.0609,-0.6013 -1.3316,-0.6332 m -5.7274,-3.3093 c -0.4966,-0.0549 -2.2291,-0.1328 -2.4398,0.3549 1.2435,1.3649 2.353,0.1928 3.9374,0.3435 -0.166,-0.4328 -1.098,-0.6537 -1.4976,-0.6984 m -5.4413,-2.9032 c -0.4699,-0.0894 -0.9218,-0.1545 -1.4006,-0.1022 -0.1136,0.5886 0.1136,0.4086 0.452,0.5809 0.8771,0.4494 1.1528,0.2158 2.095,0.1111 -0.0204,-0.3256 -0.9026,-0.5426 -1.1464,-0.5898 m -24.2807,5.1732 c -1.1567,3.4893 -0.9345,9.0303 0.7392,12.3446 1.2551,2.4845 4.3741,3.1139 6.6862,4.6677 1.1222,0.7533 2.2266,1.6636 3.2812,2.5126 0.9907,0.7979 3.096,3.1356 4.0663,3.5812 0.6065,0.2796 1.4274,0.0625 2.0811,0.1174 -0.9716,-1.5512 -2.127,-2.99 -2.8228,-4.7059 -0.6256,-1.5423 -2.4054,-6.6275 0.8017,-5.9049 1.8743,0.4226 1.9777,3.7957 2.6748,5.4414 0.7226,1.7083 1.8486,2.9492 2.8253,4.4749 0.4482,0.0409 0.1775,-0.4596 0.1149,-0.6933 -0.3102,-1.149 -2.879,-6.8521 0.406,-6.2201 2.0556,0.3945 2.0415,4.037 2.7501,5.6112 0.4813,1.0724 1.3405,1.8984 2.1742,2.6926 0.5261,0.097 0.3179,-0.2286 0.3448,-0.5733 0.1161,-1.5372 -1.1951,-5.9495 1.5627,-4.8094 1.3661,0.5656 1.4758,3.3859 1.9738,4.7456 1.5448,4.2285 9.4234,8.8757 13.6621,9.9737 3.1471,0.8158 7.585,1.3022 10.1461,-0.9895 -6.0887,-1.6125 -10.75,-5.7018 -14.9504,-10.1958 -5.8652,-6.2751 -11.1725,-12.7506 -18.7269,-17.1911 -5.6929,-3.3462 -11.8683,-4.8323 -17.7081,-7.8058 -0.8732,-0.1264 -1.8244,2.1487 -2.0823,2.9262 m -0.7239,23.5389 c 1.2895,2.1972 7.5263,5.2716 10.0376,5.4886 1.5065,0.1315 4.6243,0.1762 4.7264,-1.8308 -3.4548,-1.6163 -9.3916,-9.2511 -13.3034,-9.0456 -2.1219,0.1111 -2.3594,3.857 -1.4606,5.3878 m 60.5024,8.4314 c -0.4443,0.2362 -1.1401,0.2682 -1.5116,0.5146 -0.5286,0.3511 -1.8283,2.1691 -2.593,2.7972 -7.0615,5.7976 -18.6746,0.9333 -24.8973,-4.0803 -0.7558,-0.609 -2.1896,-2.6697 -2.5036,-2.8254 -0.5018,-0.2503 -5.6776,-2.1066 -5.9955,-2.136 -0.5209,-0.0485 -1.0393,0.2311 -1.5908,0.2401 -1.0444,0.0178 -2.0951,-0.0345 -3.1369,-0.008 1.1963,2.8356 -1.5665,4.9447 -3.631,6.3555 0.006,0.0766 -1.1248,0.3319 -1.6993,0.3422 -2.4909,0.0459 -4.9728,-0.392 -7.3411,-1.1453 -0.6984,-0.2221 -1.3878,-0.4723 -2.0658,-0.7468 -2.0593,-0.835 -3.9169,-2.1296 -5.375,-3.8059 -0.1813,-0.2081 -0.3855,-0.4622 -0.6141,-0.7852 -1.0137,-1.4261 -2.1819,-4.6511 -2.1908,-6.3836 -0.0102,-1.7312 1.6636,-3.9974 2.7539,-5.2856 -0.3741,-1.2972 -0.9474,-2.5267 -1.2742,-3.8404 -0.9626,-3.8825 -1.1171,-8.7698 0.1762,-12.5718 1.195,-3.5149 4.4098,-5.7976 3.6501,-9.9087 -8.8476,0.4162 -17.6851,0.4277 -26.5442,0.452 -6.3198,0.0179 -12.9013,0.12 -19.2261,-0.0332 -0.3652,-0.009 -0.7393,-0.1864 -1.1478,-0.1966 -9.5613,-0.2426 -22.2813,0.001 -31.5056,-1.8627 -3.2556,-0.6576 -4.8196,-1.9675 -0.6473,-3.1574 6.233,-1.7772 16.6548,-2.0568 23.3282,-2.3951 17.8958,-0.9039 35.9039,-0.8184 53.7614,-0.2119 7.7394,0.263 15.7049,0.3409 23.4137,1.1503 1.7134,0.18 8.2438,0.9307 9.0456,2.3109 0.1187,0.2042 0.1813,0.4506 0.0791,0.6715 -0.729,1.2614 -9.246,1.8627 -10.9759,1.8844 l -2.2011,0.4584 c 5.5397,1.1388 10.7781,3.9374 15.6807,6.6836 8.7123,4.8796 25.4182,15.539 29.6288,24.5973 2.0849,4.4851 1.9763,10.3529 -2.8497,12.9216" /><path
           id="path154"
           style="fill:#2b2b2a;fill-opacity:1;fill-rule:nonzero;stroke:none"
           d="m 336.3209,480.441 c 0.9946,7.6896 4.9537,12.0356 8.4545,18.4243 2.5662,4.6817 4.4123,9.952 7.0232,14.529 4.351,7.6259 11.0462,11.1688 17.2651,2.8918 -6.9939,-3.8238 -10.6313,-12.411 -6.1168,-19.5619 0.7239,-1.149 1.7797,-1.9814 2.4181,-2.9122 0.1341,-0.194 0.3179,-0.24 0.226,-0.5796 -0.7763,-0.1123 -1.3304,-1.1784 -2.03,-1.352 -0.9282,-0.2311 -2.3517,1.135 -2.9543,1.8091 -0.8886,0.9958 -1.9994,3.8927 -3.2442,3.8454 -0.5962,-0.0229 -1.5997,-0.8439 -1.6942,-1.4605 -0.24,-1.5653 3.405,-6.2151 4.8247,-7.1318 l -1.4018,-1.1848 c -1.4746,0.4928 -4.3932,3.5557 -5.6648,3.6374 -0.8988,0.0575 -1.864,-0.6396 -2.1691,-1.4861 0.0817,-0.9397 4.8758,-4.3153 5.9903,-4.7954 l -1.0788,-1.8269 c -0.655,-0.2132 -2.1832,0.9269 -2.7386,1.3724 -0.8796,0.7061 -2.9211,3.271 -3.6003,3.5812 -1.0533,0.4814 -2.7118,-0.1583 -2.7973,-1.3827 -0.1009,-1.4209 1.3444,-1.804 2.2279,-2.6606 1.4542,-1.4095 2.6696,-3.0246 4.157,-4.3983 -0.008,-0.6907 -0.1507,-1.5385 -0.383,-2.4654 0.157,-0.0868 0.3191,-0.1877 0.4634,-0.2464 0.7086,-1.7963 -0.0396,-2.9543 -1.4427,-2.7385 -1.9023,-4.766 -5.4937,-10.1474 -8.8196,-10.5547 -6.893,-0.8439 -7.4969,12.1442 -6.9147,16.6472 m -5.029,7.5773 c 1.6713,4.8732 4.6524,8.2846 7.0756,12.6216 3.3884,6.0657 5.1222,12.9894 9.4196,18.6197 2.1615,2.8318 4.8988,5.5563 8.766,4.0906 -3.871,-2.999 -6.6096,-6.8304 -8.9255,-11.1151 -1.9828,-3.668 -3.4051,-7.645 -5.3597,-11.3245 -1.6342,-3.0769 -3.9068,-5.8104 -5.4529,-8.9153 -3.4063,-6.842 -4.5374,-14.6478 -3.0947,-22.1805 l 1.6316,-5.089 c -6.6849,5.6138 -6.7155,15.553 -4.06,23.2925 m 41.3785,25.4795 c 1.4861,-0.0754 3.4395,-0.3384 4.6728,-1.2448 0.6945,-0.5107 1.0226,-1.338 0.5898,-2.1411 -0.3498,-0.6473 -0.9307,-0.8937 -1.6252,-0.9997 -0.489,-0.074 -0.9806,-0.1072 -1.4747,-0.1289 -1.126,-0.4826 -2.2265,-1.0393 -2.8892,-2.0466 -0.1991,-0.3013 -0.3728,-0.6281 -0.5298,-0.9665 -0.2656,-0.7622 -0.4328,-1.9917 -0.5311,-2.9977 -0.1022,-1.0444 0.3026,-2.0734 1.0852,-2.7743 0.309,-0.2783 0.6218,-0.5528 0.8618,-0.7507 0.7813,0.0178 1.5997,0.0319 2.2764,-0.4124 0.5975,-0.3932 1.0775,-1.204 0.8694,-1.9304 -0.2362,-0.8248 -1.0712,-1.1644 -1.9317,-1.264 -1.5027,-0.5745 -4.6332,-0.6281 -5.3749,-0.3472 -3.7779,1.4325 -5.7146,4.4008 -4.8937,10.7602 0.2783,2.1576 1.6367,4.1506 3.3641,5.5333 1.5576,1.246 3.5391,1.8116 5.5308,1.7108 m -2.9097,-31.858 0.0103,-0.4724 -0.2413,-0.4519 c -0.6192,-0.5733 -2.9365,1.7899 -3.3438,2.3325 -0.2834,0.3779 -2.2176,3.5889 -2.2112,3.8097 0.0127,0.4163 0.4583,0.2094 0.6383,0.1852 2.5292,-0.3256 5.0418,-2.8114 5.1477,-5.4031 m -16.1224,-13.4196 c 2.2866,3.6259 1.9419,6.1168 3.3374,9.6392 0.9026,2.279 2.9428,4.3677 4.0995,6.5624 l 3.1203,-4.06 c 1.887,-1.8385 5.0929,-4.1149 7.3131,-1.5091 3.3488,3.9298 -0.6243,9.2754 -4.2911,11.2466 0.5082,0.2515 1.1925,1.5806 1.5397,1.7006 0.8733,0.3001 1.9279,-0.1864 2.7182,-0.1698 0.3613,0.009 0.7788,0.0805 1.2295,0.1979 4.1046,1.0737 7.0449,4.6805 7.6386,8.8809 0.3523,2.4883 0.6779,5.6188 0.7686,9.0825 -0.5541,0.5414 0.2298,3.6604 -1.8436,5.3406 -1.873,1.518 -4.4673,1.2524 -6.7232,1.6188 -1.4338,2.5752 -3.4331,5.5231 -6.2598,6.7169 -1.5997,0.6753 -3.3003,0.6562 -4.8579,1.1669 -3.991,1.3073 -6.4091,3.9591 -11.2926,2.0095 -6.321,-2.5228 -11.5645,-17.5663 -14.7805,-23.4558 -2.9301,-5.3674 -6.3683,-9.6508 -8.1149,-15.7535 -2.7092,-9.4732 -1.3878,-24.5806 10.0784,-27.2311 7.9221,-1.8308 12.2706,1.5997 16.3203,8.0165" /><path
           id="path156"
           style="fill:#2b2b2a;fill-opacity:1;fill-rule:nonzero;stroke:none"
           d="m 353.4983,477.0865 c -0.1443,0.06 -0.3077,0.1596 -0.4647,0.2464 -0.2337,-0.9282 -0.5605,-1.9368 -0.9793,-2.985 1.4031,-0.2157 2.1513,0.9423 1.444,2.7386" /><path
           id="path158"
           style="fill:#1d1d1d;fill-opacity:1;fill-rule:nonzero;stroke:none"
           d="m 187.919,93.49944 c -0.3422,-2.17298 -1.3176,-3.92591 -2.925,-5.26136 -1.6086,-1.33417 -3.585,-2.00062 -5.9291,-2.00062 -2.8917,0 -5.1668,0.86306 -6.8253,2.59174 -1.661,1.7274 -2.4909,4.08039 -2.4909,7.05643 0,2.94283 0.8516,5.27927 2.5547,7.00667 1.7019,1.7274 3.9987,2.593 6.8905,2.593 2.2917,0 4.217,-0.6729 5.7746,-2.0147 1.5563,-1.3444 2.4972,-3.0935 2.8228,-5.24858 h -4.3115 c -0.24,1.21416 -0.7622,2.12448 -1.5665,2.73348 -0.8043,0.6064 -1.7619,0.9103 -2.8739,0.9103 -1.3508,0 -2.4641,-0.535 -3.3361,-1.6036 -0.872,-1.06987 -1.3086,-2.52789 -1.3086,-4.37657 0,-1.89848 0.4366,-3.3782 1.3086,-4.43915 0.872,-1.06096 2.0019,-1.5908 3.3872,-1.5908 1.0954,0 2.0619,0.28216 2.9007,0.84647 0.8375,0.56431 1.3763,1.49759 1.6163,2.79729 z" /><path
           id="path160"
           style="fill:#1d1d1d;fill-opacity:1;fill-rule:nonzero;stroke:none"
           d="m 192.924,86.5712 h -4.2604 v 13.8064 h 4.2604 z m -0.0256,15.2172 h -4.2348 v 3.3871 h 4.2348 z" /><path
           id="path162"
           style="fill:#1d1d1d;fill-opacity:1;fill-rule:nonzero;stroke:none"
           d="m 198.2868,90.60001 c 0,-0.44557 0.1839,-0.80433 0.5516,-1.07755 0.3677,-0.27449 0.8337,-0.4111 1.398,-0.4111 1.9853,0 2.9773,1.08521 2.9773,3.25946 v 0.33322 c -1.6763,-0.15448 -2.9173,-0.37152 -3.7216,-0.65495 -0.8044,-0.28216 -1.2053,-0.76603 -1.2053,-1.44908 m 4.8247,5.13241 c 0,0.78646 -0.1927,1.35077 -0.5783,1.69421 -0.3843,0.34216 -0.9703,0.51196 -1.7568,0.51196 -0.7022,0 -1.2703,-0.17491 -1.7069,-0.52601 -0.4367,-0.3511 -0.6895,-0.85029 -0.7571,-1.50014 h -3.9515 c 0.1022,1.35077 0.7648,2.5062 1.9879,3.46374 1.2231,0.95882 2.819,1.43762 4.7864,1.43762 2.053,0 3.6016,-0.4584 4.6447,-1.37251 1.0443,-0.91541 1.5487,-2.3913 1.5142,-4.42766 l -0.0511,-3.00285 c -0.0345,-2.51385 0.069,-4.32807 0.3077,-5.44009 h -4.157 l -0.0511,1.66739 c -0.9409,-1.33417 -2.4896,-2.00062 -4.6447,-2.00062 -1.352,0 -2.4857,0.3677 -3.4011,1.10309 -0.9155,0.73539 -1.3725,1.71974 -1.3725,2.95049 0,0.82221 0.2183,1.53207 0.6537,2.13085 0.4366,0.59878 1.0826,1.08138 1.938,1.44907 0.8554,0.36898 1.813,0.65496 2.8739,0.86051 1.061,0.20555 2.3007,0.36004 3.7216,0.46217 z" /><path
           id="path164"
           style="fill:#1d1d1d;fill-opacity:1;fill-rule:nonzero;stroke:none"
           d="m 213.0168,96.55309 c -0.5477,-0.63197 -0.8209,-1.64186 -0.8209,-3.0271 0,-1.38651 0.2694,-2.40023 0.8082,-3.04114 0.5388,-0.64219 1.2703,-0.96265 2.1947,-0.96265 0.923,0 1.6546,0.32046 2.1934,0.96265 0.5387,0.64091 0.8081,1.65463 0.8081,3.04114 0,1.38524 -0.2732,2.39513 -0.8209,3.0271 -0.5477,0.63326 -1.2742,0.94988 -2.1806,0.94988 -0.9078,0 -1.6342,-0.31662 -2.182,-0.94988 m 7.391,2.3747 c 1.4031,-1.24097 2.104,-3.04114 2.104,-5.4018 0,-2.36192 -0.7009,-4.16593 -2.104,-5.41584 -1.4031,-1.24863 -3.1395,-1.87294 -5.209,-1.87294 -2.0709,0 -3.8072,0.62431 -5.2103,1.87294 -1.4031,1.24991 -2.1041,3.05392 -2.1041,5.41584 0,2.36066 0.701,4.16083 2.1041,5.4018 1.4031,1.23971 3.1394,1.86021 5.2103,1.86021 2.0695,0 3.8059,-0.6205 5.209,-1.86021" /><path
           id="path166"
           style="fill:#1d1d1d;fill-opacity:1;fill-rule:nonzero;stroke:none"
           d="m 222.6921,91.13879 h 4.7481 v -4.82472 l -2.6186,-3.79824 h -2.5151 l 2.233,4.05486 h -1.8474 z" /><path
           id="path168"
           style="fill:#1d1d1d;fill-opacity:1;fill-rule:nonzero;stroke:none"
           d="m 250.0233,99.35128 h -4.3115 c -0.2055,0.70092 -0.6588,1.29582 -1.3597,1.78362 -0.7022,0.4877 -1.6086,0.7315 -2.7207,0.7315 -1.4031,0 -2.5534,-0.5145 -3.4522,-1.541 -0.8976,-1.02647 -1.347,-2.48831 -1.347,-4.38679 0,-1.93423 0.4405,-3.43054 1.3214,-4.49277 0.881,-1.05968 2.0658,-1.58952 3.5544,-1.58952 1.1631,0 2.1436,0.24769 2.939,0.74305 0.7954,0.49665 1.1925,1.29204 1.1925,2.38747 v 0.35875 h -4.4902 v 3.59269 h 8.8796 V 86.57132 h -3.3629 l -0.1277,2.05297 c -1.1797,-1.59207 -3.0794,-2.38747 -5.6967,-2.38747 -2.7386,0 -4.8975,0.87328 -6.4806,2.61728 -1.5819,1.74527 -2.3735,4.10593 -2.3735,7.08451 0,2.90709 0.872,5.22559 2.6173,6.95429 1.7453,1.7274 4.037,2.5917 6.8777,2.5917 2.1206,0 3.9348,-0.5311 5.4414,-1.5908 1.5052,-1.0622 2.4717,-2.5764 2.8994,-4.54252" /><path
           id="path170"
           style="fill:#1d1d1d;fill-opacity:1;fill-rule:nonzero;stroke:none"
           d="m 260.4422,96.32265 c -0.4622,0.05107 -0.8464,0.0766 -1.1541,0.0766 -1.0444,0 -1.8232,-0.22215 -2.3364,-0.66645 -0.5133,-0.44557 -0.7699,-1.1899 -0.7699,-2.23298 v -6.92875 h -4.2336 v 13.80513 h 4.0804 v -2.61597 c 0.683,1.744 1.9406,2.65177 3.7727,2.71937 0.2898,0 0.503,-0.009 0.6409,-0.0255 z" /><path
           id="path172"
           style="fill:#1d1d1d;fill-opacity:1;fill-rule:nonzero;stroke:none"
           d="m 264.4458,90.60001 c 0,-0.44557 0.1838,-0.80433 0.5515,-1.07755 0.3677,-0.27449 0.8337,-0.4111 1.398,-0.4111 1.9853,0 2.9773,1.08521 2.9773,3.25946 v 0.33322 c -1.6763,-0.15448 -2.9173,-0.37152 -3.7203,-0.65495 -0.8057,-0.28216 -1.2065,-0.76603 -1.2065,-1.44908 m 4.8247,5.13241 c 0,0.78646 -0.1928,1.35077 -0.5784,1.69421 -0.3843,0.34216 -0.9703,0.51196 -1.7567,0.51196 -0.7022,0 -1.2704,-0.17491 -1.707,-0.52601 -0.4367,-0.3511 -0.6894,-0.85029 -0.7571,-1.50014 h -3.9515 c 0.1022,1.35077 0.7648,2.5062 1.9879,3.46374 1.2231,0.95882 2.819,1.43762 4.7864,1.43762 2.053,0 3.6016,-0.4584 4.6447,-1.37251 1.0444,-0.91541 1.5487,-2.3913 1.5142,-4.42766 l -0.0511,-3.00285 c -0.0344,-2.51385 0.069,-4.32807 0.3077,-5.44009 h -4.157 l -0.051,1.66739 c -0.941,-1.33417 -2.4896,-2.00062 -4.6447,-2.00062 -1.3521,0 -2.4858,0.3677 -3.4012,1.10309 -0.9154,0.73539 -1.3725,1.71974 -1.3725,2.95049 0,0.82221 0.2183,1.53207 0.6537,2.13085 0.4366,0.59878 1.0826,1.08138 1.938,1.44907 0.8554,0.36898 1.813,0.65496 2.8739,0.86051 1.061,0.20555 2.3007,0.36004 3.7217,0.46217 z" /><path
           id="path174"
           style="fill:#1d1d1d;fill-opacity:1;fill-rule:nonzero;stroke:none"
           d="m 273.9148,89.93203 7.2364,7.08324 h -6.7487 v 3.36163 h 12.1901 v -3.36163 l -7.2364,-7.08324 h 7.5441 v -3.3616 h -12.9855 z" /><path
           id="path176"
           style="fill:#1d1d1d;fill-opacity:1;fill-rule:nonzero;stroke:none"
           d="m 291.9041,86.5712 h -4.2604 v 13.8064 h 4.2604 z m -0.0255,15.2172 h -4.2349 v 3.3871 h 4.2349 z" /><path
           id="path178"
           style="fill:#1d1d1d;fill-opacity:1;fill-rule:nonzero;stroke:none"
           d="m 297.1392,94.96256 h 5.9801 c -0.0178,0.82093 -0.2949,1.45801 -0.8336,1.91125 -0.5401,0.45323 -1.2283,0.68049 -2.0671,0.68049 -0.8043,0 -1.4924,-0.21704 -2.0657,-0.65368 -0.5732,-0.43664 -0.9116,-1.08266 -1.0137,-1.93806 m 10.1371,-4.05486 c -0.5821,-1.53972 -1.5014,-2.70281 -2.7589,-3.49055 -1.2576,-0.78646 -2.6301,-1.17969 -4.1187,-1.17969 -2.2764,0 -4.106,0.65368 -5.4925,1.96232 -1.3852,1.30864 -2.0785,3.09349 -2.0785,5.35073 0,2.15638 0.7137,3.90037 2.1436,5.23582 1.4274,1.33417 3.1778,2.00057 5.2473,2.00057 2.2752,0 4.0638,-0.7826 5.3635,-2.34784 1.2997,-1.56525 1.8819,-3.57992 1.7453,-6.04398 h -10.2393 c 0.0677,-0.92307 0.406,-1.63293 1.0137,-2.12829 0.6078,-0.49665 1.3304,-0.74433 2.1692,-0.74433 1.5218,0 2.5573,0.4609 3.105,1.38524 z" /><path
           id="path180"
           style="fill:#1d1d1d;fill-opacity:1;fill-rule:nonzero;stroke:none"
           d="m 316.0014,94.96256 h 5.9802 c -0.0179,0.82093 -0.2949,1.45801 -0.8337,1.91125 -0.5401,0.45323 -1.2282,0.68049 -2.067,0.68049 -0.8043,0 -1.4925,-0.21704 -2.0657,-0.65368 -0.5733,-0.43664 -0.9116,-1.08266 -1.0138,-1.93806 m 10.1372,-4.05486 c -0.5822,-1.53972 -1.5014,-2.70281 -2.759,-3.49055 -1.2576,-0.78646 -2.63,-1.17969 -4.1187,-1.17969 -2.2764,0 -4.1059,0.65368 -5.4924,1.96232 -1.3853,1.30864 -2.0785,3.09349 -2.0785,5.35073 0,2.15638 0.7136,3.90037 2.1436,5.23582 1.4273,1.33417 3.1777,2.00057 5.2473,2.00057 2.2751,0 4.0638,-0.7826 5.3635,-2.34784 1.2997,-1.56525 1.8819,-3.57992 1.7453,-6.04398 h -10.2393 c 0.0676,-0.92307 0.406,-1.63293 1.0137,-2.12829 0.6077,-0.49665 1.3303,-0.74433 2.1691,-0.74433 1.5219,0 2.5573,0.4609 3.105,1.38524 z" /><path
           id="path182"
           style="fill:#1d1d1d;fill-opacity:1;fill-rule:nonzero;stroke:none"
           d="m 335.9419,90.2664 h 4.1059 c 0.9243,0 1.6253,0.18257 2.104,0.55155 0.4788,0.36769 0.7188,0.88604 0.7188,1.55249 0,0.66772 -0.24,1.18479 -0.7188,1.55249 -0.4787,0.36769 -1.1797,0.55154 -2.104,0.55154 h -4.1059 z m 0,7.46753 h 3.8748 c 0.7533,0 1.338,0.17108 1.7581,0.51324 0.4187,0.34216 0.6281,0.80434 0.6281,1.38524 0,0.58219 -0.2094,1.03539 -0.6281,1.36099 -0.4201,0.3243 -1.0048,0.4877 -1.7581,0.4877 h -3.8748 z m -4.3881,7.44197 h 8.1097 c 0.8541,0 1.6253,-0.0421 2.3096,-0.1276 0.683,-0.0856 1.3342,-0.2401 1.9495,-0.4622 0.6167,-0.2222 1.1248,-0.5094 1.527,-0.8593 0.4022,-0.351 0.7226,-0.8132 0.9626,-1.3865 0.2401,-0.5732 0.3588,-1.2358 0.3588,-1.9891 0,-1.67633 -0.7354,-2.96837 -2.2062,-3.87484 1.9675,-0.70091 2.9518,-2.09637 2.9518,-4.18253 0,-3.81611 -2.5075,-5.72353 -7.5199,-5.72353 h -8.4429 z" /><path
           id="path184"
           style="fill:#1d1d1d;fill-opacity:1;fill-rule:nonzero;stroke:none"
           d="m 356.9595,88.49572 c -0.4622,-0.73666 -1.001,-1.29587 -1.6164,-1.68144 -0.6166,-0.38429 -1.4286,-0.57707 -2.4385,-0.57707 -1.7619,0 -2.999,0.47877 -3.7076,1.43758 -0.7111,0.95627 -1.066,2.42066 -1.066,4.38681 v 8.3153 h 4.2348 v -7.26201 c 0,-0.49664 0.009,-0.88093 0.0256,-1.15543 0.0166,-0.27322 0.06,-0.58984 0.1289,-0.9486 0.0677,-0.36004 0.1749,-0.62942 0.3205,-0.80944 0.1455,-0.17874 0.3549,-0.33833 0.6281,-0.47366 0.2745,-0.13789 0.6077,-0.20556 1.001,-0.20556 0.8898,0 1.5269,0.27322 1.9125,0.82093 0.3843,0.54644 0.5771,1.46312 0.5771,2.74623 v 7.28754 h 4.2348 V 86.57043 h -4.2348 z" /><path
           id="path186"
           style="fill:#1d1d1d;fill-opacity:1;fill-rule:nonzero;stroke:none"
           d="m 367.2757,96.55309 c -0.5477,-0.63197 -0.8209,-1.64186 -0.8209,-3.0271 0,-1.38651 0.2694,-2.40023 0.8082,-3.04114 0.5387,-0.64219 1.2703,-0.96265 2.1947,-0.96265 0.923,0 1.6546,0.32046 2.1934,0.96265 0.5387,0.64091 0.8081,1.65463 0.8081,3.04114 0,1.38524 -0.2732,2.39513 -0.8209,3.0271 -0.5477,0.63326 -1.2742,0.94988 -2.1806,0.94988 -0.9078,0 -1.6342,-0.31662 -2.182,-0.94988 m 7.391,2.3747 c 1.4031,-1.24097 2.104,-3.04114 2.104,-5.4018 0,-2.36192 -0.7009,-4.16593 -2.104,-5.41584 -1.4031,-1.24863 -3.1395,-1.87294 -5.209,-1.87294 -2.0709,0 -3.8072,0.62431 -5.2103,1.87294 -1.4031,1.24991 -2.1041,3.05392 -2.1041,5.41584 0,2.36066 0.701,4.16083 2.1041,5.4018 1.4031,1.23971 3.1394,1.86021 5.2103,1.86021 2.0695,0 3.8059,-0.6205 5.209,-1.86021" /><path
           id="path188"
           style="fill:#1d1d1d;fill-opacity:1;fill-rule:nonzero;stroke:none"
           d="m 381.9295,98.55512 c 0.3422,0.5809 0.8937,1.08265 1.6547,1.50138 0.7609,0.4188 1.638,0.6295 2.6313,0.6295 1.7095,0 2.9122,-0.4801 3.6054,-1.43762 0.6933,-0.95882 1.0393,-2.42194 1.0393,-4.38936 v -8.28846 h -4.2349 v 7.23772 c 0,0.47749 -0.008,0.85923 -0.0255,1.14138 -0.0166,0.28216 -0.0639,0.60261 -0.1405,0.96265 -0.0778,0.35876 -0.1889,0.62815 -0.3345,0.80816 -0.1455,0.18002 -0.3549,0.33706 -0.6281,0.47494 -0.2745,0.13661 -0.6077,0.20555 -1.001,0.20555 -0.8898,0 -1.5397,-0.30386 -1.9508,-0.91157 -0.4098,-0.60772 -0.6154,-1.55249 -0.6154,-2.8356 v -7.08323 h -4.2348 V 100.377 h 4.2348 z" /><path
           id="path190"
           style="fill:#1d1d1d;fill-opacity:1;fill-rule:nonzero;stroke:none"
           d="m 395.9671,90.60001 c 0,-0.44557 0.1838,-0.80433 0.5515,-1.07755 0.3677,-0.27449 0.8337,-0.4111 1.398,-0.4111 1.9853,0 2.9773,1.08521 2.9773,3.25946 v 0.33322 c -1.6763,-0.15448 -2.9173,-0.37152 -3.7216,-0.65495 -0.8044,-0.28216 -1.2052,-0.76603 -1.2052,-1.44908 m 4.8247,5.13241 c 0,0.78646 -0.1928,1.35077 -0.5771,1.69421 -0.3856,0.34216 -0.9716,0.51196 -1.758,0.51196 -0.7022,0 -1.2704,-0.17491 -1.707,-0.52601 -0.4367,-0.3511 -0.6894,-0.85029 -0.7571,-1.50014 h -3.9515 c 0.1022,1.35077 0.7648,2.5062 1.9879,3.46374 1.2231,0.95882 2.819,1.43762 4.7864,1.43762 2.053,0 3.6016,-0.4584 4.6447,-1.37251 1.0444,-0.91541 1.5487,-2.3913 1.5142,-4.42766 l -0.0511,-3.00285 c -0.0344,-2.51385 0.069,-4.32807 0.3077,-5.44009 h -4.157 l -0.051,1.66739 c -0.941,-1.33417 -2.4896,-2.00062 -4.6447,-2.00062 -1.3521,0 -2.4858,0.3677 -3.4012,1.10309 -0.9154,0.73539 -1.3725,1.71974 -1.3725,2.95049 0,0.82221 0.2183,1.53207 0.6537,2.13085 0.4366,0.59878 1.0826,1.08138 1.938,1.44907 0.8554,0.36898 1.813,0.65496 2.8739,0.86051 1.061,0.20555 2.3007,0.36004 3.7217,0.46217 z" /><path
           id="path192"
           style="fill:#1d1d1d;fill-opacity:1;fill-rule:nonzero;stroke:none"
           d="m 417.0102,101.4806 h -1.8219 V 90.26589 h 1.8219 c 0.7188,0 1.352,0.03447 1.8985,0.10214 0.5477,0.06894 1.1005,0.22343 1.6559,0.46217 0.5553,0.24003 1.0137,0.55665 1.3724,0.94988 0.3601,0.39451 0.655,0.93711 0.8861,1.62909 0.2311,0.69326 0.346,1.5193 0.346,2.47684 0,0.94094 -0.1149,1.75804 -0.346,2.4513 -0.2311,0.69326 -0.526,1.24097 -0.8861,1.64186 -0.3587,0.40213 -0.8171,0.71883 -1.3724,0.94983 -0.5554,0.2311 -1.1082,0.3805 -1.6559,0.4495 -0.5465,0.0689 -1.1797,0.1021 -1.8985,0.1021 m -0.0766,3.6961 c 7.2543,0 10.8815,-3.0973 10.8815,-9.29069 0,-6.20996 -3.6272,-9.31494 -10.8815,-9.31494 h -6.1334 v 18.60563 z" /><path
           id="path194"
           style="fill:#1d1d1d;fill-opacity:1;fill-rule:nonzero;stroke:none"
           d="m 433.1528,96.55309 c -0.549,-0.63197 -0.821,-1.64186 -0.821,-3.0271 0,-1.38651 0.2681,-2.40023 0.8069,-3.04114 0.5388,-0.64219 1.2704,-0.96265 2.196,-0.96265 0.923,0 1.6546,0.32046 2.1934,0.96265 0.5388,0.64091 0.8081,1.65463 0.8081,3.04114 0,1.38524 -0.2732,2.39513 -0.8209,3.0271 -0.549,0.63326 -1.2754,0.94988 -2.1806,0.94988 -0.9078,0 -1.6355,-0.31662 -2.1819,-0.94988 m 7.3909,2.3747 c 1.4031,-1.24097 2.104,-3.04114 2.104,-5.4018 0,-2.36192 -0.7009,-4.16593 -2.104,-5.41584 -1.4031,-1.24863 -3.1407,-1.87294 -5.209,-1.87294 -2.0709,0 -3.8085,0.62431 -5.2103,1.87294 -1.4031,1.24991 -2.104,3.05392 -2.104,5.41584 0,2.36066 0.7009,4.16083 2.104,5.4018 1.4018,1.23971 3.1394,1.86021 5.2103,1.86021 2.0683,0 3.8059,-0.6205 5.209,-1.86021" /><path
           id="path196"
           style="fill:#1d1d1d;fill-opacity:1;fill-rule:nonzero;stroke:none"
           d="m 447.8062,86.57081 h -4.2349 v 13.80649 h 4.2349 v -1.82193 c 0.3421,0.58091 0.8847,1.08266 1.6291,1.50143 0.7443,0.4188 1.5946,0.6281 2.5534,0.6281 2.0696,0 3.4382,-0.77876 4.1059,-2.33508 1.061,1.55632 2.6339,2.33508 4.7213,2.33508 1.7121,0 2.9135,-0.4787 3.6068,-1.43627 0.6932,-0.95881 1.0392,-2.42193 1.0392,-4.38936 v -8.28846 h -4.2349 v 7.23645 c 0,0.47877 -0.009,0.86433 -0.0255,1.15543 -0.0166,0.28981 -0.0638,0.60771 -0.1404,0.94987 -0.0779,0.34217 -0.189,0.61028 -0.3345,0.80817 -0.1456,0.19534 -0.355,0.35876 -0.6282,0.48643 -0.2732,0.12895 -0.6077,0.19278 -1.0009,0.19278 -1.6432,0 -2.4641,-1.21416 -2.4641,-3.64375 v -7.18538 h -4.2336 v 7.23645 c 0,0.47877 -0.009,0.86433 -0.0255,1.15543 -0.0179,0.28981 -0.0651,0.60771 -0.1417,0.94987 -0.0766,0.34217 -0.1877,0.61028 -0.3333,0.80817 -0.1455,0.19534 -0.3549,0.35876 -0.6294,0.48643 -0.2732,0.12895 -0.6064,0.19278 -0.9997,0.19278 -1.6431,0 -2.464,-1.21416 -2.464,-3.64375 z" /><path
           id="path198"
           style="fill:#1d1d1d;fill-opacity:1;fill-rule:nonzero;stroke:none"
           d="m 470.4402,94.96256 h 5.9789 c -0.0166,0.82093 -0.2949,1.45801 -0.8337,1.91125 -0.5388,0.45323 -1.2282,0.68049 -2.0657,0.68049 -0.8044,0 -1.4925,-0.21704 -2.067,-0.65368 -0.5733,-0.43664 -0.9103,-1.08266 -1.0125,-1.93806 m 10.1359,-4.05486 c -0.5809,-1.53972 -1.5001,-2.70281 -2.7577,-3.49055 -1.2576,-0.78646 -2.6313,-1.17969 -4.1187,-1.17969 -2.2764,0 -4.1072,0.65368 -5.4925,1.96232 -1.3852,1.30864 -2.0784,3.09349 -2.0784,5.35073 0,2.15638 0.7136,3.90037 2.1423,5.23582 1.4286,1.33417 3.1777,2.00057 5.2486,2.00057 2.2751,0 4.0625,-0.7826 5.3635,-2.34784 1.2997,-1.56525 1.8819,-3.57992 1.744,-6.04398 h -10.2393 c 0.0689,-0.92307 0.4073,-1.63293 1.0137,-2.12829 0.6077,-0.49665 1.3303,-0.74433 2.1691,-0.74433 1.5219,0 2.5573,0.4609 3.105,1.38524 z" /><path
           id="path200"
           style="fill:#1d1d1d;fill-opacity:1;fill-rule:nonzero;stroke:none"
           d="m 485.8127,98.55512 c 0.3421,0.5809 0.8937,1.08265 1.6546,1.50138 0.7622,0.4188 1.638,0.6295 2.6313,0.6295 1.7108,0 2.9122,-0.4801 3.6055,-1.43762 0.6932,-0.95882 1.0392,-2.42194 1.0392,-4.38936 v -8.28846 h -4.2348 v 7.23772 c 0,0.47749 -0.008,0.85923 -0.0256,1.14138 -0.0178,0.28216 -0.0638,0.60261 -0.1404,0.96265 -0.0779,0.35876 -0.189,0.62815 -0.3345,0.80816 -0.1456,0.18002 -0.3549,0.33706 -0.6282,0.47494 -0.2745,0.13661 -0.6077,0.20555 -1.0009,0.20555 -0.8899,0 -1.5397,-0.30386 -1.9508,-0.91157 -0.4099,-0.60772 -0.6154,-1.55249 -0.6154,-2.8356 v -7.08323 h -4.2349 V 100.377 h 4.2349 z" /><path
           id="path202"
           style="fill:#1d1d1d;fill-opacity:1;fill-rule:nonzero;stroke:none"
           d="m 500.4906,86.5712 h -4.2591 v 13.8064 h 4.2591 z m -0.0242,15.2172 h -4.2349 v 3.3871 h 4.2349 z" /><path
           id="path204"
           style="fill:#1d1d1d;fill-opacity:1;fill-rule:nonzero;stroke:none"
           d="m 515.3238,95.32221 h -3.9515 c -0.3255,1.45418 -1.2065,2.18191 -2.644,2.18191 -0.8554,0 -1.5704,-0.32173 -2.1424,-0.96392 -0.5732,-0.64091 -0.8592,-1.64569 -0.8592,-3.01433 0,-1.38652 0.2898,-2.39896 0.872,-3.04115 0.5809,-0.64219 1.292,-0.96264 2.1296,-0.96264 1.5397,0 2.4806,0.70985 2.8228,2.12956 h 3.9514 c -0.3064,-1.2997 -0.8579,-2.37342 -1.6546,-3.21988 -0.7954,-0.84774 -1.638,-1.42482 -2.5266,-1.73251 -0.8899,-0.30769 -1.8398,-0.46217 -2.8497,-0.46217 -2.2419,0 -3.9769,0.65879 -5.209,1.97636 -1.232,1.3163 -1.8487,3.09604 -1.8487,5.33668 0,2.17298 0.6499,3.92208 1.9509,5.2486 1.2997,1.32518 3.0028,1.98908 5.1068,1.98908 1.0431,0 2.0058,-0.1583 2.888,-0.4749 0.8809,-0.31662 1.6967,-0.89753 2.45,-1.74527 0.7533,-0.84647 1.2576,-1.92912 1.5142,-3.24542" /><path
           id="path206"
           style="fill:#1d1d1d;fill-opacity:1;fill-rule:nonzero;stroke:none"
           d="m 519.8666,90.60001 c 0,-0.44557 0.1826,-0.80433 0.5515,-1.07755 0.3677,-0.27449 0.8337,-0.4111 1.3981,-0.4111 1.9853,0 2.9785,1.08521 2.9785,3.25946 v 0.33322 c -1.6776,-0.15448 -2.9185,-0.37152 -3.7216,-0.65495 -0.8043,-0.28216 -1.2065,-0.76603 -1.2065,-1.44908 m 4.8247,5.13241 c 0,0.78646 -0.1928,1.35077 -0.5771,1.69421 -0.3855,0.34216 -0.9715,0.51196 -1.7593,0.51196 -0.7009,0 -1.2703,-0.17491 -1.7057,-0.52601 -0.4366,-0.3511 -0.6894,-0.85029 -0.7571,-1.50014 h -3.9527 c 0.1034,1.35077 0.7661,2.5062 1.9891,3.46374 1.2231,0.95882 2.819,1.43762 4.7865,1.43762 2.0529,0 3.6016,-0.4584 4.6447,-1.37251 1.043,-0.91541 1.5486,-2.3913 1.5142,-4.42766 l -0.0511,-3.00285 c -0.0345,-2.51385 0.0677,-4.32807 0.3077,-5.44009 h -4.157 l -0.0511,1.66739 c -0.9422,-1.33417 -2.4896,-2.00062 -4.6447,-2.00062 -1.3533,0 -2.4858,0.3677 -3.4012,1.10309 -0.9154,0.73539 -1.3724,1.71974 -1.3724,2.95049 0,0.82221 0.2183,1.53207 0.6549,2.13085 0.4354,0.59878 1.0814,1.08138 1.9368,1.44907 0.8554,0.36898 1.8129,0.65496 2.8739,0.86051 1.0609,0.20555 2.3019,0.36004 3.7216,0.46217 z" /><path
           id="path208"
           style="fill:#1d1d1d;fill-opacity:1;fill-rule:nonzero;stroke:none"
           d="m 530.3109,91.1393 h 4.7737 v -4.5681 h -4.7737 z m 0.9754,1.3597 -1.2831,7.5965 v 5.0813 h 5.3891 v -5.0813 l -1.2831,-7.5965 z" /><path
           id="path210"
           style="fill:#ffffff;fill-opacity:1;fill-rule:nonzero;stroke:none"
           d="m 87.7415,88.38644 c 2.22405,-0.11619 5.59969,4.22593 7.56456,5.1439 -0.05745,1.14266 -1.83081,1.11585 -2.68749,1.0418 -1.42737,-0.12384 -4.9741,-1.87167 -5.70821,-3.12158 -0.51069,-0.87072 -0.37663,-3.00029 0.83114,-3.06412" /><path
           id="path212"
           style="fill:#4bbbc0;fill-opacity:1;fill-rule:nonzero;stroke:none"
           d="m 109.2271,90.61597 c 2.3888,2.55599 5.0393,4.8809 8.5017,5.79758 -1.4567,1.30353 -3.9795,1.02776 -5.7695,0.56303 -2.4104,-0.62431 -6.8917,-3.26712 -7.7701,-5.67118 -0.2821,-0.77369 -0.3447,-2.37725 -1.1222,-2.69899 -1.5678,-0.64857 -0.8222,1.86018 -0.8886,2.73474 -0.0153,0.19533 0.1034,0.38173 -0.1954,0.32556 -0.4749,-0.45068 -0.9639,-0.92179 -1.2371,-1.53079 -0.4034,-0.89625 -0.3945,-2.96709 -1.56398,-3.19179 -1.86784,-0.35876 -0.40727,2.8841 -0.23108,3.53778 0.03574,0.13278 0.18895,0.41749 -0.06512,0.39451 -0.55537,-0.86817 -1.19628,-1.57419 -1.60739,-2.5445 -0.39578,-0.93583 -0.45451,-2.85474 -1.52057,-3.09477 -1.82443,-0.4111 -0.81199,2.48067 -0.45579,3.35777 0.39579,0.97669 1.0533,1.79379 1.60484,2.67728 -0.37153,-0.03191 -0.8388,0.09065 -1.18352,-0.06766 -0.55154,-0.25279 -1.7491,-1.58313 -2.31214,-2.03637 -0.60005,-0.4826 -1.2282,-1.00095 -1.86656,-1.42865 -1.31502,-0.88349 -3.08838,-1.24224 -3.80207,-2.65557 -0.95115,-1.88444 -1.07882,-5.03538 -0.42004,-7.0194 0.14682,-0.44302 0.68688,-1.73634 1.18352,-1.66484 3.32075,1.69165 6.833,2.53684 10.07076,4.43915 4.29614,2.52535 7.31434,6.2074 10.65034,9.77711" /><path
           id="path214"
           style="fill:#4bbbc0;fill-opacity:1;fill-rule:nonzero;stroke:none"
           d="m 100.591,75.39455 c -0.1915,-0.09831 -0.3217,0.0051 -0.2566,-0.33067 0.272,-0.02937 0.5286,0.0077 0.7967,0.05873 0.1379,0.02681 0.6396,0.14937 0.6511,0.3345 -0.5349,0.06 -0.692,0.19278 -1.1912,-0.06256" /><path
           id="path216"
           style="fill:#4bbbc0;fill-opacity:1;fill-rule:nonzero;stroke:none"
           d="m 102.8379,76.97487 c 0.1188,-0.27705 1.1044,-0.23364 1.3866,-0.20172 0.2272,0.02553 0.7583,0.15065 0.8528,0.39706 -0.9014,-0.08554 -1.5321,0.5809 -2.2394,-0.19534" /><path
           id="path218"
           style="fill:#4bbbc0;fill-opacity:1;fill-rule:nonzero;stroke:none"
           d="m 49.69963,87.47473 c 1.89209,0.23236 3.93357,3.29138 5.01495,6.00186 -0.20683,0.03191 -0.43281,0.10341 -0.68305,0.25023 -0.38429,0.22598 -0.57452,0.57708 -0.89881,0.81327 -0.55282,0.40217 -2.6045,1.64569 -2.69898,2.18319 -0.12384,0.70475 0.60133,1.04946 1.1899,0.92435 0.95371,-0.20428 2.54961,-1.86401 3.64886,-2.47301 0.1315,0.52729 0.21321,1.00989 0.21704,1.40184 -0.84518,0.78135 -1.53716,1.70059 -2.3632,2.50109 -0.50303,0.48771 -1.32396,0.70603 -1.26778,1.51415 0.04979,0.6959 0.99201,1.0597 1.59079,0.7865 0.38684,-0.1775 1.54738,-1.63548 2.04785,-2.03765 0.31535,-0.25279 1.1848,-0.90136 1.5576,-0.78007 l 0.6141,1.03797 c -0.63453,0.27322 -3.36032,2.19345 -3.40756,2.72705 0.17363,0.4826 0.72262,0.8784 1.23331,0.8465 0.7239,-0.0473 2.38364,-1.7887 3.22244,-2.0696 l 0.79667,0.6741 c -0.80688,0.5209 -2.88028,3.1663 -2.74367,4.0562 0.05363,0.3511 0.62432,0.8171 0.96393,0.8298 0.7073,0.0281 1.33927,-1.6201 1.84485,-2.1857 0.34216,-0.3843 1.1516,-1.1605 1.68017,-1.029 0.39706,0.0983 0.71241,0.7047 1.15415,0.7685 0.05235,0.1928 -0.05235,0.2196 -0.12895,0.3294 -0.36259,0.5299 -0.96264,1.0035 -1.37502,1.6559 -2.56749,4.0677 -0.4992,8.9511 3.47905,11.1254 -3.53651,4.7072 -7.34496,2.6926 -9.81924,-1.6444 -1.48482,-2.6033 -2.53429,-5.5997 -3.99358,-8.263 -1.99168,-3.6335 -4.24253,-6.1052 -4.80812,-10.478 -0.33195,-2.5611 0.01277,-9.94692 3.9323,-9.46687" /><path
           id="path220"
           style="fill:#ffffff;fill-opacity:1;fill-rule:nonzero;stroke:none"
           d="m 61.38058,111.6217 c -0.46728,-3.6169 0.63453,-5.3048 2.78325,-6.1193 0.42131,-0.1596 2.20234,-0.129 3.05646,0.1979 0.48898,0.0561 0.96392,0.2489 1.09926,0.7188 0.11745,0.4123 -0.15576,0.8745 -0.49537,1.0967 -0.38429,0.2528 -0.8503,0.2451 -1.29459,0.2349 -0.13534,0.1123 -0.31408,0.2694 -0.49026,0.4264 -0.4443,0.3996 -0.67539,0.9844 -0.61666,1.5793 0.05618,0.572 0.15065,1.2703 0.30258,1.7032 0.08937,0.1927 0.18768,0.3791 0.30131,0.5502 0.37663,0.5733 1.00222,0.8899 1.64314,1.1644 0.2796,0.0128 0.56048,0.0306 0.83752,0.0728 0.39579,0.06 0.72518,0.2004 0.92435,0.5694 0.2464,0.4558 0.06,0.9269 -0.3345,1.2167 -0.7022,0.5158 -1.81294,0.6652 -2.65813,0.7086 -1.13245,0.0574 -2.25979,-0.2643 -3.14456,-0.9729 -0.98307,-0.7865 -1.75549,-1.9202 -1.9138,-3.1471" /><path
           id="path222"
           style="fill:#ffffff;fill-opacity:1;fill-rule:nonzero;stroke:none"
           d="m 46.04834,103.5127 c 0.87966,1.7657 2.1717,3.3208 3.10115,5.0699 1.11074,2.0925 1.92018,4.3549 3.04752,6.441 1.31758,2.436 2.87518,4.6154 5.07624,6.3211 -2.19979,0.8337 -3.75611,-0.7163 -4.98559,-2.3262 -2.44364,-3.202 -3.42926,-7.1407 -5.35711,-10.5891 -1.37758,-2.4666 -3.07306,-4.4072 -4.02422,-7.179 -1.50908,-4.40085 -1.49248,-10.05288 2.30959,-13.24596 l -0.92818,2.89432 c -0.81965,4.28339 -0.17619,8.72382 1.7606,12.61394" /><path
           id="path224"
           style="fill:#4bbbc0;fill-opacity:1;fill-rule:nonzero;stroke:none"
           d="m 105.4737,78.75398 c 0.6154,0.12639 1.444,-0.16598 2.0083,-0.09831 0.1545,0.01787 0.7201,0.16087 0.7571,0.36003 -0.9512,0.14555 -2.399,1.11203 -2.7654,-0.26172" /><path
           id="path226"
           style="fill:#4bbbc0;fill-opacity:1;fill-rule:nonzero;stroke:none"
           d="m 121.0234,90.74517 -2.2394,-0.32811 c 0.6269,-0.3894 2.2062,-0.71369 2.2394,0.32811" /><path
           id="path228"
           style="fill:#ffffff;fill-opacity:1;fill-rule:nonzero;stroke:none"
           d="m 116.6279,93.88999 c -4.4353,-1.92274 -8.2999,-7.40752 -11.9437,-10.72316 -4.5796,-4.16721 -7.41136,-4.98431 -12.91274,-7.25177 -0.44046,-0.18129 -2.4947,-1.03797 -2.50619,-1.4363 0.24385,-0.59368 0.31407,-1.14394 0.26172,-1.78741 2.56493,0.85923 5.05453,1.92274 7.57222,2.90326 4.36259,1.69931 7.98969,4.91026 11.40619,8.09822 3.9578,3.69355 6.3925,8.71233 12.4595,9.03407 0.2732,0.01404 0.475,-0.0077 0.7163,-0.13534 -0.5554,2.76921 -3.0935,2.14872 -5.0533,1.29843" /><path
           id="path230"
           style="fill:#4bbbc0;fill-opacity:1;fill-rule:nonzero;stroke:none"
           d="m 108.9589,81.77776 -1.112,-0.91413 c 0.9703,-0.22981 2.3989,-0.73156 3.2582,-0.03958 0.1034,0.08298 0.2438,-0.0051 0.1672,0.3013 z" /><path
           id="path232"
           style="fill:#4bbbc0;fill-opacity:1;fill-rule:nonzero;stroke:none"
           d="m 115.4901,88.56965 c -0.0575,-0.25663 0.0957,-0.19151 0.263,-0.25535 0.6345,-0.23875 1.7504,-0.43025 2.4321,-0.47366 0.2094,-0.01277 0.9027,-0.09831 0.9933,0.13661 -0.9077,0.08554 -1.7823,0.4277 -2.6364,0.72517 -0.4813,0.16725 -0.4762,0.55538 -1.052,-0.13277" /><path
           id="path234"
           style="fill:#4bbbc0;fill-opacity:1;fill-rule:nonzero;stroke:none"
           d="m 112.8558,85.67213 c -0.006,-0.29875 1.9802,-0.21066 2.302,-0.19661 0.4353,0.02042 1.449,0.08171 1.818,0.15959 0.1813,0.03958 0.4405,0.16469 0.4903,0.36514 -1.2333,0.11618 -2.4973,0.19534 -3.6272,0.75965 z" /><path
           id="path236"
           style="fill:#4bbbc0;fill-opacity:1;fill-rule:nonzero;stroke:none"
           d="m 111.4844,84.125 -1.1363,-0.95626 2.7003,-0.60006 0.4353,0.09831 1.4785,1.09415 h -1.9113 c -0.3051,0 -1.2346,0.42898 -1.5665,0.36386" /><path
           id="path238"
           style="fill:#2b2b2a;fill-opacity:1;fill-rule:nonzero;stroke:none"
           d="m 68.92509,80.48942 c -0.77496,0.36003 -3.0654,1.42737 -3.35521,0.14682 -0.31152,-1.38013 1.13628,-1.43375 2.03764,-1.86018 1.59717,-0.75581 3.11136,-1.63292 4.45447,-2.79346 0.51069,-0.44174 1.82826,-2.05934 2.37342,-2.09126 0.08554,-0.0038 0.41494,0.09192 0.4443,0.13661 0.30131,0.46983 -0.55665,1.9138 -0.84902,2.3415 -1.06478,1.56015 -3.39224,3.32585 -5.1056,4.11997" /><path
           id="path240"
           style="fill:#2b2b2a;fill-opacity:1;fill-rule:nonzero;stroke:none"
           d="m 55.74578,80.41499 c -1.8423,-0.0013 -1.80145,-1.47972 -0.3511,-1.99041 2.47684,-0.872 4.77493,-1.27544 7.07941,-2.80495 0.43025,-0.28471 1.8372,-1.70952 1.96615,-1.73123 0.40982,-0.07277 0.49281,0.58091 0.38429,0.91669 -0.7239,2.24702 -6.72576,5.61117 -9.07875,5.6099" /><path
           id="path242"
           style="fill:#2b2b2a;fill-opacity:1;fill-rule:nonzero;stroke:none"
           d="m 76.11519,83.34123 c -0.35876,0.08681 -0.95243,-0.24386 -1.0584,-0.59623 -0.22981,-0.76986 0.73667,-2.1934 1.18352,-2.84708 0.98946,-1.44653 2.47428,-3.14201 4.19274,-3.64759 -0.24768,1.23203 -1.2448,2.09637 -1.86911,3.20329 -0.48643,0.86434 -1.49759,3.65524 -2.44875,3.88761" /><path
           id="path244"
           style="fill:#2b2b2a;fill-opacity:1;fill-rule:nonzero;stroke:none"
           d="m 50.43412,96.72379 c 0.09448,-0.53877 2.14489,-1.7823 2.69771,-2.18446 0.32556,-0.2362 0.51452,-0.58729 0.90008,-0.812 0.25024,-0.14682 0.47622,-0.21832 0.68305,-0.25023 0.23747,0.59622 0.42387,1.16947 0.55665,1.69803 -1.09798,0.60772 -2.69515,2.26873 -3.64759,2.47173 -0.58984,0.12639 -1.31374,-0.21832 -1.1899,-0.92307" /><path
           id="path246"
           style="fill:#1d1d1d;fill-opacity:1;fill-rule:nonzero;stroke:none"
           d="m 81.66317,158.2392 c -0.02298,0.217 0.33067,0.2566 1.62143,0.5898 3.86463,0.9703 12.20416,3.068 14.50225,3.6412 0.83625,0.2158 4.17485,1.1388 5.43115,1.6534 0.7967,0.3485 0.4801,1.4899 0.3051,1.9661 -1.2562,3.6604 -1.9814,7.4331 -3.0207,11.2773 -0.1506,0.4162 -0.1085,0.7558 -0.4532,0.8145 -0.45068,-0.0945 -1.80784,-0.4507 -3.84293,-0.9575 -13.22936,-3.4242 -53.97583,-13.3698 -56.89186,-14.3976 0.5924,-3.1126 2.82283,-11.0002 3.36671,-13.3762 0.10852,-0.4328 0.25534,-0.7852 0.73667,-0.6307 2.59301,0.6295 15.40105,3.8698 20.58198,5.1631 1.38268,0.3511 1.05712,0.3102 1.31502,-0.4941 0.06639,-0.2375 0.11618,-0.4724 0.1864,-0.7303 2.12574,-8.2667 12.84251,-50.0972 13.55492,-52.81784 0.04469,-0.15959 0.21194,-0.17108 0.3728,-0.13406 0.41366,0.07405 1.6291,0.3983 3.36543,0.8299 4.1787,1.0979 9.39155,2.2827 12.61271,3.2071 -0.0026,2.0657 -7.2007,28.1593 -11.00276,43.6446 -1.49376,5.8653 -2.61089,10.0912 -2.74112,10.7513" /><path
           id="path248"
           style="fill:#2b2b2a;fill-opacity:1;fill-rule:nonzero;stroke:none"
           d="m 120.9656,92.72651 c -6.0683,-0.32173 -8.5017,-5.34051 -12.4595,-9.03278 -3.4165,-3.18924 -7.045,-6.40019 -11.40625,-8.09823 -2.51897,-0.98052 -5.00857,-2.0453 -7.57222,-2.90326 0.05235,0.64219 -0.01787,1.19246 -0.26173,1.78613 0.01022,0.39834 2.06446,1.25502 2.5062,1.43759 5.50011,2.26617 8.3331,3.08327 12.9127,7.25048 3.6438,3.31564 7.5071,8.80043 11.9437,10.72316 1.9598,0.8503 4.4979,1.47206 5.0533,-1.29842 -0.2426,0.12895 -0.443,0.14938 -0.7162,0.13533 m -2.1807,-2.30958 2.2381,0.32812 c -0.0332,-1.04181 -1.6125,-0.71752 -2.2381,-0.32812 m -0.6,-2.57514 c -0.6818,0.04213 -1.7977,0.23364 -2.4309,0.47238 -0.1685,0.06384 -0.3217,-0.0013 -0.2643,0.25535 0.5758,0.68815 0.5707,0.30003 1.052,0.13278 0.8541,-0.2962 1.73,-0.63964 2.6364,-0.72518 -0.0893,-0.23492 -0.7826,-0.14938 -0.9932,-0.13533 m -1.2091,-2.20617 c -0.369,-0.07788 -1.3827,-0.14044 -1.818,-0.15959 -0.3218,-0.01532 -2.3083,-0.10342 -2.302,0.19661 l 0.9831,1.08777 c 1.1299,-0.56431 2.3939,-0.64347 3.6272,-0.75965 -0.0498,-0.20172 -0.3077,-0.32684 -0.4903,-0.36514 m -3.4918,-2.96837 -0.4354,-0.09831 -2.7002,0.59878 1.1362,0.95754 c 0.3307,0.06511 1.2614,-0.36387 1.5666,-0.36387 h 1.9112 z m -2.3785,-1.84359 c -0.8593,-0.6907 -2.2879,-0.19023 -3.2595,0.03958 l 1.1133,0.91413 2.3134,-0.6524 c 0.0753,-0.30641 -0.0638,-0.21832 -0.1672,-0.30131 m -3.6234,-2.16786 c -0.5643,-0.06767 -1.3929,0.2247 -2.0083,0.0983 0.3665,1.37375 1.8143,0.40728 2.7654,0.26173 -0.037,-0.19917 -0.6026,-0.34216 -0.7571,-0.36003 m -3.2569,-1.88316 c -0.2821,-0.03064 -1.2678,-0.07533 -1.3878,0.20172 0.7073,0.77624 1.338,0.1098 2.2394,0.19661 -0.0945,-0.2464 -0.6243,-0.3728 -0.8516,-0.39833 m -3.0947,-1.64952 c -0.2669,-0.05107 -0.5235,-0.0881 -0.7967,-0.05873 -0.0651,0.3345 0.0651,0.23236 0.2579,0.33067 0.4979,0.25534 0.6549,0.12256 1.1912,0.06256 -0.0115,-0.18513 -0.5133,-0.30897 -0.6524,-0.3345 m -13.80776,2.94156 c -0.65879,1.98402 -0.53239,5.13496 0.42004,7.0194 0.71368,1.41332 2.48705,1.77208 3.80207,2.65557 0.63836,0.4277 1.2665,0.94605 1.86656,1.42865 0.56303,0.45323 1.76059,1.78357 2.31214,2.03636 0.34471,0.15832 0.81199,0.03575 1.18351,0.06767 -0.55281,-0.88349 -1.20905,-1.70059 -1.60483,-2.67728 -0.3562,-0.8771 -1.36864,-3.76887 0.45579,-3.35777 1.06606,0.24002 1.12479,2.15893 1.52057,3.09477 0.4111,0.9703 1.05074,1.67633 1.60739,2.5445 0.25407,0.02298 0.10086,-0.26173 0.06511,-0.39451 -0.17619,-0.65368 -1.63675,-3.89654 0.23109,-3.53779 1.16952,0.22471 1.16052,2.29554 1.56402,3.1918 0.2732,0.609 0.7622,1.08011 1.2358,1.53079 0.3001,0.05617 0.1813,-0.13023 0.1966,-0.32557 0.0651,-0.87455 -0.6792,-3.3833 0.8886,-2.73473 0.7776,0.32174 0.8401,1.92529 1.1223,2.69771 0.8784,2.40534 5.3596,5.04814 7.7701,5.67246 1.7899,0.46473 4.3127,0.7405 5.7695,-0.56303 -3.4625,-0.91669 -6.113,-3.24159 -8.5017,-5.79758 -3.3361,-3.56971 -6.3542,-7.25176 -10.65039,-9.77711 -3.23776,-1.90232 -6.75001,-2.74878 -10.07075,-4.43916 -0.49665,-0.07149 -1.0367,1.22182 -1.18352,1.66485 m -0.41238,13.38639 c 0.73411,1.24991 4.28084,2.99774 5.70948,3.12158 0.85541,0.07405 2.62877,0.09958 2.6875,-1.0418 -1.96487,-0.91924 -5.34179,-5.26136 -7.56584,-5.1439 -1.20777,0.06256 -1.34183,2.1934 -0.83114,3.06412 m 34.40754,4.79408 c -0.2528,0.13533 -0.6473,0.15321 -0.8592,0.29365 -0.3013,0.19916 -1.0393,1.23331 -1.4746,1.59079 -4.0153,3.29651 -10.6198,0.52984 -14.1588,-2.32108 -0.4303,-0.34599 -1.2448,-1.51802 -1.4236,-1.60739 -0.286,-0.14171 -3.2301,-1.19756 -3.41008,-1.21416 -0.2962,-0.02681 -0.59112,0.13151 -0.9052,0.13661 -0.59367,0.01022 -1.19117,-0.01915 -1.78357,-0.0051 0.68049,1.61377 -0.89115,2.81261 -2.06573,3.61566 0.0038,0.04341 -0.63964,0.18896 -0.9652,0.19406 -1.41716,0.02682 -2.82793,-0.22214 -4.17615,-0.65112 -0.39706,-0.1264 -0.78773,-0.26939 -1.17458,-0.42515 -1.17075,-0.47494 -2.2266,-1.21161 -3.05647,-2.16404 -0.10341,-0.11873 -0.21831,-0.263 -0.34854,-0.44685 -0.57708,-0.81072 -1.24097,-2.64536 -1.24608,-3.62971 -0.0051,-0.98563 0.94605,-2.27384 1.56654,-3.00667 -0.21321,-0.73667 -0.54005,-1.43631 -0.72518,-2.18447 -0.54771,-2.20745 -0.63581,-4.98686 0.09958,-7.14835 0.6805,-1.99934 2.50876,-3.29776 2.07595,-5.63543 -5.03027,0.23619 -10.05671,0.24257 -15.09592,0.25662 -3.59269,0.01021 -7.33603,0.06894 -10.93254,-0.01788 -0.20811,-0.0051 -0.42132,-0.10596 -0.65368,-0.11235 -5.43755,-0.13788 -12.67144,0 -17.91747,-1.05967 -1.85125,-0.37408 -2.73984,-1.11841 -0.3677,-1.79507 3.54417,-1.01116 9.47198,-1.17075 13.26638,-1.36226 10.17801,-0.51452 20.41857,-0.466 30.57486,-0.12129 4.40085,0.15066 8.93065,0.19406 13.3149,0.65496 0.97418,0.10214 4.68808,0.52856 5.14388,1.31374 0.0677,0.11618 0.1034,0.25662 0.046,0.38302 -0.4149,0.71624 -5.25882,1.0584 -6.24189,1.07117 l -1.25246,0.26045 c 3.15095,0.64729 6.12955,2.23936 8.91785,3.80079 4.955,2.77558 14.455,8.83744 16.8502,13.989 1.1848,2.55089 1.1235,5.88823 -1.6215,7.34752" /><path
           id="path250"
           style="fill:#2b2b2a;fill-opacity:1;fill-rule:nonzero;stroke:none"
           d="m 45.7672,96.94186 c 0.56559,4.37274 2.81772,6.84444 4.80813,10.47804 1.45929,2.6632 2.50875,5.6597 3.99357,8.2629 2.47428,4.337 6.28274,6.3517 9.81925,1.6444 -3.97698,-2.1742 -6.04654,-7.0577 -3.47906,-11.1253 0.41238,-0.6524 1.01244,-1.1273 1.37502,-1.6559 0.07661,-0.1098 0.1813,-0.1366 0.12895,-0.3294 -0.44174,-0.0638 -0.75709,-0.6703 -1.15415,-0.7699 -0.52729,-0.1302 -1.338,0.6461 -1.68016,1.0291 -0.50558,0.5668 -1.13756,2.2138 -1.84486,2.187 -0.33961,-0.0128 -0.9103,-0.4788 -0.96392,-0.8299 -0.13661,-0.8911 1.93678,-3.5352 2.74366,-4.0561 l -0.79667,-0.6741 c -0.8388,0.2809 -2.49854,2.0223 -3.22244,2.0683 -0.51068,0.0332 -1.05967,-0.3626 -1.23331,-0.8452 0.04724,-0.5337 2.77304,-2.45388 3.40757,-2.72709 l -0.61411,-1.03798 c -0.3728,-0.12128 -1.24224,0.52729 -1.55759,0.78008 -0.4992,0.40217 -1.66101,1.86019 -2.04658,2.03639 -0.60006,0.2745 -1.54228,-0.0894 -1.59207,-0.7852 -0.05618,-0.80945 0.76475,-1.02649 1.26778,-1.51419 0.82604,-0.80178 1.51802,-1.71974 2.36448,-2.5011 -0.0051,-0.39323 -0.08681,-0.87583 -0.21832,-1.40183 0.08937,-0.0498 0.1813,-0.10725 0.26301,-0.14044 0.40344,-1.02138 -0.02171,-1.68016 -0.82093,-1.5576 -1.08138,-2.71047 -3.12286,-5.77077 -5.01495,-6.00185 -3.91953,-0.48005 -4.26297,6.90577 -3.9323,9.46687 m -2.85985,4.30894 c 0.94988,2.7717 2.64537,4.7111 4.02422,7.1777 1.92657,3.4497 2.9122,7.3871 5.35584,10.5891 1.22948,1.6112 2.7858,3.1599 4.98558,2.3275 -2.20106,-1.707 -3.75866,-3.8851 -5.07623,-6.3211 -1.12734,-2.0874 -1.93551,-4.3485 -3.04753,-6.441 -0.92945,-1.7491 -2.22149,-3.3042 -3.10115,-5.0699 -1.93678,-3.89141 -2.58025,-8.33056 -1.76059,-12.61395 l 0.92817,-2.89433 c -3.80207,3.1918 -3.81866,8.84511 -2.30831,13.24598 m 23.53121,14.4907 c 0.84518,-0.0434 1.95593,-0.1927 2.65812,-0.7085 0.39451,-0.2899 0.58091,-0.7597 0.3345,-1.2168 -0.19789,-0.3689 -0.52856,-0.5081 -0.92306,-0.5694 -0.27833,-0.0421 -0.55793,-0.06 -0.83881,-0.0727 -0.64091,-0.2745 -1.2665,-0.5912 -1.64313,-1.1644 -0.11363,-0.1711 -0.21194,-0.3575 -0.30131,-0.549 -0.15065,-0.4328 -0.24641,-1.1324 -0.30258,-1.7044 -0.05745,-0.595 0.17236,-1.1797 0.61665,-1.5793 0.17619,-0.1571 0.35493,-0.3141 0.49026,-0.4264 0.44558,0.0102 0.9103,0.0178 1.29587,-0.235 0.33961,-0.2221 0.61283,-0.6843 0.49409,-1.0967 -0.13405,-0.4698 -0.60899,-0.6626 -1.09925,-0.7188 -0.85413,-0.3268 -2.63387,-0.3574 -3.05647,-0.1978 -2.14871,0.8145 -3.24925,2.5023 -2.78324,6.1193 0.15831,1.2269 0.93072,2.3606 1.9138,3.1471 0.88604,0.7086 2.01211,1.0303 3.14456,0.9728 m -1.65335,-18.11788 0.0051,-0.26811 -0.13661,-0.25789 c -0.35237,-0.32557 -1.66994,1.01882 -1.90231,1.32651 -0.16086,0.21576 -1.2614,2.04147 -1.25757,2.16657 0.0077,0.2375 0.26046,0.1188 0.36387,0.106 1.43758,-0.1851 2.86623,-1.59974 2.92752,-3.07308 m -9.1694,-7.63094 c 1.30098,2.06062 1.10436,3.47778 1.89848,5.48095 0.51324,1.29587 1.6725,2.48449 2.33129,3.73185 l 1.77464,-2.30831 c 1.07244,-1.04563 2.8956,-2.34022 4.15827,-0.85795 1.90487,2.23425 -0.35493,5.27408 -2.43981,6.39508 0.28854,0.143 0.67666,0.8988 0.87456,0.9678 0.49664,0.1698 1.0967,-0.106 1.5461,-0.0971 0.20555,0.005 0.44302,0.046 0.69964,0.1124 2.33385,0.6115 4.00635,2.6619 4.34468,5.0507 0.19917,1.4159 0.38429,3.1956 0.43664,5.1656 -0.31535,0.3077 0.13022,2.081 -1.04819,3.0373 -1.06606,0.8631 -2.54067,0.7111 -3.82377,0.9205 -0.81583,1.4644 -1.95338,3.1407 -3.56077,3.8199 -0.90903,0.3843 -1.87678,0.3728 -2.76282,0.6639 -2.26873,0.7431 -3.64376,2.2509 -6.4219,1.1427 -3.59396,-1.435 -6.57637,-9.9903 -8.40464,-13.3392 -1.66739,-3.0526 -3.62205,-5.4886 -4.61533,-8.96 -1.541,-5.38644 -0.79029,-13.97876 5.73119,-15.48529 4.50554,-1.0418 6.97854,0.90903 9.28174,4.55917" /><path
           id="path252"
           style="fill:#2b2b2a;fill-opacity:1;fill-rule:nonzero;stroke:none"
           d="m 55.53589,95.03418 c -0.08171,0.03447 -0.17491,0.09065 -0.26428,0.14044 -0.13278,-0.52856 -0.31918,-1.10181 -0.55665,-1.69803 0.79795,-0.12257 1.2231,0.53622 0.82093,1.55759" /><path
           id="path254"
           style="fill:#1d1d1d;fill-opacity:1;fill-rule:nonzero;stroke:none"
           d="m 446.1421,144.1359 c -1.6687,-0.0626 -5.7363,-0.0485 -9.6711,-0.037 -1.5347,0.005 -3.0399,0.009 -4.3537,0.009 -0.8745,0 -1.6648,-0.001 -2.3223,-0.006 -0.7916,0.005 -1.5078,0.003 -2.1206,-0.001 -0.8286,-0.002 -1.4976,-0.005 -1.8487,0.0141 l 0.001,0.002 -0.003,0.0792 c 0.3907,5.4452 5.5141,8.1276 10.1129,8.3153 4.4774,0.1889 9.3596,-1.9726 10.1563,-7.1803 0.0153,-0.1749 0.0396,-0.3371 0.0613,-0.4864 0.0638,-0.4354 0.0727,-0.6077 -0.0128,-0.7086 m -33.9837,-17.0314 0.0204,-0.1507 c 0.0511,-0.4647 -0.0498,-0.8145 -0.3064,-1.0686 -0.5362,-0.5324 -1.735,-0.692 -3.5837,-0.4711 -3.6732,0.1506 -4.4047,2.2623 -4.3932,5.6214 l 0.001,20.6662 c -0.001,0.1188 0.002,0.1749 -0.0115,0.1788 0.1161,0.0434 0.5451,0.0459 0.7277,0.0485 0.5273,-0.003 1.2269,-0.001 1.9789,10e-4 1.4529,0.006 3.0935,0.0114 4.0064,-0.0256 0.6996,-0.0447 1.1477,-0.2706 1.4005,-0.692 0.4481,-0.8834 0.06,-1.8372 -0.3498,-2.8458 -0.1979,-0.4826 -0.3996,-0.9818 -0.4967,-1.4414 -1.8231,-5.7082 -1.4197,-13.5192 1.0061,-19.821 m -50.0678,-3.6527 c -1.3623,-0.0868 -3.3233,-0.009 -4.9166,0.8618 -1.587,0.7519 -2.5714,2.3376 -2.5675,4.1404 0.004,1.8257 0.9869,3.3756 2.6313,4.1455 3.3297,1.5767 5.9674,1.9201 10.3376,2.487 0.6141,0.0817 1.2614,0.1647 1.9432,0.2566 0.2234,0.0281 0.4174,0.0396 0.5834,0.0396 0.5222,0 0.7852,-0.1162 0.918,-0.2285 0.1302,-0.1124 0.1966,-0.2745 0.2042,-0.5094 l 0.0115,-0.1673 c 0.0983,-6.653 -3.4011,-10.8764 -9.1451,-11.0257 m -20.6892,12.2309 -0.0907,-0.0766 c -0.2694,-0.2285 -0.8311,-0.7124 -0.9882,-0.6664 -0.001,0 -0.0497,0.037 -0.0855,0.1277 -0.0345,1.5729 -0.0434,5.2562 -0.0447,9.4081 0.0511,0.097 0.1047,0.1928 0.1634,0.286 0.0332,0.0498 0.0664,0.0996 0.1009,0.1494 0.0166,0.0229 0.0319,0.0446 0.0485,0.0676 l 0.0128,0.0166 c 0.0779,0.0919 0.1519,0.1864 0.2349,0.2745 0.1711,0.1839 0.3575,0.3498 0.5541,0.5069 0,0 0,0 0,0 0.0268,0.0204 0.0536,0.0396 0.0804,0.0587 0.0537,0.0383 0.1073,0.0766 0.1622,0.1136 0.1034,0.0677 0.2081,0.1328 0.314,0.1941 0.1111,0.0638 0.2248,0.1238 0.3397,0.1813 0.0549,0.0268 0.111,0.0536 0.1672,0.0791 0.0294,0.0141 0.06,0.0269 0.0907,0.0409 0.008,0.003 0.005,0.003 0.009,0.004 0.2324,0.0945 0.4711,0.1737 0.7124,0.2426 1.9419,-0.009 4.3549,0.0268 5.6073,0.0613 1.5742,0.0434 3.0591,0.0855 4.1124,0.023 1.4567,0.0178 1.8627,1.0928 2.2202,2.0427 0.1072,0.2834 0.2145,0.5707 0.3638,0.8618 1.3125,3.0884 5.2269,4.3421 8.2834,4.1953 2.5611,-0.1187 5.6252,-1.2703 6.5406,-4.1468 0.6192,-1.8614 0.6103,-3.4139 -0.0293,-4.2591 -0.4443,-0.5899 -1.2308,-0.8682 -2.3492,-0.8184 -7.4573,-0.7699 -14.1882,-1.6712 -21.0429,-4.9051 -1.878,-0.8746 -3.8876,-2.3645 -5.4873,-4.0626 m -17.0161,-1.6176 -0.0294,-0.1008 c -0.646,-1.5461 -1.6457,-1.5908 -3.8672,-1.541 -0.9052,-0.0473 -1.8972,-0.0192 -2.8573,0.008 -1.6801,0.0485 -3.2696,0.0945 -4.54,-0.2247 -0.0332,-0.008 -0.0651,-0.0217 -0.0932,-0.0383 -0.549,-0.3243 -0.7954,-0.9167 -1.0137,-1.4388 -0.0562,-0.1328 -0.1111,-0.2643 -0.1762,-0.4073 -1.1963,-2.9033 -3.405,-4.6485 -6.5713,-5.1835 -3.2901,-0.6103 -6.2099,0.0715 -8.4442,1.9802 -2.7258,2.3313 -4.2783,6.3989 -4.1519,10.8942 -0.0842,4.9818 0.858,8.6549 2.8101,10.9313 1.7376,2.2279 4.6945,3.4242 7.6054,3.4242 1.9725,0 3.9234,-0.549 5.458,-1.7006 1.1401,-0.8733 2.0389,-2.1385 2.6734,-3.7638 l 0.1047,-0.2681 c 0.3141,-0.8171 0.7265,-1.924 1.9726,-1.9151 1.1337,-0.0217 3.345,-0.0166 5.3137,-0.0153 1.1528,0.003 2.2214,0.004 2.9658,10e-4 0.6243,0.0459 2.1398,0.0102 2.736,-1.3687 0.2323,-0.4928 0.217,-1.5588 0.2004,-2.5904 -0.006,-0.4801 -0.0127,-0.9665 0.001,-1.4019 -0.0179,-0.6 -0.008,-1.2614 0.004,-1.9329 0.0192,-1.2001 0.0396,-2.4411 -0.1008,-3.3476 m -46.9973,10.3274 c -0.1647,-0.9269 -0.3345,-1.8844 -0.4111,-2.8547 -0.0626,-0.7252 -0.2579,-1.1797 -0.5809,-1.3546 -0.3818,-0.2069 -1.0418,-0.0626 -1.9075,0.4111 -3.991,2.1257 -9.4987,3.1203 -14.8239,4.0816 -2.4539,0.4443 -4.7711,0.8631 -6.8164,1.3725 -2.5611,0.6882 -3.8161,1.813 -3.9502,3.525 -0.0281,0.7495 0.2209,1.3597 0.7571,1.8628 1.2256,1.149 3.797,1.5563 6.3836,1.5563 0.9065,0 1.8155,-0.0485 2.6696,-0.1353 3.5544,-0.378 5.5537,-1.5219 6.7041,-3.8621 0.3217,-0.4954 0.7136,-0.7124 1.366,-0.7482 1.0687,-0.0178 3.3297,-0.0153 5.4478,-0.0127 1.7376,0.003 3.3769,0.004 4.1991,-0.006 0.4635,0.0293 1.2461,-0.1137 1.3355,-1.0929 l 0.0102,-0.1238 c -0.0715,-0.8618 -0.2234,-1.7159 -0.383,-2.6186 m -13.2421,-19.115 -0.1379,-0.0741 c -3.6936,-1.6176 -10.9543,-2.0248 -14.4563,1.4823 -0.6818,0.6435 -1.2091,1.7031 -1.6342,2.5534 l -0.1034,0.2056 c -0.286,0.4915 -0.6167,0.7405 -1.1465,0.835 -0.7763,0.0472 -1.7287,0.0612 -2.7373,0.0612 -0.6269,0 -1.2767,-0.006 -1.9176,-0.0102 -1.0278,-0.009 -2.0249,-0.0153 -2.8561,-0.002 -0.3179,0.006 -0.5987,0.005 -0.8541,0.001 -0.803,-0.004 -1.2856,-0.0115 -1.7478,0.2617 -1.015,0.6741 -0.9818,2.0657 -0.9537,3.2952 l 0.1085,6.413 c -0.014,1.089 0.1928,1.2307 0.1941,1.2307 0.291,0.0562 1.246,-1.0252 1.6597,-1.4938 0.4392,-0.4966 0.8528,-0.9652 1.1567,-1.1707 2.3977,-2.0925 5.4184,-3.5569 9.2371,-4.4762 2.0146,-0.4826 4.1263,-0.8171 6.1678,-1.1388 2.7283,-0.4315 5.5486,-0.8771 8.125,-1.684 2.2394,-0.6052 3.7421,-1.8615 3.9208,-3.2761 0.1417,-1.1209 -0.5796,-2.1921 -2.0248,-3.013 m -52.514,-1.8257 c -1.3674,-0.0856 -3.3246,-0.008 -4.9167,0.8618 -1.5882,0.7519 -2.5726,2.3376 -2.5687,4.1404 0.005,1.8257 0.9881,3.3756 2.6326,4.1455 3.3284,1.5767 5.9661,1.9201 10.3363,2.487 0.6141,0.0817 1.2614,0.1647 1.9444,0.2566 0.2234,0.0281 0.4162,0.0396 0.5835,0.0396 0.5209,0 0.7851,-0.1162 0.9167,-0.2285 0.1302,-0.1124 0.1966,-0.2745 0.2055,-0.5107 l 0.0115,-0.166 c 0.097,-6.653 -3.4012,-10.8764 -9.1451,-11.0257 m -17.8881,14.7869 c -0.2401,-0.0561 -0.4226,-0.0319 -0.558,0.0741 -0.2643,0.2055 -0.4175,0.7443 -0.4315,1.5269 -0.0396,0.8656 -0.1379,2.5445 -0.3498,4.0804 -0.2592,1.6457 -0.0371,2.5254 0.6281,2.7526 0.8963,0.1047 1.9228,0.1341 2.9914,0.1341 0.743,0 1.5065,-0.0141 2.2598,-0.0294 1.7555,-0.0319 3.5722,-0.0676 5.0762,0.1009 0.6792,0.1813 0.9154,0.9601 1.1044,1.5869 0.0319,0.1073 0.0638,0.2107 0.0995,0.3218 0.6678,2.3159 2.4782,4.1021 4.8401,4.7775 3.0679,0.84 6.3976,0.4953 8.4812,-0.8784 1.3278,-0.8771 2.1104,-2.1194 2.3275,-3.7076 l 0.0217,-0.1149 c 0.203,-1.1452 0.512,-2.8739 -0.143,-3.6629 -0.2439,-0.2949 -0.6128,-0.4392 -1.158,-0.4469 -8.4455,-0.7813 -17.3404,-1.9278 -25.1118,-6.4946 z m -20.0164,-9.712 -0.1098,-0.1289 c -0.003,-0.004 -0.005,-0.008 -0.009,-0.0115 -1.7836,-2.2968 -4.7813,-3.5646 -8.0203,-3.4037 -3.2212,0.1634 -6.0555,1.7171 -7.5799,4.1557 -3.0692,4.8962 -3.2671,15.2159 0.886,19.8338 1.7211,1.9355 4.2936,3.0156 7.068,3.0156 0.4608,0 0.9294,-0.0294 1.3992,-0.0906 3.2978,-0.4277 6.0849,-2.2943 7.4637,-5.0137 2.6811,-4.6383 2.7909,-13.8601 -1.0979,-18.3567 m -57.7052,-5.0749 c -1.3673,-0.0856 -3.3246,-0.008 -4.9166,0.8618 -1.5883,0.7519 -2.5726,2.3376 -2.5688,4.1404 0.005,1.8257 0.9882,3.3756 2.6326,4.1455 3.3284,1.5767 5.9661,1.9201 10.3363,2.487 0.6141,0.0817 1.2614,0.1647 1.9445,0.2566 0.2234,0.0281 0.4162,0.0396 0.5834,0.0396 0.5209,0 0.7852,-0.1162 0.9167,-0.2298 0.1302,-0.1111 0.1966,-0.2732 0.2056,-0.5094 l 0.0115,-0.166 c 0.097,-6.653 -3.4012,-10.8764 -9.1452,-11.0257 m 339.5102,32.7261 -0.1086,0.1289 c -3.6973,4.655 -9.5141,7.5659 -16.379,8.1953 -7.5582,0.6996 -15.1342,-1.5601 -20.2717,-6.0363 -1.1733,-1.0891 -2.2407,-1.6368 -2.9314,-1.504 -0.3408,0.0664 -0.6026,0.3026 -0.8183,0.7545 -0.3154,0.5286 -0.2899,1.3687 -0.2656,2.1794 0.0358,1.1746 0.0728,2.39 -0.8273,3.0807 -0.0434,0.0205 -0.0856,0.0409 -0.1302,0.0613 -1.1401,0.2388 -3.4982,0.1979 -5.5767,0.1622 -1.3508,-0.0243 -2.6263,-0.0435 -3.4191,0.0114 -0.2719,-0.0178 -0.4634,0.0179 -0.5618,0.1086 -0.1787,0.1659 -0.1838,0.6217 -0.1876,1.1758 0.0153,1.5397 0.008,3.4676 10e-4,5.3571 -0.006,1.67 -0.0127,3.3106 -0.002,4.6205 0.0179,0.8567 -0.0306,1.3827 -0.3422,1.6967 -0.2923,0.2975 -0.7366,0.3103 -1.2294,0.3141 l -3.0923,0.003 c -3.4956,0.004 -8.2846,0.0102 -9.7732,-0.0166 -1.1989,-0.0639 -1.1951,-0.8044 -1.1887,-1.9253 10e-4,-0.2298 0.003,-0.4903 -0.002,-0.789 -0.006,-1.0852 -0.003,-2.5126 0,-3.9617 0.005,-2.4373 0.0115,-4.9549 -0.0268,-5.9789 -0.0485,-0.7545 -1.3993,-0.7315 -3.0259,-0.6256 -0.6907,0.0447 -1.2907,0.083 -1.7184,0.009 -2.5509,0.3434 -2.8024,-1.2589 -2.9569,-2.2202 -0.0345,-0.2184 -0.0996,-0.6256 -0.18,-0.6741 0,0 -0.1507,-0.0575 -0.715,0.3025 -6.5764,4.9563 -21.0505,5.5116 -29.2151,1.1223 -3.3067,-1.7274 -8.2642,-5.2358 -10.39,-9.1796 0.004,4.8196 0.005,8.8132 -0.0255,9.906 -0.0932,0.7163 -0.7686,0.7226 -1.1312,0.7265 -0.0881,0 -0.1762,0 -0.2936,0.0102 -0.7175,-0.001 -1.9598,0.001 -3.4076,0.002 -3.4548,0.004 -8.1889,0.008 -9.6558,-0.0166 -1.2295,-0.0357 -1.2116,-0.9894 -1.1988,-1.6865 0.004,-0.1979 0.009,-0.4085 -0.006,-0.632 -0.0447,-0.9882 -0.0179,-2.3708 0.0115,-3.834 0.0357,-1.8486 0.0753,-3.8825 -0.0307,-5.3711 -3.1841,6.7079 -9.9252,11.4049 -18.2915,12.6714 -9.3775,1.4185 -18.4486,-1.7172 -23.6895,-8.2042 -0.8618,-1.2116 -1.9292,-1.9508 -2.8548,-1.9776 h -0.0485 c -0.6064,0 -1.1593,0.309 -1.6355,0.9065 -4.1417,5.8014 -11.8977,9.3711 -20.7454,9.5473 -8.9613,0.1544 -16.8948,-3.0846 -21.242,-8.6919 -0.4622,-0.4597 -0.872,-0.6933 -1.1938,-0.6601 -0.6141,0.0268 -1.2563,0.7813 -2.1448,1.8257 -2.5216,2.9633 -7.2097,8.4812 -20.9625,7.5697 -8.6127,-0.4354 -15.1406,-3.7293 -19.4036,-9.7925 -0.6677,-0.9767 -1.3048,-1.5359 -1.7733,-1.5359 h -0.006 c -0.3754,-0.0332 -0.8848,0.2975 -1.361,0.8886 -1.4414,2.0543 -3.0539,4.1698 -5.0737,5.7185 -6.7244,5.5001 -17.4348,5.7835 -24.3815,0.6434 -0.9001,-0.6702 -1.601,-1.4299 -2.1653,-2.0414 -0.3115,-0.3371 -0.6894,-0.7482 -0.8809,-0.8644 -0.1392,0.3192 -0.1788,1.4402 -0.1136,3.3642 l -0.0166,0.3179 c -0.0383,0.8643 -0.0818,1.8436 -1.3968,1.8436 h -0.0204 c -1.9496,0.0217 -7.6297,0.0153 -11.0206,0.0102 l -1.8704,-0.003 c -0.0779,-0.005 -0.1558,-0.005 -0.2324,-0.006 -0.3319,-0.003 -1.0239,-0.008 -1.0597,-0.7877 0.0485,-3.751 -0.0383,-33.0045 -0.0383,-38.1586 0,-3.8812 -0.406,-3.4688 -0.4864,-3.5454 -1.4274,0 -0.9103,6.916 -0.8707,8.8068 0.0153,0.7788 0.0268,1.3648 0.0166,1.5946 -0.0498,1.9317 0.0242,4.0281 0.1021,6.2483 0.3345,9.4349 1.181,19.6614 -7.5965,24.3304 -6.118,3.2786 -14.6861,3.9706 -22.1153,2.0121 -0.0932,-0.0243 -0.1915,-0.0268 -0.2847,-0.0485 -0.2094,-0.1519 -0.4481,-0.2605 -0.7047,-0.2515 -0.3179,0.0115 -4.6333,-1.4031 -7.4063,-3.497 -3.0156,-2.1308 -5.87928,-5.3162 -7.09344,-10.035 -0.26811,-0.9843 -0.47111,-1.9176 -0.03574,-2.5253 0.23364,-0.3269 0.6192,-0.5094 1.16053,-0.5426 2.48067,-0.0268 8.57185,-0.083 11.55685,0.023 1.1529,0.1366 1.4938,1.0009 1.7951,1.7644 0.06,0.1519 0.1225,0.309 0.2004,0.4851 1.1874,3.188 4.0996,4.8835 8.2349,4.7456 2.3568,-0.0153 6.4167,-0.6971 7.1317,-5.1286 0.3664,-1.4184 0.3268,-2.4066 -0.1213,-3.0194 -0.6703,-0.9141 -2.3338,-1.0763 -4.3089,-1.1848 -0.6652,-0.0958 -1.3521,-0.1915 -2.053,-0.2885 -9.4834,-1.3163 -21.2867,-2.9557 -24.89981,-12.6702 -1.24353,-3.7025 -0.79285,-7.6603 1.2665,-11.1458 2.17808,-3.6846 5.96101,-6.3338 10.10141,-7.0832 7.6616,-1.781 15.9015,0.3345 21.1105,5.3941 0.1341,-0.3536 0.1162,-1.0443 0.1022,-1.6252 -0.0319,-1.2372 -0.0677,-2.6377 0.9562,-3.105 0.0383,-0.0102 0.0779,-0.0192 0.1162,-0.0281 2.2151,-0.12 5.1337,-0.0983 7.9578,-0.0779 1.7632,0.0128 3.4688,0.0268 4.8796,0.004 0.1685,-0.0128 0.3422,-0.0103 0.512,-0.0115 0.2936,0.004 0.6243,0.005 0.7239,-0.0958 0.0523,-0.0511 0.0625,-0.166 0.0625,-0.2668 0.032,-1.1159 0.0269,-13.3251 0.023,-16.64843 -0.004,-2.46407 -0.006,-4.77876 0.005,-5.84099 -0.0217,-0.48898 0.0983,-0.8605 0.3601,-1.10563 0.217,-0.20428 0.5119,-0.30514 0.8579,-0.30514 0.0702,0 0.143,0.0038 0.2171,0.01277 1.6354,-0.01022 5.9763,-0.0064 9.2766,-0.0064 l 3.2799,0.0013 c 0.6013,-0.01149 1.0814,-0.0051 1.3827,0.31535 0.254,0.27066 0.2604,0.65496 0.2451,0.89753 0.005,1.31885 0.004,13.22045 0.003,16.96885 -0.001,4.6817 -0.004,9.8142 0.008,11.7867 0.0894,-0.1021 0.1839,-0.2171 0.2656,-0.3166 l 0.24,-0.2899 c 3.0603,-3.7012 7.7101,-5.8984 13.0889,-6.1882 5.7236,-0.2949 11.3552,1.6712 15.073,5.2933 0.3536,0.3396 0.6932,0.706 1.0239,1.0647 0.9256,0.9984 1.8078,1.9509 2.6019,1.8538 0.5439,-0.0612 1.1197,-0.6128 1.7338,-1.6725 2.9135,-3.9654 7.7918,-6.3044 13.735,-6.5891 6.5406,-0.3243 13.1004,2.0325 16.831,5.9967 0.2298,-0.3728 0.2119,-1.163 0.1953,-1.8742 -0.023,-1.0009 -0.046,-2.0363 0.5081,-2.593 0.2541,-0.2553 0.6116,-0.3588 1.0125,-0.3741 2.307,-0.0166 9.8511,-0.0319 12.3522,0.008 0.4877,0.0268 0.8516,0.1928 1.0801,0.4915 0.4469,0.5822 0.2617,1.4836 0.083,2.3568 -0.0945,0.4533 -0.1902,0.9231 -0.1724,1.3151 -0.097,0.5783 -0.171,0.9805 -0.2285,1.2754 0.2043,0.1111 0.5043,2.1449 0.798,1.8283 2.5036,-2.7041 8.3523,-9.0277 21.2944,-8.4264 9.8103,0.2464 15.8006,2.5777 20.6688,8.0395 0.5311,0.5592 1.0915,0.7929 1.675,0.821 1.4223,-0.0115 2.8905,-1.6049 3.8723,-2.6697 5.7925,-5.7899 19.5798,-8.6829 30.0335,-3.6041 1.7415,0.4494 3.6438,2.2981 5.4848,4.0867 1.5742,1.5295 3.3616,3.2608 4.111,2.9135 0.3435,-0.1596 0.8772,-0.9805 0.6141,-4.7443 0.0332,-0.457 0.0154,-0.8758 0,-1.2461 -0.0331,-0.8119 -0.0625,-1.5116 0.4392,-2.1512 0.0652,-0.0409 0.1239,-0.0779 0.189,-0.1188 1.4733,-0.3038 4.9792,-0.2464 8.3727,-0.1927 1.9611,0.0306 3.8136,0.0612 4.9639,0.0114 0.4583,-0.0434 0.8414,0.0498 1.1273,0.286 0.5401,0.4494 0.609,1.2806 0.678,2.0862 0.1047,1.2346 0.2311,1.8206 0.9243,1.8627 0.2694,-0.006 0.8427,-0.143 2.0466,-1.1643 3.4203,-3.0003 8.7494,-4.563 14.2482,-4.1583 5.6954,0.2936 10.1524,2.0606 13.2025,5.2128 0.1354,0.0971 0.2847,0.2528 0.4392,0.4162 0.1405,0.1507 0.4047,0.4303 0.4711,0.4558 0.1481,-0.2068 0.1903,-1.3839 0.2145,-2.0861 0.023,-0.6448 0.0447,-1.2512 0.1149,-1.6598 0.0447,-0.2757 0.1634,-1.0111 0.9512,-1.1835 1.8129,-0.1289 5.0839,-0.1008 7.9705,-0.0766 1.7402,0.0141 3.3884,0.0306 4.54,0.008 0.4009,0.005 0.8567,0.0293 1.2346,0.2528 0.5452,0.3562 0.429,1.126 0.3447,1.6891 l -0.0178,0.1238 c -0.8312,4.6166 -0.9065,14.5137 -0.7175,21.5995 -0.0103,1.1657 0.0217,2.4003 0.0523,3.5953 0.0498,1.9291 -0.0179,3.5607 -0.0179,5.3277 0,2.5203 0.0294,4.8605 1.8168,5.2052 0.1455,0.0255 0.2234,0.0128 0.2464,-0.008 0.1328,-0.1123 0.1226,-0.7507 0.1124,-1.315 -0.005,-0.3255 -0.0115,-0.6907 -10e-4,-1.098 0.1519,-3.6424 0.0536,-7.1828 -0.0434,-10.6057 -0.1915,-6.8164 -0.3716,-13.2549 1.5308,-19.1865 3.2275,-5.901 10.741,-5.7133 17.371,-5.5461 1.9968,0.0498 3.8825,0.0971 5.5563,-0.0255 0.5566,10e-4 1.0137,0.143 1.3329,0.4596 0.6358,0.6346 0.6128,1.7734 0.5936,2.8739 -0.0191,0.9525 -0.037,1.9355 0.3958,2.4437 0.1851,0.2693 0.4124,0.4187 0.6971,0.4583 0.535,0.0702 1.3176,-0.2617 2.076,-0.8924 4.697,-4.1864 11.2989,-6.4921 18.5826,-6.4934 10.4563,-0.2298 19.8977,5.4031 23.9742,14.2597 0.4239,0.8426 0.8018,1.7874 0.3843,2.3989 -0.2515,0.369 -0.7341,0.5209 -1.4044,0.4596 -2.5049,0.003 -8.0267,0.009 -10.4027,-0.004 h -0.0281 c -1.4822,0 -2.0797,-0.6064 -2.9032,-1.4452 l -0.1966,-0.1992 c -1.6049,-1.6636 -4.0268,-2.7118 -7.0233,-3.0335 -3.2428,-0.5413 -6.6951,0.2336 -9.2319,2.0747 -2.0798,1.5103 -3.3718,3.585 -3.7383,6.0159 -0.1583,0.8337 -0.0715,1.043 -0.028,1.0928 0.028,0.0332 0.1161,0.046 0.2642,0.0409 1.8015,0.0268 6.616,0.0153 12.1901,-0.001 8.7903,-0.0217 19.7292,-0.0523 22.6158,0.0753 0.1545,0.008 0.2847,0.1175 0.3192,0.2682 1.7261,7.4343 -1.5997,16.4262 -5.7771,21.4667" /><path
           id="path256"
           style="fill:#1d1d1d;fill-opacity:1;fill-rule:nonzero;stroke:none"
           d="m 534.4059,151.591 c 0.4085,1.0546 0.1123,3.5723 0.1966,5.1465 -0.005,1.541 0.0243,3.1267 -0.023,4.4545 -0.0421,0.4557 -0.0983,0.7124 -0.4966,0.8439 -1.8513,0.24 -7.2288,0.005 -9.2779,0.1021 -0.355,0.0332 -0.7776,0.005 -0.9525,0.3447 -0.3255,2.9671 -0.0166,8.2706 -0.1213,11.6118 0.0102,1.6074 -0.0191,1.5806 -1.5869,1.5742 -0.9499,-0.006 -1.887,0.005 -2.8854,0 -2.5343,0.006 -5.6227,-0.005 -8.0561,0 -0.955,-0.1264 -2.6237,0.4149 -2.6466,-0.6741 -0.0549,-1.3636 -0.0103,-6.9492 -0.0243,-10.1768 -0.0779,-1.7529 0.2911,-2.4781 -0.7903,-2.6377 -6.3721,-0.1378 -13.8575,-0.014 -20.3637,-0.0536 -1.0175,-0.0613 -1.6137,0.1711 -1.7644,-0.2783 0.3077,-3.2084 -0.6192,-44.9482 0.3128,-49.2558 2.2138,-0.0945 12.019,0.004 14.2635,-0.0217 0.5056,0.0102 0.7609,0.0536 0.706,0.6371 0.0205,7.4854 -0.0242,35.2872 0.0128,37.7385 0.0843,0.4073 0.3332,0.3281 0.9027,0.3868 1.1413,0.0217 4.3931,0.0243 5.6686,-0.001 0.9703,-0.0345 1.0482,-0.1992 1.0507,-0.8452 0.003,-0.8593 0,-2.5407 0.001,-4.632 0.217,-10.4129 -0.5209,-17.205 0.4788,-24.5794 1.0852,-8.8004 10.455,-8.6382 17.5319,-8.711 2.0031,0.0166 5.8946,-0.0383 7.1739,0.0332 0.6702,0.0255 0.863,0.4162 0.8707,1.0163 0.0319,1.6278 0.0127,6.3465 0.0102,8.4161 0.0523,1.2397 -0.5081,1.5052 -2.0006,1.4925 -2.5867,0.1289 -6.2547,-0.3486 -7.885,1.8116 -0.8389,1.3329 -0.9678,3.1191 -0.9793,4.6345 -0.002,3.2327 -0.001,14.9581 0.003,20.5322 -0.1022,0.8426 0.5592,0.8465 1.2116,0.8426 1.8665,0.0154 6.8751,-0.009 8.5833,0.0128 0.318,0.0217 0.6078,0.0141 0.8274,0.1864 l 0.0485,0.0485 z" /><path
           id="path258"
           style="fill:#1d1d1d;fill-opacity:1;fill-rule:nonzero;stroke:none"
           d="m 466.5026,112.8205 c 0.6907,0.0154 2.5164,0.005 4.7085,-0.009 1.8921,-0.0115 3.9821,-0.0243 5.8602,-0.0243 2.5227,0 4.6664,0.023 5.4375,0.1009 0.1021,0.0115 0.1966,0.0689 0.2643,0.1621 0.3306,0.4609 0.3051,0.978 0.2796,1.4785 -0.0128,0.2413 -0.0268,0.5158 -0.003,0.8835 -0.023,1.3405 -0.0102,3.1586 0.003,5.0749 0.0242,3.1867 0.0472,6.4807 -0.0792,8.4915 -0.006,0.097 -0.037,0.1877 -0.0881,0.2617 l -0.0293,0.0409 c -0.0677,0.0996 -0.1686,0.1608 -0.2758,0.1698 -2.45,0.1876 -5.8474,0.1506 -9.1362,0.1174 -2.1449,-0.0217 -4.1736,-0.0434 -5.9125,-0.005 -0.226,-0.004 -0.4188,-0.002 -0.5796,-0.001 -0.5235,0 -0.8222,0.009 -1.0571,-0.2732 -0.2528,-0.3013 -0.2477,-0.7047 -0.2388,-1.652 l 0.001,-12.0191 c 0.0294,-0.5056 0.0115,-0.9103 -0.003,-1.2358 -0.0293,-0.669 -0.0625,-1.4261 0.8478,-1.5615" /><path
           id="path260"
           style="fill:#1d1d1d;fill-opacity:1;fill-rule:nonzero;stroke:none"
           d="m 486.0975,166.4933 c 0.6205,0.0115 2.2598,0.004 4.2285,-0.006 1.6993,-0.009 3.5774,-0.0179 5.2639,-0.0179 2.2662,0 4.1915,0.0166 4.8835,0.0753 0.0919,0.009 0.1774,0.0524 0.2374,0.1226 0.2975,0.3473 0.2745,0.738 0.2516,1.1159 -0.0115,0.1813 -0.0243,0.3894 -0.003,0.6651 -0.0204,1.0125 -0.009,2.3837 0.003,3.8302 0.0217,2.4041 0.0421,4.8885 -0.0715,6.4066 -0.005,0.0715 -0.032,0.1404 -0.0792,0.1966 l -0.0255,0.0306 c -0.0613,0.0753 -0.152,0.1213 -0.249,0.1277 -2.1998,0.1417 -5.2511,0.1149 -8.2042,0.0894 -1.9278,-0.0166 -3.7497,-0.0332 -5.3111,-0.004 -0.203,-0.002 -0.3767,-0.002 -0.5209,-0.001 -0.4699,0 -0.7393,0.006 -0.9499,-0.2056 -0.2273,-0.2273 -0.2222,-0.5311 -0.2145,-1.2461 l 0.001,-9.0685 c 0.0268,-0.3817 0.0115,-0.6869 -0.001,-0.932 -0.0268,-0.5056 -0.0575,-1.0763 0.7609,-1.1784" /><path
           id="path262"
           style="fill:#1d1d1d;fill-opacity:1;fill-rule:nonzero;stroke:none"
           d="m 325.694,166.4933 c 0.6205,0.0115 2.2598,0.004 4.2285,-0.006 1.6993,-0.009 3.5774,-0.0179 5.2639,-0.0179 2.2662,0 4.1915,0.0166 4.8835,0.0753 0.0919,0.009 0.1775,0.0524 0.2375,0.1226 0.2974,0.3473 0.2745,0.738 0.2515,1.1159 -0.0115,0.1813 -0.0243,0.3894 -0.003,0.6651 -0.0204,1.0125 -0.009,2.3837 0.003,3.8302 0.0217,2.4041 0.0421,4.8885 -0.0715,6.4066 -0.005,0.0715 -0.0319,0.1404 -0.0792,0.1966 l -0.0255,0.0306 c -0.0613,0.0753 -0.1519,0.1213 -0.249,0.1277 -2.1998,0.1417 -5.2511,0.1149 -8.2042,0.0894 -1.9278,-0.0166 -3.7497,-0.0332 -5.3111,-0.004 -0.203,-0.002 -0.3767,-0.002 -0.5209,-0.001 -0.4699,0 -0.7392,0.006 -0.9499,-0.2056 -0.2273,-0.2273 -0.2222,-0.5311 -0.2145,-1.2461 l 10e-4,-9.0685 c 0.0268,-0.3817 0.0115,-0.6869 -10e-4,-0.932 -0.0268,-0.5056 -0.0574,-1.0763 0.7609,-1.1784" /></g></g></g></svg>