<?xml version="1.0" encoding="UTF-8"?>
<svg id="Livello_1" xmlns="http://www.w3.org/2000/svg" version="1.1" viewBox="0 0 388.6 87.7">
  <!-- Generator: Adobe Illustrator 30.2.1, SVG Export Plug-In . SVG Version: 2.1.1 Build 1)  -->
  <defs>
    <style>
      .st0 {
        fill: #010101;
      }

      .st1 {
        fill: #fff;
      }

      .st2 {
        fill: #44babf;
      }
    </style>
  </defs>
  <g>
    <path class="st0" d="M116.4,67.1c-.3,1.7-1,3.1-2.3,4.1-1.3,1-2.8,1.6-4.6,1.6s-4-.7-5.3-2c-1.3-1.4-2-3.2-2-5.5s.7-4.1,2-5.5c1.3-1.4,3.1-2,5.4-2s3.3.5,4.5,1.6c1.2,1.1,2,2.4,2.2,4.1h-3.4c-.2-1-.6-1.7-1.2-2.1-.6-.5-1.4-.7-2.3-.7s-1.9.4-2.6,1.3c-.7.8-1,2-1,3.4s.3,2.6,1,3.5c.7.8,1.6,1.2,2.7,1.2s1.6-.2,2.3-.7c.7-.4,1.1-1.2,1.3-2.2h3.4Z"/>
    <path class="st0" d="M120.3,57.9v2.7h-3.3v-2.7h3.3ZM120.3,61.7v10.8h-3.3v-10.8h3.3Z"/>
    <path class="st0" d="M128.3,65.3c0-.6-.2-1.1-.5-1.3-.3-.3-.8-.4-1.4-.4s-1,.1-1.3.4c-.3.3-.5.7-.6,1.2h-3.1c0-1.1.6-2,1.6-2.7s2.2-1.1,3.7-1.1,2.8.4,3.6,1.1c.8.7,1.2,1.9,1.2,3.5v2.4c0,2,0,3.4.2,4.3h-3.3v-1.3c-.8,1-2,1.6-3.7,1.6s-1.9-.3-2.7-.9c-.7-.6-1.1-1.3-1.1-2.3s.2-1.2.5-1.7.8-.8,1.5-1.1,1.4-.5,2.3-.7c.8-.2,1.8-.3,2.9-.4v-.4ZM124.5,69.4c0,.3.1.6.4.8.3.2.7.3,1.1.3,1.6,0,2.3-.9,2.3-2.6v-.3c-1.3.1-2.3.3-2.9.5-.6.2-.9.6-.9,1.1Z"/>
    <path class="st0" d="M141.8,62.8c1.1,1,1.6,2.4,1.6,4.2s-.5,3.3-1.6,4.2c-1.1,1-2.5,1.5-4.1,1.5s-3-.5-4.1-1.5c-1.1-1-1.6-2.4-1.6-4.2s.5-3.3,1.6-4.2c1.1-1,2.5-1.5,4.1-1.5s3,.5,4.1,1.5ZM136.1,64.7c-.4.5-.6,1.3-.6,2.4s.2,1.9.6,2.4c.4.5,1,.8,1.7.8s1.3-.3,1.7-.8.6-1.3.6-2.4-.2-1.9-.6-2.4c-.4-.5-1-.7-1.7-.7s-1.3.2-1.7.7Z"/>
    <path class="st0" d="M143.6,68.9h3.7v3.8l-2.1,3h-2l1.7-3.2h-1.4v-3.6Z"/>
    <path class="st0" d="M165,62.5h-3.4c-.2-.5-.5-1-1.1-1.4-.5-.4-1.3-.6-2.1-.6s-2,.4-2.7,1.2c-.7.8-1.1,1.9-1.1,3.4s.3,2.7,1,3.5c.7.8,1.6,1.2,2.8,1.2s1.7-.2,2.3-.6c.6-.4.9-1,.9-1.9v-.3h-3.5v-2.8h7v8.1h-2.6v-1.6c-1,1.2-2.5,1.9-4.6,1.9s-3.8-.7-5.1-2c-1.2-1.4-1.9-3.2-1.9-5.5s.7-4.1,2.1-5.4c1.4-1.4,3.2-2,5.4-2s3.1.4,4.3,1.2c1.2.8,1.9,2,2.3,3.6Z"/>
    <path class="st0" d="M173.2,64.9c-.4,0-.7,0-.9,0-.8,0-1.4.2-1.8.5-.4.3-.6.9-.6,1.7v5.4h-3.3v-10.8h3.2v2c.5-1.4,1.5-2.1,3-2.1.2,0,.4,0,.5,0v3.2Z"/>
    <path class="st0" d="M180.1,65.3c0-.6-.2-1.1-.5-1.3-.3-.3-.8-.4-1.4-.4s-1,.1-1.3.4c-.3.3-.5.7-.6,1.2h-3.1c0-1.1.6-2,1.6-2.7s2.2-1.1,3.7-1.1,2.8.4,3.6,1.1c.8.7,1.2,1.9,1.2,3.5v2.4c0,2,0,3.4.2,4.3h-3.3v-1.3c-.8,1-2,1.6-3.7,1.6s-1.9-.3-2.7-.9c-.7-.6-1.1-1.3-1.1-2.3s.2-1.2.5-1.7.8-.8,1.5-1.1,1.4-.5,2.3-.7,1.8-.3,2.9-.4v-.4ZM176.3,69.4c0,.3.1.6.4.8.3.2.7.3,1.1.3,1.6,0,2.3-.9,2.3-2.6v-.3c-1.3.1-2.3.3-2.9.5-.6.2-.9.6-.9,1.1Z"/>
    <path class="st0" d="M183.8,69.9l5.7-5.5h-5.3v-2.6h9.5v2.6l-5.7,5.5h5.9v2.6h-10.2v-2.6Z"/>
    <path class="st0" d="M197.8,57.9v2.7h-3.3v-2.7h3.3ZM197.8,61.7v10.8h-3.3v-10.8h3.3Z"/>
    <path class="st0" d="M209.9,69.1c-.5,1.2-1.2,2.1-2.2,2.7-1,.6-2.1.9-3.2.9-1.8,0-3.2-.5-4.3-1.5-1.1-1-1.6-2.4-1.6-4.2s.6-3.1,1.7-4.1c1.1-1,2.5-1.6,4.1-1.6s3.2.6,4.2,1.8c1,1.2,1.5,2.8,1.4,4.7h-8c0,.7.3,1.3.8,1.7.5.4,1,.6,1.7.6,1.2,0,2-.4,2.4-1.1h3.1ZM201.9,65.9h4.7c0-.6-.2-1.1-.7-1.5-.4-.4-1-.5-1.6-.5s-1.2.2-1.6.5c-.4.3-.7.8-.8,1.5Z"/>
    <path class="st0" d="M224.7,69.1c-.5,1.2-1.2,2.1-2.2,2.7-1,.6-2.1.9-3.2.9-1.8,0-3.2-.5-4.3-1.5-1.1-1-1.6-2.4-1.6-4.2s.6-3.1,1.7-4.1c1.1-1,2.5-1.6,4.1-1.6s3.2.6,4.2,1.8c1,1.2,1.5,2.8,1.4,4.7h-8c0,.7.3,1.3.8,1.7.5.4,1,.6,1.7.6,1.2,0,2-.4,2.4-1.1h3.1ZM216.7,65.9h4.7c0-.6-.2-1.1-.7-1.5-.4-.4-1-.5-1.6-.5s-1.2.2-1.6.5c-.4.3-.7.8-.8,1.5Z"/>
    <path class="st0" d="M228.9,57.9h6.4c.7,0,1.3,0,1.8.1.5,0,1,.2,1.5.4.5.2.9.4,1.2.7.3.3.6.6.8,1.1.2.4.3,1,.3,1.6,0,1.3-.6,2.3-1.7,3,1.5.5,2.3,1.6,2.3,3.3,0,3-2,4.5-5.9,4.5h-6.6v-14.6ZM232.3,63.8h3c.6,0,1-.1,1.4-.4.3-.3.5-.6.5-1.1s-.2-.8-.5-1.1c-.3-.3-.8-.4-1.4-.4h-3v2.9ZM232.3,69.6h3.2c.7,0,1.3-.1,1.6-.4.4-.3.6-.7.6-1.2s-.2-.9-.6-1.2c-.4-.3-.9-.4-1.6-.4h-3.2v3.3Z"/>
    <path class="st0" d="M248.8,71c-.4.6-.8,1-1.3,1.3s-1.1.5-1.9.5c-1.4,0-2.3-.4-2.9-1.1-.6-.7-.8-1.9-.8-3.4v-6.5h3.3v5.7c0,.4,0,.7,0,.9,0,.2,0,.5.1.7,0,.3.1.5.3.6.1.1.3.3.5.4.2.1.5.2.8.2.7,0,1.2-.2,1.5-.6s.5-1.1.5-2.2v-5.7h3.3v10.8h-3.3v-1.5Z"/>
    <path class="st0" d="M262.7,62.8c1.1,1,1.6,2.4,1.6,4.2s-.5,3.3-1.6,4.2c-1.1,1-2.5,1.5-4.1,1.5s-3-.5-4.1-1.5c-1.1-1-1.6-2.4-1.6-4.2s.5-3.3,1.6-4.2c1.1-1,2.5-1.5,4.1-1.5s3,.5,4.1,1.5ZM256.9,64.7c-.4.5-.6,1.3-.6,2.4s.2,1.9.6,2.4c.4.5,1,.8,1.7.8s1.3-.3,1.7-.8.6-1.3.6-2.4-.2-1.9-.6-2.4c-.4-.5-1-.7-1.7-.7s-1.3.2-1.7.7Z"/>
    <path class="st0" d="M268.4,63.1c.3-.5.7-.8,1.3-1.2.6-.3,1.3-.5,2.1-.5,1.3,0,2.3.4,2.8,1.1.5.8.8,1.9.8,3.4v6.5h-3.3v-5.7c0-.4,0-.7,0-.9,0-.2,0-.5-.1-.8s-.1-.5-.3-.6c-.1-.1-.3-.3-.5-.4-.2-.1-.5-.2-.8-.2-.7,0-1.2.2-1.5.7-.3.5-.5,1.2-.5,2.2v5.5h-3.3v-10.8h3.3v1.4Z"/>
    <path class="st0" d="M283.1,65.3c0-.6-.2-1.1-.5-1.3-.3-.3-.8-.4-1.4-.4s-1,.1-1.3.4c-.3.3-.5.7-.6,1.2h-3.1c0-1.1.6-2,1.6-2.7,1-.8,2.2-1.1,3.7-1.1s2.8.4,3.6,1.1c.8.7,1.2,1.9,1.2,3.5v2.4c0,2,0,3.4.2,4.3h-3.3v-1.3c-.8,1-2,1.6-3.7,1.6s-1.9-.3-2.7-.9c-.7-.6-1.1-1.3-1.1-2.3s.2-1.2.5-1.7.8-.8,1.5-1.1,1.4-.5,2.3-.7,1.8-.3,2.9-.4v-.4ZM279.4,69.4c0,.3.1.6.4.8.3.2.7.3,1.1.3,1.6,0,2.3-.9,2.3-2.6v-.3c-1.3.1-2.3.3-2.9.5-.6.2-.9.6-.9,1.1Z"/>
    <path class="st0" d="M295.8,57.9c5.7,0,8.5,2.4,8.5,7.3s-2.8,7.3-8.5,7.3h-4.8v-14.6h4.8ZM295.8,60.8h-1.4v8.8h1.4c.6,0,1.1,0,1.5,0s.9-.2,1.3-.4c.4-.2.8-.4,1.1-.7.3-.3.5-.7.7-1.3.2-.5.3-1.2.3-1.9s0-1.4-.3-1.9c-.2-.5-.4-1-.7-1.3s-.6-.6-1.1-.7c-.4-.2-.9-.3-1.3-.4s-.9,0-1.5,0Z"/>
    <path class="st0" d="M314.3,62.8c1.1,1,1.6,2.4,1.6,4.2s-.5,3.3-1.6,4.2c-1.1,1-2.5,1.5-4.1,1.5s-3-.5-4.1-1.5c-1.1-1-1.6-2.4-1.6-4.2s.5-3.3,1.6-4.2c1.1-1,2.5-1.5,4.1-1.5s3,.5,4.1,1.5ZM308.5,64.7c-.4.5-.6,1.3-.6,2.4s.2,1.9.6,2.4,1,.8,1.7.8,1.3-.3,1.7-.8.6-1.3.6-2.4-.2-1.9-.6-2.4c-.4-.5-1-.7-1.7-.7s-1.3.2-1.7.7Z"/>
    <path class="st0" d="M320,72.5h-3.3v-10.8h3.3v1.4c.3-.5.7-.8,1.3-1.2.6-.3,1.2-.5,2-.5,1.6,0,2.7.6,3.2,1.8.8-1.2,2.1-1.8,3.7-1.8s2.3.4,2.8,1.1c.5.8.8,1.9.8,3.4v6.5h-3.3v-5.7c0-.4,0-.7,0-.9,0-.2,0-.5-.1-.7s-.1-.5-.3-.6c-.1-.2-.3-.3-.5-.4-.2-.1-.5-.2-.8-.2-1.3,0-1.9,1-1.9,2.9v5.6h-3.3v-5.7c0-.4,0-.7,0-.9,0-.2,0-.5-.1-.7,0-.3-.1-.5-.3-.6-.1-.2-.3-.3-.5-.4-.2-.1-.5-.2-.8-.2-1.3,0-1.9,1-1.9,2.9v5.6Z"/>
    <path class="st0" d="M345.6,69.1c-.5,1.2-1.2,2.1-2.2,2.7-1,.6-2.1.9-3.2.9-1.8,0-3.2-.5-4.3-1.5-1.1-1-1.6-2.4-1.6-4.2s.6-3.1,1.7-4.1c1.1-1,2.5-1.6,4.1-1.6s3.2.6,4.2,1.8c1,1.2,1.5,2.8,1.4,4.7h-8c0,.7.3,1.3.8,1.7.5.4,1,.6,1.7.6,1.2,0,2-.4,2.4-1.1h3.1ZM337.7,65.9h4.7c0-.6-.2-1.1-.7-1.5s-1-.5-1.6-.5-1.2.2-1.6.5-.7.8-.8,1.5Z"/>
    <path class="st0" d="M349.7,63.1c.3-.5.7-.8,1.3-1.2.6-.3,1.3-.5,2.1-.5,1.3,0,2.3.4,2.8,1.1s.8,1.9.8,3.4v6.5h-3.3v-5.7c0-.4,0-.7,0-.9,0-.2,0-.5-.1-.8s-.1-.5-.3-.6c-.1-.1-.3-.3-.5-.4-.2-.1-.5-.2-.8-.2-.7,0-1.2.2-1.5.7s-.5,1.2-.5,2.2v5.5h-3.3v-10.8h3.3v1.4Z"/>
    <path class="st0" d="M361.2,57.9v2.7h-3.3v-2.7h3.3ZM361.2,61.7v10.8h-3.3v-10.8h3.3Z"/>
    <path class="st0" d="M372.8,65.7h-3.1c-.3-1.1-.9-1.7-2.1-1.7s-1.2.3-1.7.8c-.4.5-.7,1.3-.7,2.4s.2,1.9.7,2.4c.5.5,1,.8,1.7.8,1.2,0,1.9-.6,2.2-1.7h3.1c-.2,1-.7,1.9-1.3,2.5-.6.7-1.3,1.1-2,1.4-.7.2-1.4.4-2.2.4-1.8,0-3.1-.5-4.1-1.5-1-1-1.4-2.4-1.4-4.2s.5-3.1,1.5-4.1c1-1,2.4-1.6,4-1.6s1.6.1,2.3.4c.7.2,1.3.7,1.9,1.4.6.7,1,1.5,1.2,2.5Z"/>
    <path class="st0" d="M380.2,65.3c0-.6-.2-1.1-.5-1.3-.3-.3-.8-.4-1.4-.4s-1,.1-1.3.4c-.3.3-.5.7-.6,1.2h-3.1c0-1.1.6-2,1.6-2.7,1-.8,2.2-1.1,3.7-1.1s2.8.4,3.6,1.1c.8.7,1.2,1.9,1.2,3.5v2.4c0,2,0,3.4.2,4.3h-3.3v-1.3c-.8,1-2,1.6-3.7,1.6s-1.9-.3-2.7-.9c-.7-.6-1.1-1.3-1.1-2.3s.2-1.2.5-1.7c.3-.5.8-.8,1.5-1.1.7-.3,1.4-.5,2.3-.7.8-.2,1.8-.3,2.9-.4v-.4ZM376.4,69.4c0,.3.1.6.4.8.3.2.7.3,1.1.3,1.6,0,2.3-.9,2.3-2.6v-.3c-1.3.1-2.3.3-2.9.5-.6.2-.9.6-.9,1.1Z"/>
    <path class="st0" d="M385.3,67.9l-1-6v-4h4.2v4l-1,6h-2.2ZM384.6,72.5v-3.6h3.7v3.6h-3.7Z"/>
  </g>
  <path class="st1" d="M37.9,71.1c1.7,0,4.4-3.3,5.9-4,0-.9-1.4-.9-2.1-.8-1.1,0-3.9,1.5-4.5,2.4-.4.7-.3,2.4.7,2.4Z"/>
  <path class="st2" d="M54.8,69.3c1.9-2,3.9-3.8,6.7-4.5-1.1-1-3.1-.8-4.5-.4-1.9.5-5.4,2.6-6.1,4.4-.2.6-.3,1.9-.9,2.1-1.2.5-.6-1.5-.7-2.1,0-.2,0-.3-.2-.3-.4.4-.8.7-1,1.2-.3.7-.3,2.3-1.2,2.5-1.5.3-.3-2.3-.2-2.8,0-.1.1-.3,0-.3-.4.7-.9,1.2-1.3,2-.3.7-.4,2.2-1.2,2.4-1.4.3-.6-1.9-.4-2.6.3-.8.8-1.4,1.3-2.1-.3,0-.7,0-.9,0-.4.2-1.4,1.2-1.8,1.6-.5.4-1,.8-1.5,1.1-1,.7-2.4,1-3,2.1-.7,1.5-.8,3.9-.3,5.5.1.3.5,1.4.9,1.3,2.6-1.3,5.4-2,7.9-3.5,3.4-2,5.7-4.9,8.3-7.7Z"/>
  <path class="st2" d="M48,81.3c-.2,0-.3,0-.2.3.2,0,.4,0,.6,0,.1,0,.5-.1.5-.3-.4,0-.5-.2-.9,0Z"/>
  <path class="st2" d="M49.8,80c0,.2.9.2,1.1.2.2,0,.6-.1.7-.3-.7,0-1.2-.5-1.8.2Z"/>
  <path class="st2" d="M8.1,71.8c1.5-.2,3.1-2.6,3.9-4.7-.2,0-.3,0-.5-.2-.3-.2-.5-.5-.7-.6-.4-.3-2-1.3-2.1-1.7,0-.6.5-.8.9-.7.7.2,2,1.5,2.9,1.9.1-.4.2-.8.2-1.1-.7-.6-1.2-1.3-1.9-2-.4-.4-1-.6-1-1.2,0-.5.8-.8,1.2-.6.3.1,1.2,1.3,1.6,1.6.2.2.9.7,1.2.6l.5-.8c-.5-.2-2.6-1.7-2.7-2.1.1-.4.6-.7,1-.7.6,0,1.9,1.4,2.5,1.6l.6-.5c-.6-.4-2.3-2.5-2.1-3.2,0-.3.5-.6.8-.7.6,0,1,1.3,1.4,1.7.3.3.9.9,1.3.8.3,0,.6-.6.9-.6,0-.2,0-.2-.1-.3-.3-.4-.8-.8-1.1-1.3-2-3.2-.4-7,2.7-8.7-2.8-3.7-5.8-2.1-7.7,1.3-1.2,2-2,4.4-3.1,6.5-1.6,2.8-3.3,4.8-3.8,8.2-.3,2,0,7.8,3.1,7.4Z"/>
  <path class="st1" d="M17.3,52.9c-.4,2.8.5,4.2,2.2,4.8.3.1,1.7.1,2.4-.2.4,0,.8-.2.9-.6,0-.3-.1-.7-.4-.9-.3-.2-.7-.2-1-.2-.1,0-.2-.2-.4-.3-.3-.3-.5-.8-.5-1.2,0-.4.1-1,.2-1.3,0-.2.1-.3.2-.4.3-.4.8-.7,1.3-.9.2,0,.4,0,.7,0,.3,0,.6-.2.7-.4.2-.4,0-.7-.3-1-.5-.4-1.4-.5-2.1-.6-.9,0-1.8.2-2.5.8-.8.6-1.4,1.5-1.5,2.5Z"/>
  <path class="st1" d="M5.3,59.2c.7-1.4,1.7-2.6,2.4-4,.9-1.6,1.5-3.4,2.4-5,1-1.9,2.3-3.6,4-5-1.7-.7-2.9.6-3.9,1.8-1.9,2.5-2.7,5.6-4.2,8.3-1.1,1.9-2.4,3.5-3.2,5.6-1.2,3.4-1.2,7.9,1.8,10.4l-.7-2.3c-.6-3.4-.1-6.8,1.4-9.9Z"/>
  <path class="st2" d="M51.8,78.6c.5,0,1.1.1,1.6,0,.1,0,.6-.1.6-.3-.7-.1-1.9-.9-2.2.2Z"/>
  <path class="st2" d="M64,69.2l-1.8.3c.5.3,1.7.6,1.8-.3Z"/>
  <path class="st1" d="M60.6,66.8c-3.5,1.5-6.5,5.8-9.4,8.4-3.6,3.3-5.8,3.9-10.1,5.7-.3.1-2,.8-2,1.1.2.5.2.9.2,1.4,2-.7,4-1.5,5.9-2.3,3.4-1.3,6.3-3.8,8.9-6.3,3.1-2.9,5-6.8,9.8-7.1.2,0,.4,0,.6.1-.4-2.2-2.4-1.7-4-1Z"/>
  <path class="st2" d="M54.5,76.3l-.9.7c.8.2,1.9.6,2.6,0,0,0,.2,0,.1-.2l-1.8-.5Z"/>
  <path class="st2" d="M59.7,70.9c0,.2,0,.2.2.2.5.2,1.4.3,1.9.4.2,0,.7,0,.8-.1-.7,0-1.4-.3-2.1-.6-.4-.1-.4-.4-.8.1Z"/>
  <path class="st2" d="M57.6,73.2c0,.2,1.6.2,1.8.2.3,0,1.1,0,1.4-.1.1,0,.3-.1.4-.3-1,0-2-.2-2.8-.6l-.8.9Z"/>
  <path class="st2" d="M56.5,74.4l-.9.7,2.1.5h.3c0,0,1.2-.9,1.2-.9h-1.5c-.2,0-1-.3-1.2-.3Z"/>
  <path d="M23.2,77.3c-.6-.3-2.4-1.1-2.6-.1-.2,1.1.9,1.1,1.6,1.5,1.3.6,2.4,1.3,3.5,2.2.4.3,1.4,1.6,1.9,1.6,0,0,.3,0,.3-.1.2-.4-.4-1.5-.7-1.8-.8-1.2-2.7-2.6-4-3.2Z"/>
  <path d="M12.9,77.3c-1.4,0-1.4,1.2-.3,1.6,1.9.7,3.7,1,5.5,2.2.3.2,1.4,1.3,1.5,1.4.3,0,.4-.5.3-.7-.6-1.8-5.3-4.4-7.1-4.4Z"/>
  <path d="M28.8,75c-.3,0-.7.2-.8.5-.2.6.6,1.7.9,2.2.8,1.1,1.9,2.5,3.3,2.9-.2-1-1-1.6-1.5-2.5-.4-.7-1.2-2.9-1.9-3Z"/>
  <path d="M8.7,64.6c0,.4,1.7,1.4,2.1,1.7.3.2.4.5.7.6.2.1.4.2.5.2.2-.5.3-.9.4-1.3-.9-.5-2.1-1.8-2.9-1.9-.5,0-1,.2-.9.7Z"/>
  <path class="st0" d="M33.2,16.4c0-.2.3-.2,1.3-.5,3-.8,9.6-2.4,11.4-2.9.7-.2,3.3-.9,4.3-1.3.6-.3.4-1.2.2-1.5-1-2.9-1.6-5.8-2.4-8.8-.1-.3,0-.6-.4-.6-.4,0-1.4.4-3,.8C34.2,4.2,2.3,12,0,12.8c.5,2.4,2.2,8.6,2.6,10.5,0,.3.2.6.6.5,2-.5,12.1-3,16.1-4,1.1-.3.8-.2,1,.4,0,.2,0,.4.1.6,1.7,6.5,10.1,39.2,10.6,41.4,0,.1.2.1.3.1.3,0,1.3-.3,2.6-.6,3.3-.9,7.4-1.8,9.9-2.5,0-1.6-5.6-22.1-8.6-34.2-1.2-4.6-2-7.9-2.1-8.4Z"/>
  <path d="M64.2,64.9c-.2-.1-.5-.1-.7-.2-.2-.2-.8-1-1.2-1.2-3.1-2.6-8.3-.4-11.1,1.8-.3.3-1,1.2-1.1,1.3-.2.1-2.5.9-2.7,1-.2,0-.5-.1-.7-.1-.5,0-.9,0-1.4,0,.5-1.3-.7-2.2-1.6-2.8,0,0-.5-.1-.8-.2-1.1,0-2.2.2-3.3.5-.3,0-.6.2-.9.3-.9.4-1.7.9-2.4,1.7s-.2.2-.3.3c-.5.6-1,2.1-1,2.8s.7,1.8,1.2,2.4c-.2.6-.4,1.1-.6,1.7-.4,1.7-.5,3.9,0,5.6.5,1.6,2,2.6,1.6,4.4-3.9-.2-7.9-.2-11.8-.2-2.8,0-5.7,0-8.6,0-.2,0-.3,0-.5,0-4.3.1-9.9,0-14,.8-1.5.3-2.1.9-.3,1.4,2.8.8,7.4.9,10.4,1.1,8,.4,16,.4,23.9,0,3.4-.1,7-.2,10.4-.5.8,0,3.7-.4,4-1,0,0,0-.2,0-.3-.3-.6-4.1-.8-4.9-.8l-1-.2c2.5-.5,4.8-1.8,7-3,3.9-2.2,11.3-6.9,13.2-11,.9-2,.9-4.6-1.3-5.8ZM37.3,68.7c.6-1,3.4-2.3,4.5-2.4.7,0,2.1,0,2.1.8-1.5.7-4.2,4.1-5.9,4-.9,0-1.1-1.7-.7-2.4ZM37.6,79.2c-.5-1.6-.4-4,.3-5.5.6-1.1,1.9-1.4,3-2.1.5-.3,1-.7,1.5-1.1.4-.4,1.4-1.4,1.8-1.6.3-.1.6,0,.9,0-.4.7-.9,1.3-1.3,2.1-.3.7-1.1,3,.4,2.6.8-.2.9-1.7,1.2-2.4.3-.8.8-1.3,1.3-2,.2,0,0,.2,0,.3-.1.5-1.3,3.1.2,2.8.9-.2.9-1.8,1.2-2.5.2-.5.6-.8,1-1.2.2,0,.1.1.2.3,0,.7-.5,2.6.7,2.1.6-.3.7-1.5.9-2.1.7-1.9,4.2-4,6.1-4.4,1.4-.4,3.4-.6,4.5.4-2.7.7-4.8,2.5-6.7,4.5-2.6,2.8-5,5.7-8.3,7.7-2.5,1.5-5.3,2.2-7.9,3.5-.4,0-.8-1-.9-1.3ZM48.4,81.5c-.2,0-.4,0-.6,0,0-.3,0-.2.2-.3.4-.2.5,0,.9,0,0,.1-.4.2-.5.3ZM50.8,80.2c-.2,0-1,0-1.1-.2.6-.6,1,0,1.8-.2,0,.2-.5.3-.7.3ZM53.4,78.7c-.4,0-1.1-.2-1.6,0,.3-1.1,1.4-.3,2.2-.2,0,.2-.5.3-.6.3ZM56.2,77c-.7.5-1.8.1-2.6,0l.9-.7,1.8.5c0,.2,0,.2-.1.2ZM58.1,75.6h-.3c0,0-2.1-.4-2.1-.4l.9-.7c.3,0,1,.3,1.2.3h1.5l-1.2.9ZM60.8,73.2c-.3,0-1.1.1-1.4.1-.3,0-1.8,0-1.8-.2l.8-.9c.9.4,1.9.5,2.8.6,0,.2-.2.3-.4.3ZM61.8,71.5c-.5,0-1.4-.2-1.9-.4-.1,0-.3,0-.2-.2.5-.5.4-.2.8-.1.7.2,1.4.5,2.1.6,0,.2-.6.1-.8.1ZM62.2,69.5l1.8-.3c0,.8-1.3.6-1.8.3ZM64,67.7c-4.8.3-6.7,4.2-9.8,7.1-2.7,2.5-5.5,5-8.9,6.3-2,.8-3.9,1.6-5.9,2.3,0-.5,0-.9-.2-1.4,0-.3,1.6-1,2-1.1,4.3-1.8,6.5-2.4,10.1-5.7,2.9-2.6,5.9-6.9,9.4-8.4,1.5-.7,3.5-1.2,4,1-.2-.1-.3-.1-.6-.1Z"/>
  <path d="M12.8,69.8c1-1.6.9-2.7,1.5-4.3.4-1,1.3-1.9,1.8-2.9l1.4,1.8c.8.8,2.3,1.8,3.3.7,1.5-1.8-.3-4.1-1.9-5,.2-.1.5-.7.7-.8.4-.1.9,0,1.2,0,.2,0,.3,0,.5,0,1.8-.5,3.1-2.1,3.4-4,.2-1.1.3-2.5.3-4-.2-.2.1-1.6-.8-2.4-.8-.7-2-.6-3-.7-.6-1.1-1.5-2.5-2.8-3-.7-.3-1.5-.3-2.2-.5-1.8-.6-2.9-1.8-5-.9-2.8,1.1-5.2,7.8-6.6,10.4-1.3,2.4-2.8,4.3-3.6,7-1.2,4.2-.6,10.9,4.5,12.1,3.5.8,5.5-.7,7.3-3.6ZM19.9,63.9v.2s-.1.2-.1.2c-.3.3-1.3-.8-1.5-1-.1-.2-1-1.6-1-1.7,0-.2.2,0,.3,0,1.1.1,2.2,1.3,2.3,2.4ZM21.2,49.7c.7,0,1.5.2,2.1.6.3.2.5.6.3,1-.2.3-.4.4-.7.4-.2,0-.4,0-.7,0-.5.2-1,.5-1.3.9,0,.1-.2.3-.2.4-.1.3-.2.9-.2,1.3,0,.5.1.9.5,1.2.1.1.3.2.4.3.3,0,.7,0,1,.2.3.2.5.5.4.9-.1.4-.5.5-.9.6-.7.3-2.1.3-2.4.2-1.7-.6-2.5-2-2.2-4.8.1-1,.7-1.8,1.5-2.5.7-.6,1.6-.8,2.5-.8ZM2.8,61c.7-2.2,2.1-3.7,3.2-5.6,1.5-2.7,2.3-5.8,4.2-8.3,1-1.3,2.2-2.5,3.9-1.8-1.7,1.3-2.9,3-4,5-.9,1.6-1.5,3.4-2.4,5-.7,1.4-1.7,2.6-2.4,4-1.5,3-2,6.5-1.4,9.9l.7,2.3c-3-2.5-3-6.9-1.8-10.4ZM5.1,64.4c.4-3.4,2.2-5.4,3.8-8.2,1.1-2.1,2-4.4,3.1-6.5,1.9-3.4,4.9-5,7.7-1.3-3.1,1.7-4.7,5.5-2.7,8.7.3.5.8.9,1.1,1.3,0,0,.1.1.1.3-.3,0-.6.5-.9.6-.4.1-1-.5-1.3-.8-.4-.4-.9-1.7-1.4-1.7-.3,0-.7.4-.8.7-.1.7,1.5,2.8,2.1,3.2l-.6.5c-.7-.2-2-1.6-2.5-1.6-.4,0-.8.3-1,.7,0,.4,2.2,1.9,2.7,2.1l-.5.8c-.3,0-1-.4-1.2-.6-.4-.3-1.3-1.5-1.6-1.6-.5-.2-1.2,0-1.2.6,0,.6.6.8,1,1.2.6.6,1.2,1.3,1.9,2,0,.3,0,.7-.2,1.1,0,0,.1,0,.2.1.3.8,0,1.3-.6,1.2-.8,2.1-2.4,4.5-3.9,4.7-3.1.4-3.3-5.4-3.1-7.4Z"/>
  <path d="M12.7,65.9c0,0-.1,0-.2-.1-.1.4-.3.9-.4,1.3.6,0,1-.4.6-1.2Z"/>
  <path class="st0" d="M326,18h0c-2.9-3.7-7.5-6-12.8-6.5-5.9-.5-11.9,1.2-15.9,4.7-.9.9-1.8,1.3-2.3,1.2-.3,0-.5-.2-.6-.6-.2-.4-.2-1.1-.2-1.7,0-.9,0-1.9-.6-2.4,0,0,0,0-.1,0-.9-.2-2.7-.2-4.4-.1-1.1,0-2.1,0-2.7,0-.2,0-.4,0-.4,0-.1-.1-.1-.5-.1-.9,0-1.2,0-2.7,0-4.2,0-1.3,0-2.6,0-3.6,0-.7,0-1.1-.3-1.3-.2-.2-.6-.2-1-.2h-2.4c-2.7,0-6.5,0-7.7,0-.9,0-.9.6-.9,1.5,0,.2,0,.4,0,.6,0,.8,0,2,0,3.1,0,1.9,0,3.9,0,4.7,0,.6-1.1.6-2.4.5-.5,0-1,0-1.3,0-2-.3-2.2,1-2.3,1.7,0,.2,0,.5-.1.5,0,0-.1,0-.6-.2-5.2-3.9-16.5-4.3-22.9-.9-2.6,1.4-6.5,4.1-8.1,7.2,0-3.8,0-6.9,0-7.8,0-.6-.6-.6-.9-.6,0,0-.1,0-.2,0-.6,0-1.5,0-2.7,0-2.7,0-6.4,0-7.6,0-1,0-.9.8-.9,1.3,0,.2,0,.3,0,.5,0,.8,0,1.9,0,3,0,1.4,0,3,0,4.2-2.5-5.3-7.8-8.9-14.3-9.9-7.3-1.1-14.4,1.3-18.6,6.4-.7.9-1.5,1.5-2.2,1.5h0c-.5,0-.9-.2-1.3-.7-3.2-4.5-9.3-7.3-16.2-7.5-7-.1-13.2,2.4-16.6,6.8-.4.4-.7.5-.9.5-.5,0-1-.6-1.7-1.4-2-2.3-5.6-6.6-16.4-5.9-6.7.3-11.9,2.9-15.2,7.7-.5.8-1,1.2-1.4,1.2h0c-.3,0-.7-.2-1.1-.7-1.1-1.6-2.4-3.3-4-4.5-5.3-4.3-13.7-4.5-19.1-.5-.7.5-1.3,1.1-1.7,1.6-.2.3-.5.6-.7.7-.1-.2-.1-1.1,0-2.6v-.2c0-.7,0-1.4-1.1-1.4h0c-1.5,0-6,0-8.6,0h-1.5c0,0-.1,0-.2,0-.3,0-.8,0-.8.6,0,2.9,0,25.9,0,29.9s-.3,2.7-.4,2.8c-1.1,0-.7-5.4-.7-6.9,0-.6,0-1.1,0-1.2,0-1.5,0-3.2,0-4.9.3-7.4.9-15.4-6-19.1-4.8-2.6-11.5-3.1-17.3-1.6,0,0-.1,0-.2,0-.2.1-.4.2-.6.2-.2,0-3.6,1.1-5.8,2.7-2.4,1.7-4.6,4.2-5.6,7.9-.2.8-.4,1.5,0,2,.2.3.5.4.9.4,1.9,0,6.7,0,9.1,0,.9-.1,1.2-.8,1.4-1.4,0-.1,0-.2.2-.4.9-2.5,3.2-3.8,6.5-3.7,1.8,0,5,.5,5.6,4,.3,1.1.3,1.9,0,2.4-.5.7-1.8.8-3.4.9-.5,0-1.1.1-1.6.2-7.4,1-16.7,2.3-19.5,9.9-1,2.9-.6,6,1,8.7,1.7,2.9,4.7,5,7.9,5.5,6,1.4,12.5-.3,16.5-4.2.1.3,0,.8,0,1.3,0,1,0,2.1.7,2.4,0,0,0,0,0,0,1.7,0,4,0,6.2,0,1.4,0,2.7,0,3.8,0,.1,0,.3,0,.4,0,.2,0,.5,0,.6,0,0,0,0,.1,0,.2,0,.9,0,10.4,0,13,0,1.9,0,3.7,0,4.6,0,.4,0,.7.3.9.2.2.4.2.7.2s.1,0,.2,0c1.3,0,4.7,0,7.3,0h2.6c.5,0,.8,0,1.1-.2.2-.2.2-.5.2-.7,0-1,0-10.4,0-13.3,0-3.7,0-7.7,0-9.2,0,0,.1.2.2.2l.2.2c2.4,2.9,6,4.6,10.3,4.8,4.5.2,8.9-1.3,11.8-4.1.3-.3.5-.6.8-.8.7-.8,1.4-1.5,2-1.5.4,0,.9.5,1.4,1.3,2.3,3.1,6.1,4.9,10.8,5.2,5.1.3,10.3-1.6,13.2-4.7.2.3.2.9.2,1.5,0,.8,0,1.6.4,2,.2.2.5.3.8.3,1.8,0,7.7,0,9.7,0,.4,0,.7-.2.8-.4.4-.5.2-1.2,0-1.8,0-.4-.1-.7-.1-1,0-.5-.1-.8-.2-1,.2,0,.4-1.7.6-1.4,2,2.1,6.5,7.1,16.7,6.6,7.7-.2,12.4-2,16.2-6.3.4-.4.9-.6,1.3-.6,1.1,0,2.3,1.3,3,2.1,4.5,4.5,15.3,6.8,23.5,2.8,1.4-.4,2.9-1.8,4.3-3.2,1.2-1.2,2.6-2.6,3.2-2.3.3.1.7.8.5,3.7,0,.4,0,.7,0,1,0,.6,0,1.2.3,1.7,0,0,0,0,.1,0,1.2.2,3.9.2,6.6.2,1.5,0,3,0,3.9,0,.4,0,.7,0,.9-.2.4-.4.5-1,.5-1.6,0-1,.2-1.4.7-1.5.2,0,.7.1,1.6.9,2.7,2.3,6.9,3.6,11.2,3.3,4.5-.2,8-1.6,10.3-4.1.1,0,.2-.2.3-.3.1-.1.3-.3.4-.4.1.2.1,1.1.2,1.6,0,.5,0,1,0,1.3,0,.2.1.8.7.9,1.4.1,4,0,6.2,0,1.4,0,2.7,0,3.6,0,.3,0,.7,0,1-.2.4-.3.3-.9.3-1.3h0c-.7-3.7-.7-11.5-.6-17,0-.9,0-1.9,0-2.8,0-1.5,0-2.8,0-4.2,0-2,0-3.8,1.4-4.1.1,0,.2,0,.2,0,.1,0,0,.6,0,1,0,.3,0,.5,0,.9.1,2.9,0,5.6,0,8.3-.1,5.3-.3,10.4,1.2,15,2.5,4.6,8.4,4.5,13.6,4.3,1.6,0,3,0,4.4,0,.4,0,.8-.1,1-.4.5-.5.5-1.4.5-2.3,0-.7,0-1.5.3-1.9.1-.2.3-.3.5-.4.4,0,1,.2,1.6.7,3.7,3.3,8.8,5.1,14.6,5.1,8.2.2,15.6-4.2,18.8-11.2.3-.7.6-1.4.3-1.9-.2-.3-.6-.4-1.1-.4-2,0-6.3,0-8.1,0h0c-1.2,0-1.6.5-2.3,1.1l-.2.2c-1.3,1.3-3.2,2.1-5.5,2.4-2.5.4-5.2-.2-7.2-1.6-1.6-1.2-2.6-2.8-2.9-4.7-.1-.7,0-.8,0-.9,0,0,0,0,.2,0,1.4,0,5.2,0,9.5,0,6.9,0,15.5,0,17.7,0,.1,0,.2,0,.3-.2,1.4-5.8-1.3-12.9-4.5-16.8ZM60.1,43.6c-1.1,0-2.6,0-3.9-.7-1.2-.6-2-1.8-2-3.2,0-1.4.8-2.6,2.1-3.2,2.6-1.2,4.7-1.5,8.1-1.9.5,0,1-.1,1.5-.2.2,0,.3,0,.5,0,.4,0,.6,0,.7.2.1,0,.2.2.2.4h0c0,5.3-2.7,8.6-7.2,8.8ZM105.3,39.7h0c0,.1,0,.1,0,.1-1.4,1.8-3.7,2.8-6.3,2.7-2.5-.1-4.7-1.3-5.9-3.3-2.4-3.8-2.6-11.9.7-15.5,1.3-1.5,3.4-2.4,5.5-2.4s.7,0,1.1,0c2.6.3,4.8,1.8,5.8,3.9,2.1,3.6,2.2,10.9-.9,14.4ZM121,32c-.2,0-.3,0-.4,0-.2-.2-.3-.6-.3-1.2,0-.7-.1-2-.3-3.2-.2-1.3,0-2,.5-2.2.7,0,1.5-.1,2.3-.1s1.2,0,1.8,0c1.4,0,2.8,0,4,0,.5-.1.7-.8.9-1.2,0,0,0-.2,0-.3.5-1.8,1.9-3.2,3.8-3.7,2.4-.7,5-.4,6.6.7,1,.7,1.7,1.7,1.8,2.9h0c.2,1,.4,2.3-.1,3-.2.2-.5.3-.9.3-6.6.6-13.6,1.5-19.7,5.1h0ZM135,43.6c-1.1,0-2.6,0-3.9-.7-1.2-.6-2-1.8-2-3.2,0-1.4.8-2.6,2.1-3.2,2.6-1.2,4.7-1.5,8.1-1.9.5,0,1-.1,1.5-.2.2,0,.3,0,.5,0,.4,0,.6,0,.7.2.1,0,.2.2.2.4h0c0,5.3-2.7,8.6-7.2,8.8ZM176.1,42.2h-.1c-2.9,1.3-8.6,1.6-11.3-1.1-.5-.5-.9-1.3-1.3-2v-.2c-.3-.4-.6-.6-1-.7-.6,0-1.4,0-2.1,0s-1,0-1.5,0c-.8,0-1.6,0-2.2,0-.2,0-.5,0-.7,0-.6,0-1,0-1.4-.2-.8-.5-.8-1.6-.7-2.6v-5c0-.9.2-1,.2-1,.2,0,1,.8,1.3,1.2.3.4.7.8.9.9,1.9,1.6,4.2,2.8,7.2,3.5,1.6.4,3.2.6,4.8.9,2.1.3,4.3.7,6.4,1.3,1.8.5,2.9,1.5,3.1,2.6.1.9-.5,1.7-1.6,2.4ZM186.5,27.2c-.1.7-.3,1.5-.3,2.2,0,.6-.2.9-.5,1.1-.3.2-.8,0-1.5-.3-3.1-1.7-7.4-2.4-11.6-3.2-1.9-.3-3.7-.7-5.3-1.1-2-.5-3-1.4-3.1-2.8,0-.6.2-1.1.6-1.5,1-.9,3-1.2,5-1.2s1.4,0,2.1.1c2.8.3,4.3,1.2,5.3,3,.3.4.6.6,1.1.6.8,0,2.6,0,4.3,0,1.4,0,2.6,0,3.3,0,.4,0,1,0,1,.9h0c0,.8-.2,1.4-.3,2.1ZM223.3,35.3h0c-.5,1.3-1.3,1.3-3,1.3-.7,0-1.5,0-2.2,0-1.3,0-2.6,0-3.6.2,0,0,0,0,0,0-.4.3-.6.7-.8,1.1,0,.1,0,.2-.1.3-.9,2.3-2.7,3.6-5.1,4.1-2.6.5-4.9,0-6.6-1.6-2.1-1.8-3.4-5-3.3-8.5,0-3.9.7-6.8,2.2-8.6,1.4-1.7,3.7-2.7,6-2.7s3.1.4,4.3,1.3c.9.7,1.6,1.7,2.1,2.9v.2c.3.6.7,1.5,1.6,1.5.9,0,2.6,0,4.2,0,.9,0,1.7,0,2.3,0,.5,0,1.7,0,2.1,1.1.2.4.2,1.2.2,2,0,.4,0,.8,0,1.1,0,.5,0,1,0,1.5,0,.9,0,1.9,0,2.6ZM236.6,34h0c-.2.2-.7.6-.8.6,0,0,0,0,0,0,0-1.2,0-4.1,0-7.4,0,0,0-.2.1-.2,0,0,0,0,0-.1,0,0,0,0,0,0h0c0,0,.1-.2.2-.2.1-.1.3-.3.4-.4,0,0,0,0,0,0,0,0,0,0,0,0,0,0,0,0,.1,0,0,0,.2-.1.2-.2,0,0,.2,0,.3-.1,0,0,0,0,.1,0,0,0,0,0,0,0,0,0,0,0,0,0,.2,0,.4-.1.6-.2,1.5,0,3.4,0,4.4,0,1.2,0,2.4,0,3.2,0,1.1,0,1.5-.9,1.7-1.6,0-.2.2-.4.3-.7,1-2.4,4.1-3.4,6.5-3.3,2,0,4.4,1,5.1,3.2.5,1.5.5,2.7,0,3.3-.3.5-1,.7-1.8.6-5.8.6-11.1,1.3-16.5,3.8-1.5.7-3,1.9-4.3,3.2ZM252.8,43.6c-1.1,0-2.6,0-3.9-.7-1.2-.6-2-1.8-2-3.2,0-1.4.8-2.6,2.1-3.2,2.6-1.2,4.7-1.5,8.1-1.9.5,0,1-.1,1.5-.2.2,0,.3,0,.5,0,.4,0,.6,0,.7.2.1,0,.2.2.2.4h0c0,5.3-2.7,8.7-7.2,8.8ZM292,40.8h0c0,.5,0,.8-.2,1-.4.4-1.4.5-2.8.4-2.9-.1-3.5-1.8-3.4-4.4v-16.2c0,0,0-.1,0-.1,0,0,.4,0,.6,0,.4,0,1,0,1.6,0,1.1,0,2.4,0,3.1,0,.5,0,.9.2,1.1.5.4.7,0,1.4-.3,2.2-.2.4-.3.8-.4,1.1-1.4,4.5-1.1,10.6.8,15.5ZM318.7,27.4c-1.3,0-4.5,0-7.6,0-1.2,0-2.4,0-3.4,0s-1.3,0-1.8,0c-.6,0-1.2,0-1.7,0-.6,0-1.2,0-1.4,0h0s0,0,0,0c.3-4.3,4.3-6.4,7.9-6.5,3.5-.1,7.3,1.5,8,5.6,0,.1,0,.3,0,.4,0,.3,0,.5,0,.6Z"/>
  <path class="st0" d="M387.8,21.6c.3-.8,0-2.8.2-4,0-1.2,0-2.4,0-3.5,0-.4,0-.6-.4-.7-1.5-.2-5.7,0-7.3,0-.3,0-.6,0-.7-.3-.3-2.3,0-6.5,0-9.1,0-1.3,0-1.2-1.2-1.2-.7,0-1.5,0-2.3,0-2,0-4.4,0-6.3,0-.7,0-2.1-.3-2.1.5,0,1.1,0,5.4,0,8,0,1.4.2,1.9-.6,2.1-5,.1-10.9,0-15.9,0-.8,0-1.3-.1-1.4.2.2,2.5-.5,35.2.2,38.6,1.7,0,9.4,0,11.2,0,.4,0,.6,0,.6-.5,0-5.9,0-27.6,0-29.6,0-.3.3-.3.7-.3.9,0,3.4,0,4.4,0,.8,0,.8.2.8.7,0,.7,0,2,0,3.6.2,8.2-.4,13.5.4,19.3.8,6.9,8.2,6.8,13.7,6.8,1.6,0,4.6,0,5.6,0,.5,0,.7-.3.7-.8,0-1.3,0-5,0-6.6,0-1-.4-1.2-1.6-1.2-2-.1-4.9.3-6.2-1.4-.7-1-.8-2.4-.8-3.6,0-2.5,0-11.7,0-16.1,0-.7.4-.7.9-.7,1.5,0,5.4,0,6.7,0,.2,0,.5,0,.6-.1h0Z"/>
  <path class="st0" d="M334.6,52c.5,0,2,0,3.7,0,1.5,0,3.1,0,4.6,0s3.7,0,4.3,0c0,0,.2,0,.2-.1.3-.4.2-.8.2-1.2,0-.2,0-.4,0-.7,0-1.1,0-2.5,0-4,0-2.5,0-5.1,0-6.7,0,0,0-.1,0-.2h0c0-.1-.1-.2-.2-.2-1.9-.1-4.6-.1-7.2,0-1.7,0-3.3,0-4.6,0-.2,0-.3,0-.5,0-.4,0-.6,0-.8.2-.2.2-.2.6-.2,1.3v9.4c0,.4,0,.7,0,1,0,.5,0,1.1.7,1.2Z"/>
  <path class="st0" d="M349.9,9.9c.5,0,1.8,0,3.3,0,1.3,0,2.8,0,4.1,0s3.3,0,3.8,0c0,0,.1,0,.2,0,.2-.3.2-.6.2-.9,0-.1,0-.3,0-.5,0-.8,0-1.9,0-3,0-1.9,0-3.8,0-5,0,0,0-.1,0-.2h0c0,0-.1-.1-.2-.1-1.7-.1-4.1,0-6.4,0-1.5,0-2.9,0-4.2,0-.2,0-.3,0-.4,0-.4,0-.6,0-.7.2-.2.2-.2.4-.2,1v7.1c0,.3,0,.5,0,.7,0,.4,0,.8.6.9Z"/>
  <path class="st0" d="M224.3,9.9c.5,0,1.8,0,3.3,0,1.3,0,2.8,0,4.1,0s3.3,0,3.8,0c0,0,.1,0,.2,0,.2-.3.2-.6.2-.9,0-.1,0-.3,0-.5,0-.8,0-1.9,0-3,0-1.9,0-3.8,0-5,0,0,0-.1,0-.2h0c0,0-.1-.1-.2-.1-1.7-.1-4.1,0-6.4,0-1.5,0-2.9,0-4.2,0-.2,0-.3,0-.4,0-.4,0-.6,0-.7.2-.2.2-.2.4-.2,1v7.1c0,.3,0,.5,0,.7,0,.4,0,.8.6.9Z"/>
</svg>