<?xml version="1.0" encoding="UTF-8"?><svg id="Livello_2" xmlns="http://www.w3.org/2000/svg" viewBox="0 0 509.84 118.3"><defs><style>.cls-1{fill:#00c2d1;}.cls-2{fill:#f871a0;}.cls-3{fill:#010101;}.cls-4{fill:#41bac1;}.cls-5{fill:#ff6683;}.cls-6{fill:#4dc7f6;}.cls-7{fill:#bab0f3;}.cls-8{fill:#d38d7b;}.cls-9{fill:#fff;}.cls-10{fill:#82d060;}.cls-11{fill:#ea90a7;}.cls-12{fill:#ffe286;}</style></defs><g id="Livello_1-2"><path class="cls-4" d="M113.12,95.68c2.37.12,5.97-4.5,8.06-5.48-.06-1.22-1.95-1.19-2.86-1.11-1.52.13-5.3,2-6.08,3.33-.55.93-.4,3.2.89,3.27Z"/><path class="cls-4" d="M136.02,93.3c2.55-2.72,5.37-5.2,9.06-6.18-1.55-1.39-4.24-1.09-6.15-.6-2.57.67-7.35,3.48-8.28,6.05-.3.82-.37,2.53-1.2,2.88-1.67.69-.88-1.98-.95-2.92-.02-.21.11-.41-.21-.35-.51.48-1.03.98-1.32,1.63-.43.95-.42,3.16-1.67,3.4-1.99.38-.43-3.07-.25-3.77.04-.14.2-.45-.07-.42-.59.93-1.27,1.68-1.71,2.71-.42,1-.49,3.04-1.62,3.3-1.94.44-.87-2.64-.49-3.58.42-1.04,1.12-1.91,1.71-2.85-.4.03-.89-.1-1.26.07-.59.27-1.86,1.69-2.46,2.17-.64.51-1.31,1.07-1.99,1.52-1.4.94-3.29,1.32-4.05,2.83-1.01,2.01-1.15,5.37-.45,7.48.16.47.73,1.85,1.26,1.77,3.54-1.8,7.28-2.7,10.73-4.73,4.58-2.69,7.8-6.62,11.35-10.42Z"/><path class="cls-4" d="M126.82,109.52c-.2.1-.34,0-.27.35.29.03.56,0,.85-.06.15-.03.68-.16.69-.36-.57-.06-.74-.21-1.27.07Z"/><path class="cls-4" d="M129.21,107.84c.13.3,1.18.25,1.48.21.24-.03.81-.16.91-.42-.96.09-1.63-.62-2.39.21Z"/><path class="cls-4" d="M132.02,105.94c.66-.14,1.54.18,2.14.11.16-.02.77-.17.81-.38-1.01-.16-2.56-1.19-2.95.28Z"/><path class="cls-4" d="M148.6,93.16l-2.39.35c.67.42,2.35.76,2.39-.35Z"/><path class="cls-9" d="M143.91,89.81c-4.73,2.05-8.85,7.9-12.73,11.43-4.88,4.44-7.9,5.31-13.76,7.73-.47.19-2.66,1.11-2.67,1.53.26.63.33,1.22.28,1.9,2.73-.92,5.39-2.05,8.07-3.1,4.65-1.81,8.52-5.23,12.16-8.63,4.22-3.94,6.81-9.29,13.28-9.63.29-.02.51,0,.76.14-.59-2.95-3.3-2.29-5.39-1.38Z"/><path class="cls-4" d="M135.74,102.72l-1.19.97c1.03.25,2.56.78,3.47.04.11-.09.26,0,.18-.32l-2.47-.7Z"/><path class="cls-4" d="M142.7,95.48c-.06.27.1.2.28.27.68.26,1.87.46,2.59.5.22.01.96.1,1.06-.14-.97-.09-1.9-.46-2.81-.77-.51-.18-.51-.59-1.12.14Z"/><path class="cls-4" d="M139.89,98.57c0,.32,2.11.22,2.45.21.46-.02,1.54-.09,1.94-.17.19-.04.47-.17.52-.39-1.31-.12-2.66-.21-3.87-.81l-1.05,1.16Z"/><path class="cls-4" d="M138.43,100.22l-1.21,1.02,2.88.64.46-.1,1.58-1.17h-2.04c-.33,0-1.32-.46-1.67-.39Z"/><path d="M93.06,104.09c-.83-.38-3.27-1.52-3.58-.16-.33,1.47,1.21,1.53,2.17,1.98,1.7.81,3.32,1.74,4.75,2.98.54.47,1.95,2.19,2.53,2.23.09,0,.44-.1.47-.15.32-.5-.59-2.04-.91-2.5-1.13-1.66-3.62-3.55-5.44-4.39Z"/><path d="M79.01,104.17c-1.96,0-1.92,1.58-.37,2.12,2.64.93,5.09,1.36,7.55,2.99.46.3,1.96,1.82,2.1,1.85.44.08.53-.62.41-.98-.77-2.39-7.17-5.98-9.68-5.98Z"/><path d="M100.73,101.05c-.38-.09-1.02.26-1.13.64-.25.82.78,2.34,1.26,3.04,1.05,1.54,2.64,3.35,4.47,3.89-.26-1.31-1.33-2.23-1.99-3.41-.52-.92-1.6-3.9-2.61-4.14Z"/><path d="M148.91,87.3c-.27-.14-.69-.16-.92-.31-.32-.21-1.11-1.32-1.57-1.7-4.28-3.51-11.32-.57-15.09,2.47-.46.37-1.33,1.62-1.52,1.71-.3.15-3.44,1.28-3.63,1.29-.32.03-.63-.14-.96-.15-.63-.01-1.27.02-1.9,0,.73-1.72-.95-3-2.2-3.85,0-.05-.68-.2-1.03-.21-1.51-.03-3.01.24-4.45.69-1.29.41-4.19,2.26-4.88,3.24-.61.86-1.32,2.82-1.33,3.87s1.01,2.42,1.67,3.2c-.23.79-.58,1.53-.77,2.33-.58,2.35-.68,5.32.11,7.62.72,2.13,2.67,3.51,2.21,6.01-5.36-.25-10.72-.26-16.09-.27-3.83-.01-7.82-.07-11.65.02-.22,0-.45.11-.7.12-5.8.15-13.51,0-19.1,1.13-1.97.4-2.92,1.19-.39,1.91,3.78,1.08,10.1,1.25,14.14,1.45,10.85.55,21.77.5,32.59.13,4.69-.16,9.52-.21,14.19-.7,1.04-.11,5-.56,5.48-1.4.07-.12.11-.27.05-.41-.44-.76-5.6-1.13-6.65-1.14l-1.33-.28c3.36-.69,6.53-2.39,9.51-4.05,5.28-2.96,15.41-9.42,17.96-14.91,1.26-2.72,1.2-6.28-1.73-7.83ZM112.23,92.41c.78-1.33,4.56-3.2,6.08-3.33.91-.08,2.8-.11,2.86,1.11-2.09.98-5.69,5.61-8.06,5.48-1.29-.07-1.43-2.34-.89-3.27ZM112.67,106.68c-.7-2.11-.57-5.47.45-7.48.76-1.51,2.65-1.89,4.05-2.83.68-.46,1.35-1.01,1.99-1.52.6-.48,1.88-1.9,2.46-2.17.37-.17.87-.04,1.26-.07-.59.94-1.29,1.81-1.71,2.85-.38.93-1.46,4.02.49,3.58,1.14-.26,1.2-2.3,1.62-3.3.44-1.04,1.12-1.79,1.71-2.71.27-.02.11.28.07.42-.19.7-1.75,4.15.25,3.77,1.25-.24,1.24-2.45,1.67-3.4.29-.65.81-1.15,1.32-1.63.32-.06.19.14.21.35.07.93-.72,3.61.95,2.92.83-.34.9-2.05,1.2-2.88.94-2.56,5.71-5.38,8.28-6.05,1.91-.49,4.6-.79,6.15.6-3.69.98-6.52,3.46-9.06,6.18-3.56,3.8-6.77,7.73-11.35,10.42-3.45,2.03-7.19,2.93-10.73,4.73-.53.08-1.11-1.3-1.26-1.77ZM127.39,109.81c-.29.05-.56.09-.85.06-.07-.36.07-.25.27-.35.53-.27.7-.13,1.27-.07-.01.2-.55.33-.69.36ZM130.69,108.05c-.3.03-1.35.08-1.48-.21.75-.83,1.43-.12,2.39-.21-.1.26-.67.4-.91.42ZM134.16,106.05c-.6.07-1.48-.24-2.14-.11.39-1.46,1.93-.43,2.95-.28-.04.21-.64.36-.81.38ZM138.02,103.74c-.92.74-2.44.2-3.47-.04l1.19-.97,2.47.7c.08.33-.07.23-.18.32ZM140.56,101.77l-.46.1-2.88-.64,1.21-1.02c.35-.07,1.34.39,1.67.39h2.04l-1.58,1.17ZM144.28,98.61c-.39.08-1.47.15-1.94.17-.34.02-2.46.11-2.45-.21l1.05-1.16c1.2.6,2.55.69,3.87.81-.05.21-.33.35-.52.39ZM145.57,96.26c-.73-.05-1.92-.25-2.59-.5-.18-.07-.34,0-.28-.27.61-.73.61-.32,1.12-.14.91.32,1.84.68,2.81.77-.1.25-.83.16-1.06.14ZM146.21,93.51l2.39-.35c-.04,1.11-1.72.77-2.39.35ZM148.54,91.05c-6.47.34-9.06,5.69-13.28,9.63-3.64,3.4-7.51,6.82-12.16,8.63-2.68,1.05-5.34,2.18-8.07,3.1.06-.69-.02-1.27-.28-1.9.01-.43,2.2-1.34,2.67-1.53,5.86-2.42,8.88-3.29,13.76-7.73,3.88-3.53,8-9.38,12.73-11.43,2.09-.91,4.8-1.57,5.39,1.38-.26-.14-.47-.16-.76-.14Z"/><path class="cls-4" d="M70.6,100.75c2.02-.25,4.19-3.51,5.35-6.4-.22-.03-.46-.11-.73-.27-.41-.24-.61-.61-.96-.87-.59-.43-2.78-1.75-2.88-2.33-.13-.75.64-1.12,1.27-.98,1.02.22,2.72,1.99,3.89,2.64.14-.56.23-1.08.23-1.49-.9-.83-1.64-1.81-2.52-2.67-.54-.52-1.41-.75-1.35-1.61.05-.74,1.06-1.13,1.7-.84.41.19,1.65,1.74,2.18,2.17.34.27,1.26.96,1.66.83l.65-1.11c-.68-.29-3.58-2.34-3.63-2.91.18-.51.77-.94,1.31-.9.77.05,2.54,1.91,3.43,2.21l.85-.72c-.86-.56-3.07-3.37-2.92-4.32.06-.37.67-.87,1.03-.88.75-.03,1.43,1.73,1.97,2.33.36.41,1.23,1.24,1.79,1.1.42-.11.76-.75,1.23-.82.06-.21-.06-.23-.14-.35-.39-.56-1.03-1.07-1.47-1.76-2.74-4.34-.53-9.54,3.71-11.86-3.77-5.02-7.83-2.87-10.47,1.75-1.58,2.77-2.7,5.97-4.26,8.81-2.12,3.87-4.52,6.51-5.13,11.17-.35,2.73.01,10.6,4.19,10.09Z"/><path class="cls-4" d="M83.05,75.01c-.5,3.86.68,5.65,2.97,6.52.45.17,2.35.14,3.26-.21.52-.06,1.03-.27,1.17-.77.13-.44-.17-.93-.53-1.17-.41-.27-.91-.26-1.38-.25-.15-.12-.33-.29-.52-.45-.47-.42-.72-1.05-.66-1.68.06-.61.16-1.36.32-1.82.1-.21.2-.4.32-.59.4-.61,1.07-.95,1.75-1.24.3-.01.6-.03.89-.08.42-.06.77-.21.98-.61.26-.49.06-.99-.36-1.3-.75-.55-1.93-.71-2.83-.75-1.21-.06-2.41.28-3.35,1.04-1.05.84-1.87,2.05-2.04,3.35Z"/><path class="cls-9" d="M66.71,83.65c.94-1.88,2.32-3.54,3.31-5.4,1.18-2.23,2.05-4.64,3.25-6.87,1.4-2.6,3.06-4.92,5.41-6.74-2.34-.89-4,.76-5.31,2.48-2.61,3.41-3.66,7.61-5.71,11.29-1.47,2.63-3.28,4.7-4.29,7.65-1.61,4.69-1.59,10.72,2.46,14.12l-.99-3.08c-.87-4.57-.19-9.3,1.88-13.45Z"/><path class="cls-4" d="M83.17,86.77c0,.13,1.17,2.08,1.34,2.31.25.33,1.65,1.76,2.03,1.41l-.14-.7.28.14c-.06-1.57-1.59-3.08-3.12-3.28-.11-.01-.38-.14-.39.11Z"/><path d="M71.38,90.89c.1.57,2.29,1.9,2.88,2.33.35.25.55.63.96.87.27.16.51.23.73.27.25-.64.45-1.25.59-1.81-1.17-.65-2.87-2.42-3.89-2.64-.63-.13-1.4.23-1.27.98Z"/><path d="M76.91,98.07c1.39-2.2,1.18-3.71,2.02-5.84.55-1.38,1.78-2.65,2.49-3.98l1.89,2.46c1.14,1.11,3.09,2.49,4.43.91,2.03-2.38-.38-5.62-2.6-6.82.31-.15.72-.96.93-1.03.53-.18,1.17.11,1.65.1.22,0,.47-.05.75-.12,2.49-.65,4.27-2.84,4.63-5.38.21-1.51.6-7.72-.65-8.74-1.14-.92-2.71-.76-4.08-.98-.87-1.56-2.08-3.35-3.79-4.07-.97-.41-2-.4-2.94-.71-2.42-.79-3.88-2.4-6.85-1.22-3.83,1.53-7.01,10.65-8.96,14.22-1.78,3.25-3.86,5.85-4.92,9.55-1.64,5.74-.84,14.9,6.11,16.51,4.8,1.11,7.44-.97,9.89-4.86ZM86.68,89.93l-.28-.14.14.7c-.38.35-1.78-1.08-2.03-1.41-.17-.23-1.34-2.18-1.34-2.31,0-.25.28-.13.39-.11,1.53.2,3.06,1.7,3.12,3.28ZM88.44,70.62c.9.05,2.08.2,2.83.75.42.31.62.81.36,1.3-.21.39-.56.54-.98.61-.3.04-.59.07-.89.08-.68.29-1.35.63-1.75,1.24-.12.18-.23.38-.32.59-.16.46-.26,1.21-.32,1.82-.06.63.18,1.26.66,1.68.19.17.38.34.52.45.47-.01.97-.02,1.38.25.36.24.65.73.53,1.17-.14.5-.65.71-1.17.77-.91.35-2.81.38-3.26.21-2.29-.87-3.46-2.67-2.97-6.52.17-1.31.99-2.52,2.04-3.35.94-.76,2.14-1.1,3.35-1.04ZM63.36,86.06c1.01-2.95,2.82-5.02,4.29-7.65,2.05-3.68,3.1-7.87,5.71-11.29,1.31-1.72,2.97-3.37,5.31-2.48-2.35,1.82-4.01,4.14-5.41,6.74-1.2,2.22-2.06,4.63-3.25,6.87-.99,1.86-2.37,3.52-3.31,5.4-2.06,4.15-2.75,8.88-1.88,13.45l.99,3.08c-4.05-3.4-4.07-9.43-2.46-14.12ZM66.41,90.66c.6-4.66,3-7.3,5.13-11.17,1.56-2.84,2.67-6.03,4.26-8.81,2.64-4.62,6.7-6.77,10.47-1.75-4.24,2.32-6.44,7.52-3.71,11.86.44.7,1.08,1.2,1.47,1.76.08.12.19.15.14.35-.47.07-.81.71-1.23.82-.56.14-1.43-.69-1.79-1.1-.54-.6-1.21-2.36-1.97-2.33-.36.01-.97.51-1.03.88-.15.95,2.06,3.77,2.92,4.32l-.85.72c-.89-.3-2.66-2.16-3.43-2.21-.54-.03-1.13.39-1.31.9.05.57,2.96,2.62,3.63,2.91l-.65,1.11c-.4.13-1.32-.56-1.66-.83-.53-.43-1.77-1.98-2.18-2.17-.64-.29-1.64.1-1.7.84-.06.86.82,1.09,1.35,1.61.88.85,1.62,1.83,2.52,2.67,0,.42-.09.93-.23,1.49.1.05.19.11.28.15.43,1.09-.02,1.79-.88,1.66-1.15,2.89-3.33,6.15-5.35,6.4-4.18.51-4.54-7.36-4.19-10.09Z"/><path d="M76.82,92.69c-.09-.04-.19-.1-.28-.15-.14.56-.34,1.17-.59,1.81.85.13,1.3-.57.88-1.66Z"/><path class="cls-6" d="M251.42,57.07c-4.81.5-8.59,1.18-11.3,2.01-2.87.76-5.72,2.93-5.42,6.04.15,4.15,4.83,5.78,8.4,5.4,6.78-.19,10.17-5.2,10.1-12.14v-.19c0-1.01-.92-1.21-1.78-1.12Z"/><path class="cls-12" d="M412.04,61.97c-.91-2.76-3.71-3.92-6.91-4.03-3.74-.24-7.66,1.29-8.91,5.03-.45,1.01-.52,2.73-1.85,2.7-2.68.07-12.36-.12-14,.08l-.04.03c-.36,2.31-.02,9.79-.13,12.37.03.72.24.48.76-.17,6.78-8.03,19.44-9.15,29.54-10.34,3.05,0,2.13-3.84,1.53-5.67Z"/><path class="cls-5" d="M146.25,47.62c-5.62.67-9.19,1.05-13.08,2.83-5.88,3.41-2.18,9.88,3.81,9.61h.2c6.24.07,10.25-3.4,10.56-10.41.17-1.15-.17-2.19-1.5-2.03Z"/><path class="cls-8" d="M187.15,51.27c-4.8,2.83-5.52,8.48-5.45,13.56.07,7.36,3.03,13.12,10.32,13.59,7.76.51,11.95-7.02,11.71-14.22v-.21c.42-9.72-7.28-17.56-16.58-12.72Z"/><path class="cls-11" d="M363.23,48.3c.01-.68-.34-.67-1.04-.67-2.21,0-8.71,0-10.93,0-1.21.06-1.46-.64-1.98-1.91-1.61-5.97-9.08-7.84-14.04-4.95-5.05,2.89-5.82,8.82-5.69,14.12.28,5.16,1.07,8.42,4.32,11.23,4.97,4.31,14.43,2.59,16.32-4.35.32-.83.87-1.41,1.79-1.31,2.63-.1,9.14.19,11.11-.11l.04-.04c.29-1.58.02-9.9.1-12.02Z"/><path class="cls-7" d="M411.31,77.9c-4.26.49-8.06,1-11.66,2.27l-.16.06c-2.46.85-4.48,3.14-3.83,5.92,1.1,4.51,7.11,4.69,10.68,3.68,4.09-1.16,6.3-4.37,6.68-9.68.19-1.42-.09-2.49-1.71-2.26Z"/><path class="cls-10" d="M492.61,57.95c.3,0,.39-.22.32-.79-.35-3.53-2.94-6.34-6.22-7.33-3.86-1.22-8.55-.64-11.59,1.68l-.14.11c-1.75,1.32-3.04,3.64-3.39,5.82-.03.28.02.43.16.48,1.91.07,18.33.01,20.86.03Z"/><path class="cls-3" d="M363.22,30.74c-.02,1.44-.01,2.15.37,2.42l.06.04c2.79.42,13.04.05,15.49.14,1.32-.17.91-1.31.99-2.61v-8.48c0-1.98.15-2.6-1.34-2.62-2.6,0-12.31,0-14.47,0-.49.04-.86.14-1,.65-.25,2.86-.02,7.45-.09,10.44Z"/><path class="cls-3" d="M472.29,68.58c4.9,0,32.7,0,36.46,0,1.14-.05.93-1.75,1.09-2.72.05-8.29-2.05-15.07-6.68-20.74l-.12-.14c-9.78-12.23-31.55-11.58-41.83.12-1.93,2.16-1.11-.64-2.23-1.58-2.68-.68-7.78,0-10.05-.31-.76-.09-.61-.68-.63-2.25-.03-3.12.02-6.67,0-9.83-.03-1.91-.31-2.03-2.2-2.04-4.05,0-8.56,0-12.67,0-1.87,0-2.04.24-2.04,2.41,0,10.5,1.63,11.81-6.48,11.81-3.37,0-.66,5.7-2.11,7.37-13.05-8.43-37.77-4.63-42.55,11.12-.01-3.06,0-19.43,0-22.8-.02-.56-.1-1.02-.67-1.2-4.15-.34-10.78-.08-15.01-.11-1.13.02-1.17,1.55-1.82.98-5.08-8.75-14.93-13.28-24.91-12.49-9.57.37-17.39,4.89-21.89,12.78-.98,1.18-1.26,4.28-2.97,4.27-3.27-1.76-6.35-3.4-11.5-4.5-4.61-1.15-10.5-1.71-14.74-2.98-9.36-4.4,1.47-8.05,6.89-6.64,4.06.42,5.43,2.04,7.18,4.43,3.34.87,11.12.12,13.95.34.46-.03.89-.08,1.07-.52-1.5-21.12-41.25-22.94-48.19-4.84-4.54,16.56,13.38,21.05,26.09,22.3,16.37,3.64,1.12,11.21-7.25,7.45-3.11-.61-3.68-4.31-6.03-5.55-2.73-.18-8.42.05-11.12-.1-1.3-.22-.7-1.92-.83-3.89,3.69-27.97-42.42-29.27-48.15-6.25-.29,1.37-.53,2.44.87,2.45,2.53.02,9.73.02,12.26,0,3.42-1.54,1.42-7.13,9.94-7.51,5.75-.86,11.04,4.1,8.82,9.61-3.6,1.82-8.8,1.08-12.23,2.13-6.72,1.12-13.51,3.38-18.73,7.81-3.75-10.46-9.29-20.12-22.35-20.4-6-.55-11.88,2.51-16.16,6.08-.87-6.81-.16-4.64-7.33-4.99-3.37.46-7.27-1.02-9.08.79-.52,3.18-.46,19.03-.73,26.13-.03.76-1.13.86-1.29.11-2.89-13.48,4.01-30.92-4.82-42.01-6.13-6.02-16.16-7.94-25.2-6.24-3.08-.3-6.72.59-8.06-3.06-1.34-3.9-2.11-7.92-3.22-12.02-.16-.44-2.41-.39-4.58.15-14.1,3.65-57.53,14.25-60.64,15.35.63,3.32,3.01,11.73,3.59,14.26.12.46.27.84.78.67,2.76-.67,16.42-4.13,21.94-5.5,1.47-.37,1.13-.33,1.4.53.07.25.12.5.2.78,2.27,8.81,13.69,53.4,14.45,56.3.05.17.23.18.4.14.44-.08,1.74-.42,3.59-.88,4.16-1.09,9.28-2.27,12.73-3.22.43-.12.69-.54.61-.98-.92-5.1-7.85-30.35-11.63-45.75-1.59-6.25-2.78-10.76-2.92-11.46-.02-.23.35-.27,1.73-.63,4.12-1.03,13.01-3.27,15.46-3.88,1.31-.34,3.46-.83,4.33.51.52.96-.16,1.92-.71,2.75-2.74,1.75-5.07,3.97-6.71,6.65-1.35,1.76-3.99,8.14-.94,8.27,2.76-.47,12.51,1.11,14.08-.87,1.2-7.36,13.7-9.46,16.54-2.52.73,1.92,1.07,5.22-1.79,5.33-10.13,1.29-22.8,2.1-29.62,10.61-7.92,11.87,4.09,24.96,17.36,23.75,13.5-1.23,15.57-10.83,15.89-2.15.18,1.56,6.78,1.08,11.74.91,2.85-.1,5.21,2.17,5.22,5.01.02,6.77.05,18.56.02,25.76.39,1.99-1.25,6.43,1.72,6.15,21.11-.44,13.98,4.6,15.19-21.61.02-.82.23-.68,1.09.19,4.99,5.17,12.91,6.76,19.8,5.17,7.83-1.66,13.86-8.17,16.22-15.7.55-1.38,1.09-1.19,1.96-.23,7.12,8.46,24.14,7.74,30.93-.01,1.7-2.08,1.19,2.02,1.34,3.03.05,1,0,1.78,1.02,1.78,2.28.02,10.4,0,13.26,0,1.33.13,1.29-.78,1.07-1.78.25.56-2.61-19.63.46-15.73,9.67,12.02,28.46,11.29,41.06,4.43,1.55-.85,3.53-.31,4.36,1.25,7.78,14.61,30.17,18.47,43.04,6.95,1.06-.84,2.09-2.05,3.02-3.24.66-.84,2.02-.38,2.03.69.07,4.89.12,13.89.13,16.34-.35,3.12,8.75,1.01,11.21,1.59,3.37-.13,4.38-.24,5.39,2.7,5.76,11.1,24.42,11.14,32.49,3.54,2.06-1.9.94,2.69,1.83,3.62,3.41,1.13,11.14.07,14.49.42,1.13.12,1.76-.65,1.48-1.8-.59-3.65-.95-9.03-.93-15.96-.02-5.52.14-11.27.14-16.96s-3.23-10.19-1.35-10.43c4.85-.98,3.12,1.7,3.4,5.64.89,21.57-5.94,36.74,21.24,34.83,1.88-.06,5.43.25,6.58-.32.87-3.03.64-8.26.17-11.56-1.33-.99-5-.45-7.58-.88-1.36-.22-2.47-1.22-2.84-2.54-1.61-5.67-.22-13.24-.65-21.27.05-1.99-.16-3.13.16-3.79,1.66-.48,3.9-.23,5.74-.13,2.32,1.08.46,2.46.17,7.92-1.7,31.94,45.8,38.97,54.79,10.25-.14-.71-.91-.63-1.5-.65-3.48.27-10.11-.59-13.46.41-5.1,6.66-19.61,6.77-22.27-2.73-.35-.87-.68-2.55.36-2.28ZM147.75,49.65c-.31,7.01-4.32,10.48-10.56,10.41h-.2c-5.99.26-9.69-6.21-3.81-9.62,3.89-1.78,7.46-2.16,13.08-2.83,1.33-.16,1.67.88,1.5,2.03ZM203.73,63.99v.21c.24,7.2-3.95,14.74-11.71,14.22-7.29-.48-10.25-6.24-10.32-13.59-.07-5.08.65-10.74,5.45-13.56,9.3-4.84,17,3,16.58,12.72ZM243.1,70.52c-3.58.38-8.26-1.25-8.4-5.4-.3-3.11,2.55-5.29,5.42-6.04,2.7-.83,6.49-1.51,11.3-2.01.85-.09,1.78.1,1.77,1.12v.19c.08,6.94-3.31,11.95-10.09,12.14ZM363.13,60.32l-.04.04c-1.97.3-8.48.01-11.11.11-.92-.1-1.47.48-1.79,1.31-1.89,6.94-11.35,8.65-16.32,4.35-3.25-2.81-4.04-6.07-4.32-11.23-.12-5.29.65-11.23,5.69-14.12,4.97-2.89,12.44-1.02,14.04,4.95.52,1.27.77,1.97,1.98,1.91,2.22,0,8.72,0,10.93,0,.69,0,1.05-.01,1.04.67-.08,2.13.19,10.45-.1,12.02ZM380.97,77.98c-.53.65-.74.89-.76.17.1-2.58-.23-10.07.13-12.37l.04-.03c1.64-.19,11.32,0,14-.08,1.33.03,1.39-1.69,1.85-2.7,1.25-3.75,5.17-5.28,8.91-5.03,3.21.11,6,1.27,6.91,4.03.6,1.83,1.52,5.67-1.53,5.67-10.1,1.19-22.76,2.32-29.54,10.34ZM413.03,80.16c-.39,5.3-2.59,8.52-6.68,9.68-3.57,1.01-9.58.83-10.68-3.68-.65-2.78,1.37-5.07,3.83-5.92l.16-.06c3.6-1.27,7.4-1.78,11.66-2.27,1.63-.23,1.91.84,1.71,2.26ZM474.99,51.63l.14-.11c3.05-2.32,7.73-2.9,11.59-1.68,3.28.99,5.87,3.8,6.22,7.33.06.57-.02.78-.32.79-2.53-.01-18.94.04-20.86-.03-.14-.05-.19-.2-.16-.48.34-2.18,1.63-4.5,3.39-5.82Z"/><path class="cls-6" d="M220.17,25.02h-39.17c-.11,0-.22.16-.3.45-.08.28-.12.65-.11,1.02,0,.78.19,1.39.41,1.39h39.17c.11,0,.22-.16.3-.45.08-.28.12-.65.11-1.03,0-.78-.19-1.39-.41-1.39Z"/><path class="cls-2" d="M270.75,10.38h-74.05c-.11,0-.21.17-.29.47-.07.29-.11.67-.11,1.07.01.81.18,1.45.39,1.45h74.05c.11,0,.21-.17.29-.47.07-.29.11-.68.11-1.07,0-.82-.18-1.45-.39-1.45Z"/><path class="cls-11" d="M290,102.21h-74.05c-.11,0-.21.17-.29.47-.07.29-.11.67-.11,1.07.01.81.18,1.45.39,1.45h74.05c.11,0,.21-.17.29-.47.07-.29.11-.68.11-1.07,0-.82-.18-1.45-.39-1.45Z"/><path class="cls-12" d="M345.55,87.67h-74.05c-.11,0-.21.17-.29.47-.07.29-.11.67-.11,1.07.01.81.18,1.45.39,1.45h74.05c.11,0,.21-.17.29-.47.07-.29.11-.68.11-1.07,0-.82-.18-1.45-.39-1.45Z"/><path class="cls-7" d="M352.32,16.98h-30.44c-.14,0-.28.17-.38.47-.1.29-.15.67-.15,1.07.01.81.25,1.45.53,1.45h30.44c.14,0,.28-.17.38-.47.1-.29.15-.67.14-1.07-.01-.81-.24-1.45-.53-1.45Z"/><path class="cls-10" d="M426.35,29.4h-33.99c-.09,0-.17.17-.23.47-.06.29-.09.67-.09,1.07,0,.81.15,1.45.32,1.45h33.99c.09,0,.17-.17.23-.47.06-.29.09-.67.09-1.07,0-.81-.15-1.45-.32-1.45Z"/><path class="cls-5" d="M82.07,47.47H21.5c-.11,0-.22.17-.3.47-.08.29-.12.67-.11,1.07.01.81.19,1.45.41,1.45h60.57c.11,0,.22-.17.3-.47.08-.29.12-.67.11-1.07-.01-.81-.19-1.45-.41-1.45Z"/><path class="cls-8" d="M45.55,23.04H.62c-.17,0-.33.17-.45.47-.12.29-.18.67-.17,1.07.01.81.29,1.45.62,1.45h44.93c.17,0,.33-.17.45-.47.12-.29.18-.67.17-1.07-.01-.81-.29-1.45-.62-1.45Z"/><path class="cls-1" d="M80.09,0h-45.59c-.2,0-.4.17-.54.47-.14.29-.21.67-.21,1.07.02.81.35,1.45.75,1.45h45.59c.2,0,.4-.17.54-.47.14-.29.21-.67.21-1.07-.02-.82-.35-1.45-.75-1.45Z"/></g></svg>